<svg xmlns="http://www.w3.org/2000/svg" viewBox="0 0 1000 1000"><path d="M500 10c66.2 0 130.3 13 190.7 38.5 58.3 24.7 110.8 60 155.8 105 45 45 80.3 97.4 105 155.8C977 369.7 990 433.8 990 500c0 43.8-5.8 87.1-17.1 129-10.9 40.1-26.9 78.7-47.7 114.8-2 2.5-2.7 5.7-1.8 8.8l62.5 233.3L762.2 926c-1.9-3.1-5.2-4.9-8.6-4.9-1.6 0-3.2.4-4.8 1.2l-3.6 2c-.6.3-1.1.6-1.6 1C707.6 946 669 962 629 972.9c-41.8 11.4-85.2 17.1-129 17.1-66.2 0-130.3-13-190.7-38.5-58.3-24.7-110.8-60-155.8-105-45-45-80.3-97.4-105-155.8C23 630.3 10 566.2 10 500c0-66.2 13-130.3 38.5-190.7 24.7-58.3 60-110.8 105-155.8 45-45 97.4-80.3 155.8-105C369.7 23 433.8 10 500 10m0-10C223.9 0 0 223.9 0 500c0 276.2 223.8 500 500 500 91.1 0 176.5-24.4 250.1-67h-.2l3.6-2c-1.1.7-2.3 1.3-3.4 2l249.9 67-67-250.1h.1c42.5-73.5 66.9-158.9 66.9-250C1000 223.9 776.1 0 500 0z"/></svg>
