<svg xmlns="http://www.w3.org/2000/svg" viewBox="0 0 1800 400">
  <style>
    .fill_00e300 { fill: #00e300;}
    .fill_ { fill: #000;}
  </style>
  <!-- <path fill="#1baeef" d="M0 0h1800v400H0z"/>
  <path fill="#006100" d="M0 0h1800v400H0z"/>-->
  <path d="M210 342.6c-21.3 0-41.1-3.4-59-10s-34.3-16.7-48.6-30c-13.8-12.6-24.8-28.1-32.7-46-7.9-18-12-36.8-12-56 0-18.9 2.1-35.5 6.3-49.6 4.2-14 9.9-26.8 17.1-38.2C88.8 101.1 97.8 90.7 108 82c8.1-6.9 17.1-12.9 26.8-17.8 3.7-2.3 7.9-3.5 12.3-3.5 12.7 0 23.1 10.3 23.1 23.1 0 9.6-6 18.2-14.9 21.6-2 1.1-4.1 2.2-6.4 3.3-11.8 6-25.8 19.9-33.3 32.9-8 14.1-12.1 30.4-12.1 48.4 0 18.3 2.8 34.1 8.2 46.8 5.4 12.7 13 23.5 22.4 32.2 19.6 18 45.2 27.2 76 27.2 31.1 0 56.6-9 76-26.8 20.3-18.7 30.6-44 30.6-75.1 0-24.9-7.8-46.7-23.1-64.6-14.4-17-33.3-26.4-56.2-28v96.5c0 12-9.7 21.7-21.7 21.7-11.6 0-21.3-9.3-21.7-20.9-.1-.4-.1-.8-.1-1.2v-133c0-4 3.2-7.2 7.2-7.2h139.6c11.8.3 21.4 10.1 21.4 22 0 12-9.7 21.8-21.7 22h-17.9c5.8 5.4 11.1 11.3 15.7 17.6 8.7 11.9 15.3 25.6 19.6 40.8v.1c3 11.1 4.5 25.8 4.5 43.6 0 18.2-4 36.5-11.9 54.5s-19 33.5-32.8 46c-14 12.9-30.3 22.6-48.2 29.1-17.9 6.1-37.8 9.3-59.4 9.3zm-2.1-58.3c-12.3 0-24.2-2.3-35.4-7-21.4-8.9-37.2-25.2-44.4-45.9-.1-.3-.2-.6-.2-.9-.1-.3-.3-.7-.4-1-3.8-11.1 2-23.2 13.1-27.1 2.3-.8 4.6-1.2 7-1.2 9.1 0 17.1 5.8 20.1 14.3.1.4.3.8.4 1.3l.3.6c5.7 16.4 22 27 41.5 27 5.9 0 11.9-1 17.6-3 25-8.7 39.2-33.6 31.6-55.4-.1-.3-.2-.6-.2-.8-.1-.4-.3-.7-.4-1.1-1.9-5.4-1.5-11.1 1-16.3 2.5-5.1 6.8-9 12.2-10.8 2.3-.8 4.6-1.2 7-1.2 9.1 0 17.1 5.8 20.1 14.3.1.4.3.8.4 1.2.1.2.2.5.3.7 7.2 20.7 4.9 43.3-6.4 63.5-11.2 20-29.8 35.3-52.5 43.2-10.7 3.8-21.7 5.6-32.7 5.6zM153 188.9c-14.8 0-26.8-12-26.8-26.8s12-26.8 26.8-26.8 26.8 12 26.8 26.8-12 26.8-26.8 26.8z" fill="#00e300"/>
  <path class="logo_outline" d="M340.2 61.4c9.8.1 17.8 8.1 17.8 18s-8 18-18 18H311.6c9 7 16.8 15.1 23.3 24 8.4 11.5 14.8 24.8 19 39.5 2.9 10.8 4.4 25.1 4.4 42.6 0 17.6-3.9 35.4-11.6 52.9-7.7 17.4-18.4 32.5-31.8 44.7-13.7 12.5-29.4 22-46.9 28.3-17.4 6.2-36.9 9.4-58 9.4-20.8 0-40.2-3.3-57.6-9.7-17.4-6.5-33.3-16.3-47.3-29.2-13.4-12.2-24.1-27.3-31.8-44.7-7.7-17.4-11.6-35.7-11.6-54.4 0-18.5 2.1-34.8 6.1-48.4 4.1-13.6 9.7-26.1 16.6-37.2 7.4-11.5 16.2-21.6 26.1-30 7.9-6.7 16.7-12.5 26.2-17.4 3-1.9 6.5-3 10.3-3 10.5 0 19.1 8.5 19.1 19.1 0 8.3-5.2 15.3-12.6 17.9-2 1.1-4.1 2.2-6.5 3.4-11.8 6-26.6 19.8-34.9 34.5-8.4 14.7-12.6 31.7-12.6 50.4 0 18.9 2.9 35.1 8.5 48.4 5.6 13.2 13.5 24.5 23.4 33.5 20.4 18.7 46.9 28.2 78.7 28.2 32.1 0 58.6-9.4 78.7-27.8 21.2-19.5 31.9-45.8 31.9-78.1 0-25.9-8.1-48.5-24-67.2-16-18.9-37.3-28.9-63.2-29.6V198.2c0 9.8-7.9 17.7-17.7 17.7-9.7 0-17.5-7.7-17.7-17.4-.1-.2-.1-.5-.1-.8v-133c0-1.8 1.4-3.2 3.2-3.2h139M153 139.2c12.6 0 22.8 10.2 22.8 22.8 0 12.6-10.2 22.8-22.8 22.8-12.6 0-22.8-10.2-22.8-22.8 0-12.6 10.2-22.8 22.8-22.8m125.7 20.6c7.2 0 13.9 4.5 16.3 11.6.2.4.3.9.4 1.3l.3.6c6.8 19.6 4.6 41-6.1 60.3-10.7 19.1-28.6 33.8-50.4 41.4-10.3 3.6-20.9 5.4-31.3 5.4-11.7 0-23.2-2.2-33.8-6.7-20.3-8.5-35.3-23.9-42.1-43.6-.1-.2-.1-.5-.2-.7-.2-.4-.3-.8-.5-1.2-3.1-9 1.6-18.9 10.7-22 1.9-.6 3.8-1 5.7-1 7.2 0 13.9 4.5 16.3 11.6.2.5.3.9.4 1.4.1.2.2.3.2.5 6.4 18.4 24.8 29.7 45.3 29.7 6.2 0 12.6-1 18.9-3.2 27.1-9.4 42.4-36.6 34.1-60.5-.1-.2-.1-.4-.2-.7-.2-.4-.3-.8-.5-1.2-3.1-9 1.6-18.9 10.7-22 2-.7 3.9-1 5.8-1m61.5-106.4H201c-6.2 0-11.2 5-11.2 11.2v133c0 .5 0 1.1.1 1.6.3 6.5 3 12.6 7.7 17.1 4.8 4.7 11.2 7.4 18 7.4 14.2 0 25.7-11.5 25.7-25.7v-.2V106c19.8 2.3 36.3 11.1 49.1 26.2 14.7 17.2 22.1 38.1 22.1 62.1 0 30-9.9 54.2-29.3 72.2-18.6 17-43.2 25.7-73.2 25.7-29.7 0-54.4-8.8-73.3-26.1-9-8.3-16.3-18.7-21.4-30.8-5.2-12.2-7.9-27.4-7.9-45.2 0-17.3 3.9-32.9 11.6-46.4 8-14.1 22-26.4 31.6-31.3 2.2-1.1 4.3-2.2 6.3-3.3 10.3-4 17.2-14.1 17.2-25.2 0-14.9-12.1-27.1-27.1-27.1-5.1 0-10 1.4-14.2 4.1-9.9 5.1-19.1 11.2-27.4 18.2-10.5 8.9-19.8 19.6-27.6 31.8v.1c-7.4 11.7-13.3 24.9-17.5 39.2-4.3 14.4-6.5 31.5-6.5 50.7 0 19.7 4.1 39.1 12.3 57.6 8.2 18.5 19.5 34.4 33.7 47.4 14.7 13.6 31.5 24 49.9 30.8 18.3 6.8 38.6 10.2 60.4 10.2 22 0 42.4-3.3 60.7-9.9 18.4-6.6 35.1-16.7 49.6-29.9 14.2-13 25.6-28.9 33.7-47.4 8.2-18.5 12.3-37.3 12.3-56.1 0-18.2-1.6-33.2-4.7-44.6v-.1-.1c-4.5-15.6-11.3-29.7-20.2-42-2.8-3.9-5.9-7.7-9.3-11.3h8.4c14.1-.3 25.5-11.8 25.5-26 0-14-11.2-25.5-25.1-25.9-.3-.2-.6-.2-.8-.2zM153 131.2c-17 0-30.8 13.8-30.8 30.8s13.8 30.8 30.8 30.8 30.8-13.8 30.8-30.8c.1-16.9-13.8-30.8-30.8-30.8zm125.7 20.6c-2.8 0-5.6.5-8.3 1.4-6.4 2.2-11.5 6.8-14.5 12.9-2.9 6.1-3.4 12.9-1.1 19.3.1.3.2.6.4 1l.3.9c6.9 19.8-6.2 42.4-29.2 50.4-5.3 1.8-10.8 2.8-16.3 2.8-8.7 0-16.8-2.3-23.6-6.7-6.7-4.3-11.6-10.4-14.1-17.6-.1-.2-.2-.5-.3-.7-.1-.4-.3-.8-.4-1.2-3.5-10.2-13.1-17-23.9-17-2.8 0-5.6.5-8.3 1.4-13.2 4.6-20.2 19-15.6 32.2l.3.9c.1.3.2.7.3 1 7.6 21.8 24.1 39 46.6 48.3 11.6 4.8 24 7.3 36.9 7.3 11.4 0 22.9-1.9 34-5.8 23.7-8.2 43.1-24.2 54.7-45 11.9-21.3 14.2-45 6.7-66.8-.1-.3-.2-.5-.3-.8-.1-.4-.2-.8-.4-1.1-3.5-10.2-13.1-17.1-23.9-17.1z"/>
  <path class="N fill_00e300" d="M1611.6 224.9c-.7-1.3-2.1-2.1-3.5-2.1-.3 0-.7 0-1 .1-1.8.5-3 2.1-3 4l2.6 101-54.3 11.5c-.1-5.6-.2-11.6-.4-18-.6-31.3-1.4-70.2-2.2-94.2-.5-13-1-26.4-1.7-39.6-.7-13.5-1.4-26.9-2.2-39.6-.8-12.9-1.7-25-2.7-36.1-.9-9.7-1.8-18.4-2.7-25.9l48.1-11 77.7 135.3c.7 1.3 2.1 2 3.5 2 .4 0 .8-.1 1.2-.2 1.8-.6 3-2.3 2.8-4.2-1.3-15.3-2.8-31.6-4.4-48.5-1.3-14-2.9-29.6-4.7-47.6-1.7-16.4-3.5-32.8-5.3-48.8l61.1-11.4c1.4 13.1 2.6 26.9 3.6 40.9 1.1 15.5 2.1 31.3 2.9 46.8.8 15.5 1.5 30.9 2 46 .6 15.3 1.1 29.8 1.5 43.1.8 27.4 1.4 63.7 1.7 97.7l-59.6 14.7-61-115.9z" fill="#00e300"/>
  <path class="fill_" d="M1716.8 56.1c1.2 11.8 2.2 24 3.1 36.5 1.1 15.5 2.1 31.2 2.9 46.8.8 15.5 1.5 30.9 2 45.9.6 15.1 1.1 29.6 1.5 43.1.7 26.5 1.3 61.4 1.6 94.4l-53.5 13.2-59.4-112.9c-1.4-2.7-4.2-4.3-7.1-4.3-.7 0-1.3.1-2 .3-3.6.9-6.1 4.2-6 7.9l2.5 97.6-46.3 9.8c-.1-4.2-.2-8.6-.3-13.2-.6-31.3-1.4-70.2-2.2-94.2-.5-13-1-26.4-1.7-39.7-.7-13.5-1.4-26.8-2.2-39.7-.8-12.9-1.7-25.1-2.7-36.2-.7-8.2-1.5-15.7-2.3-22.5l41.7-9.5 76.2 132.7c1.5 2.5 4.1 4 6.9 4 .8 0 1.6-.1 2.4-.4 3.6-1.1 5.9-4.6 5.6-8.3-1.3-15.3-2.8-31.6-4.4-48.6-1.3-14-2.9-29.6-4.7-47.7-1.6-15.1-3.2-30.3-4.9-45.2l53.3-9.8m7.1-9.4l-69 12.9c2 17.5 3.9 35 5.7 52.5 1.8 17.5 3.4 33.4 4.7 47.6 1.6 16.6 3 32.8 4.4 48.5l-79.1-137.9-54.6 12.4c1.1 8.3 2.2 18.1 3.2 29.4 1 11.3 1.9 23.3 2.7 36 .8 12.8 1.5 25.9 2.2 39.6.7 13.6 1.2 26.8 1.7 39.6 1.1 30.2 2 84.1 2.7 117l62.3-13.1-2.7-104.3 62.3 118.4 65.7-16.2c-.2-30.8-.8-69.2-1.7-100.9-.5-13.6-1-28-1.5-43.1-.6-15.1-1.2-30.5-2-46-.8-15.6-1.7-31.2-2.9-46.9-1.2-15.9-2.6-31-4.1-45.5z"/>
  <path class="fill_00e300" d="M1443.7 341.2c-.2-40.2-2.7-81.6-7.4-123-4.8-42.1-13.4-83-25.4-121.5l43.8-44.2 117 30.5-36.4 44.4-52.1-5.5h-.4c-1.2 0-2.3.5-3.1 1.4-.9 1-1.2 2.4-.8 3.7.9 3.1 1.8 6.9 2.6 11.2 1.5 7.6 3.6 19.7 6 35.9.3 2 2 3.4 4 3.4h60.6l-14 45.4H1497c-1.1 0-2.2.5-2.9 1.3-.8.8-1.1 1.9-1.1 3 .4 6.4.9 13 1.3 19.7.4 6.7.8 14.1 1 22 .1 2.1 1.7 3.7 3.7 3.9l79.1 5.5-11 63.1-18.2-2c-6.6-.7-14.2-1.2-22.4-1.7-8.3-.5-16.8-.7-25.2-.7-4.3 0-10 .2-16.9.7-6.7.5-13.6 1-20.5 1.7h-.1c-6.5.5-13.2 1.2-20.1 1.8z" fill="#00e300"/>
  <path class="fill_" d="M1456 56.9l108.7 28.4-31.1 37.9-49.9-5.3h-.8c-2.3 0-4.6 1-6.1 2.8-1.7 2-2.3 4.8-1.6 7.3.8 3 1.7 6.7 2.6 11 1.5 7.5 3.5 19.5 6 35.6.6 3.9 4 6.8 7.9 6.8h55.2l-11.6 37.4H1497c-2.2 0-4.3.9-5.8 2.5s-2.3 3.8-2.1 6c.4 6.4.9 13 1.3 19.7.4 6.6.8 13.9 1 21.8.1 4.1 3.3 7.5 7.4 7.8l74.7 5.2-9.6 55-14.4-1.6h-.1c-6.6-.7-14.2-1.2-22.5-1.7-8.4-.5-17-.7-25.4-.7-4.4 0-10.2.2-17.2.7-6.8.5-13.7 1-20.6 1.7h-.2c-5.1.6-10.3 1.2-15.6 1.7-.3-39-2.8-79-7.4-119.1-4.8-41.5-13.1-81.9-24.8-119.9l40.3-41m-2.5-8.9l-47.1 47.6c12.3 39.1 21 80.1 25.9 123 4.9 42.9 7.4 85.2 7.4 126.9 8.5-.6 16.7-1.4 24.6-2.4 6.7-.6 13.5-1.2 20.4-1.7 6.8-.5 12.4-.7 16.7-.7 8.3 0 16.6.2 24.9.7 8.3.5 15.7 1 22.2 1.7l21.9 2.4 12.5-71.1-83.5-5.8c-.2-8-.6-15.4-1-22.1-.5-6.7-.9-13.3-1.3-19.7h44.1l16.5-53.4h-66c-2.5-16.3-4.5-28.4-6.1-36-.9-4.5-1.8-8.3-2.7-11.5l54.2 5.8 41.8-50.9L1453.5 48z"/>
  <path class="fill_00e300" d="M1334.8 338.5c-.2-41-2.7-83.1-7.4-125.3-4.9-42.9-13.4-84.5-25.4-123.7l43.9-45.1L1463 75.5l-36.5 45.4-52-5.6h-.4c-1.2 0-2.3.5-3 1.4-.9 1-1.2 2.4-.8 3.7.9 3.2 1.8 7 2.6 11.5 1.6 7.7 3.6 20 6 36.5.3 2 2 3.4 4 3.4h60.6l-14.1 46.3h-41.1c-1.1 0-2.2.5-2.9 1.3s-1.1 1.9-1.1 3c.4 6.5.9 13.2 1.3 20.1.4 6.8.8 14.3 1 22.4.1 2.1 1.7 3.7 3.7 3.9l79.1 5.6-11.1 64.3-18.1-2c-6.6-.7-14.2-1.2-22.4-1.7-8.3-.5-16.8-.7-25.2-.7-4.3 0-10.1.2-17 .7-6.7.5-13.6 1.1-20.5 1.7h-.1c-6.6.6-13.3 1.3-20.2 1.8z" fill="#00e300"/>
  <path class="fill_" d="M1347.1 49L1456 77.9l-31.3 38.9-49.9-5.4h-.9c-2.3 0-4.6 1-6.1 2.8-1.7 2-2.3 4.7-1.6 7.3.8 3.1 1.7 6.9 2.6 11.2 1.5 7.7 3.6 19.9 6 36.3.6 3.9 3.9 6.8 7.9 6.8h55.2l-11.6 38.3h-38.2c-2.2 0-4.3.9-5.8 2.5s-2.3 3.8-2.1 6c.4 6.5.9 13.2 1.3 20 .4 6.7.8 14.2 1 22.2.1 4.1 3.3 7.5 7.4 7.8l74.7 5.3-9.7 56.3-14.4-1.6h-.1c-6.6-.7-14.2-1.2-22.5-1.7-8.4-.5-17-.7-25.4-.7-4.4 0-10.2.3-17.2.8-6.8.5-13.7 1.1-20.6 1.7h-.2c-5.1.6-10.3 1.2-15.6 1.7-.3-39.7-2.8-80.5-7.4-121.4-4.8-42.3-13.1-83.4-24.8-122.2l40.4-41.8m-2.5-9l-47.1 48.4c12.3 39.8 21 81.5 25.9 125.2 4.9 43.7 7.4 86.8 7.4 129.2 8.5-.6 16.7-1.5 24.6-2.4 6.7-.6 13.5-1.2 20.4-1.7 6.8-.5 12.4-.7 16.7-.7 8.3 0 16.6.2 24.9.7 8.3.5 15.7 1.1 22.2 1.7l21.9 2.4 12.5-72.4-83.5-5.9c-.2-8.1-.6-15.7-1-22.5-.5-6.8-.9-13.5-1.3-20.1h44.1l16.5-54.3h-66c-2.5-16.6-4.5-28.9-6.1-36.7-.9-4.6-1.8-8.5-2.7-11.7l54.2 5.9 41.8-51.9L1344.6 40z"/>
  <path class="fill_00e300" d="M1197.2 322.5c-2.1-20.1-4.2-40.7-6.4-61.8-2.3-22.8-5.1-45.4-8.1-67.2-3-21.8-6.6-43-10.6-62.9-3.8-18.9-8.4-36.3-13.7-51.9l49-37.4c6.9 4.5 14.6 8.9 23 13 9.2 4.6 18.6 9.3 27.9 14.2 9.3 4.9 18.5 10.3 27.3 16.1 8.7 5.7 16.5 12.2 23.2 19.4 6.6 7.1 12 15.5 16.1 24.8 4 9.3 6.1 20.1 6.1 32 0 12.8-1.9 23.2-5.5 30.8-3.7 7.7-8.6 14.4-14.7 19.9-1.5 1.4-1.8 3.7-.5 5.4l77.6 101.3-67.8 4.2-61.7-82.7c-.8-1-2-1.6-3.2-1.6-.5 0-1 .1-1.5.3-1.7.7-2.7 2.4-2.5 4.2.9 7 1.7 14.3 2.5 21.7.8 7.3 1.4 14.2 1.8 20.3.6 6.1 1 12 1.2 17.6l-59.5 20.3zm32.6-208.3c-1 0-2.1.4-2.8 1.2-1 1-1.4 2.6-1 4 1.5 5.1 3 10.3 4.5 15.6 1.5 5.1 2.9 10.4 4.2 15.7 1.3 5.4 2.7 11.2 4 17.5 1.3 6.2 2.7 13.2 4 20.7.3 1.8 1.8 3.1 3.6 3.3 1.8.2 3.6.2 5.5.2 1.8 0 3.7-.1 5.6-.2 4-.3 7.9-1.3 11.5-3 3.8-1.8 7-4.7 9.4-8.5 2.4-3.9 3.6-9 3.6-15.3 0-9.7-2.9-18-8.5-24.6-5.3-6.1-11.2-11.3-17.6-15.3-7.5-4.6-15.8-8.3-24.9-11-.3-.3-.7-.3-1.1-.3z" fill="#00e300"/>
  <path class="fill_" d="M1207.6 46.2c6.4 4 13.5 8 21 11.7 9.2 4.5 18.5 9.3 27.8 14.2 9.2 4.9 18.3 10.2 27 15.9 8.4 5.5 16 11.8 22.4 18.8 6.3 6.8 11.5 14.7 15.4 23.7 3.8 8.8 5.7 19 5.7 30.5 0 12.2-1.7 22-5.1 29.1-3.5 7.2-8.1 13.5-13.8 18.6-3.1 2.8-3.5 7.5-1 10.8l73 95.4-58.2 3.6-60.4-81c-1.5-2.1-3.9-3.2-6.4-3.2-1 0-2 .2-3 .6-3.4 1.4-5.4 4.8-4.9 8.4.9 7 1.7 14.2 2.5 21.6.8 7.3 1.4 14.1 1.8 20.2v.1c.5 4.9.8 9.7 1.1 14.3l-51.8 17.7c-1.9-18.5-3.9-37.5-5.9-56.8-2.4-22.8-5.1-45.5-8.1-67.3-3-21.9-6.6-43.1-10.7-63.2-3.6-18-8-34.6-12.9-49.6l44.5-34.1m44.2 150.1c1.9 0 4-.1 5.9-.2 4.5-.4 8.8-1.5 12.8-3.4 4.6-2.1 8.3-5.5 11.1-10 2.8-4.5 4.3-10.4 4.3-17.4 0-10.7-3.2-19.9-9.5-27.2-5.5-6.4-11.8-11.8-18.5-16.1 0 0-.1 0-.1-.1-7.7-4.7-16.4-8.6-25.8-11.4-.8-.2-1.5-.3-2.3-.3-2.1 0-4.1.8-5.6 2.3-2.1 2.1-2.9 5.1-2 7.9 1.5 5.1 3 10.3 4.5 15.5 1.4 5.1 2.8 10.3 4.1 15.6 1.3 5.3 2.7 11.2 4 17.3 1.3 6.2 2.7 13.1 4 20.6.6 3.6 3.6 6.3 7.2 6.6 2 .2 3.9.3 5.9.3m-44.5-159.9l-53.5 40.9c5.6 16.1 10.4 34.2 14.5 54.1 4 19.9 7.6 40.8 10.6 62.7 3 21.8 5.7 44.2 8.1 67.1 2.4 22.9 4.7 45.2 6.9 66.8l67-22.9c-.2-6.4-.7-13.3-1.3-20.7-.5-6.2-1.1-13-1.9-20.4-.8-7.5-1.6-14.7-2.5-21.8l63 84.4 77.5-4.8-82.2-107.3c6.5-5.9 11.7-12.9 15.7-21.1 3.9-8.2 5.9-19.1 5.9-32.5 0-12.6-2.1-23.8-6.4-33.6-4.3-9.8-9.9-18.5-16.8-25.9-7-7.5-14.9-14.1-23.9-20-9-5.9-18.2-11.3-27.6-16.3-9.4-5-18.7-9.7-28-14.3-9.4-4.7-17.7-9.4-25.1-14.4zm44.5 151.9c-1.7 0-3.5-.1-5.1-.2-1.3-7.6-2.7-14.6-4-20.9-1.3-6.3-2.7-12.2-4-17.6-1.3-5.4-2.8-10.7-4.2-15.8-1.5-5.1-3-10.3-4.5-15.6 8.8 2.6 16.7 6.2 23.9 10.6 6.1 3.8 11.6 8.7 16.7 14.5 5.1 5.9 7.6 13.2 7.6 22 0 5.6-1 10-3 13.2-2 3.2-4.6 5.6-7.7 7-3.1 1.5-6.5 2.3-10.1 2.6-2.1.2-3.9.2-5.6.2z"/>
  <path class="fill_00e300" d="M1197.2 322.5c-2.1-20.1-4.2-40.7-6.4-61.8-2.3-22.8-5.1-45.4-8.1-67.2-3-21.8-6.6-43-10.6-62.9-3.8-18.9-8.4-36.3-13.7-51.9l49-37.4c6.9 4.5 14.6 8.9 23 13 9.2 4.6 18.6 9.3 27.9 14.2 9.3 4.9 18.5 10.3 27.3 16.1 8.7 5.7 16.5 12.2 23.2 19.4 6.6 7.1 12 15.5 16.1 24.8 4 9.3 6.1 20.1 6.1 32 0 12.8-1.9 23.2-5.5 30.8-3.7 7.7-8.6 14.4-14.7 19.9-1.5 1.4-1.8 3.7-.5 5.4l77.6 101.3-67.8 4.2-61.7-82.7c-.8-1-2-1.6-3.2-1.6-.5 0-1 .1-1.5.3-1.7.7-2.7 2.4-2.5 4.2.9 7 1.7 14.3 2.5 21.7.8 7.3 1.4 14.2 1.8 20.3.6 6.1 1 12 1.2 17.6l-59.5 20.3zm32.6-208.3c-1 0-2.1.4-2.8 1.2-1 1-1.4 2.6-1 4 1.5 5.1 3 10.3 4.5 15.6 1.4 5.1 2.9 10.4 4.2 15.7 1.3 5.4 2.7 11.2 4 17.5 1.3 6.2 2.7 13.2 4 20.7.3 1.8 1.8 3.1 3.6 3.3 1.8.2 3.6.2 5.5.2 1.8 0 3.7-.1 5.6-.2 4-.3 7.9-1.3 11.5-3 3.8-1.8 7-4.7 9.4-8.5 2.4-3.9 3.6-9 3.6-15.3 0-9.7-2.9-18-8.5-24.6-5.3-6.1-11.2-11.3-17.6-15.3-7.5-4.6-15.8-8.3-24.9-11-.3-.3-.7-.3-1.1-.3z" fill="#00e300"/>
  <path class="fill_" d="M1207.6 46.2c6.4 4 13.5 8 21 11.7 9.2 4.5 18.5 9.3 27.8 14.2 9.2 4.9 18.3 10.2 27 15.9 8.4 5.5 16 11.8 22.4 18.8 6.3 6.8 11.5 14.7 15.4 23.7 3.8 8.8 5.7 19 5.7 30.5 0 12.2-1.7 22-5.1 29.1-3.5 7.2-8.1 13.5-13.8 18.6-3.1 2.8-3.5 7.5-1 10.8l73 95.4-58.2 3.6-60.4-81c-1.5-2.1-3.9-3.2-6.4-3.2-1 0-2 .2-3 .6-3.4 1.4-5.4 4.8-4.9 8.4.9 7 1.7 14.2 2.5 21.6.8 7.3 1.4 14.1 1.8 20.2v.1c.5 4.9.8 9.7 1.1 14.3l-51.8 17.7c-1.9-18.5-3.9-37.5-5.9-56.8-2.4-22.8-5.1-45.5-8.1-67.3-3-21.9-6.6-43.1-10.7-63.2-3.6-18-8-34.6-12.9-49.6l44.5-34.1m44.2 150.1c1.9 0 4-.1 5.9-.2 4.5-.4 8.8-1.5 12.8-3.4 4.6-2.1 8.3-5.5 11.1-10 2.8-4.5 4.3-10.4 4.3-17.4 0-10.7-3.2-19.9-9.5-27.2-5.5-6.4-11.8-11.8-18.5-16.1 0 0-.1 0-.1-.1-7.7-4.7-16.4-8.6-25.8-11.4-.8-.2-1.5-.3-2.3-.3-2.1 0-4.1.8-5.6 2.3-2.1 2.1-2.9 5.1-2 7.9 1.5 5.1 3 10.3 4.5 15.5 1.4 5.1 2.8 10.3 4.1 15.6 1.3 5.3 2.7 11.2 4 17.3 1.3 6.2 2.7 13.1 4 20.6.6 3.6 3.6 6.3 7.2 6.6 2 .2 3.9.3 5.9.3m-44.5-159.9l-53.5 40.9c5.6 16.1 10.4 34.2 14.5 54.1 4 19.9 7.6 40.8 10.6 62.7 3 21.8 5.7 44.2 8.1 67.1 2.4 22.9 4.7 45.2 6.9 66.8l67-22.9c-.2-6.4-.7-13.3-1.3-20.7-.5-6.2-1.1-13-1.9-20.4-.8-7.5-1.6-14.7-2.5-21.8l63 84.4 77.5-4.8-82.2-107.3c6.5-5.9 11.7-12.9 15.7-21.1 3.9-8.2 5.9-19.1 5.9-32.5 0-12.6-2.1-23.8-6.4-33.6-4.3-9.8-9.9-18.5-16.8-25.9-7-7.5-14.9-14.1-23.9-20-9-5.9-18.2-11.3-27.6-16.3-9.4-5-18.7-9.7-28-14.3-9.4-4.7-17.7-9.4-25.1-14.4zm44.5 151.9c-1.7 0-3.5-.1-5.1-.2-1.3-7.6-2.7-14.6-4-20.9-1.3-6.3-2.7-12.2-4-17.6-1.3-5.4-2.8-10.7-4.2-15.8-1.5-5.1-3-10.3-4.5-15.6 8.8 2.6 16.7 6.2 23.9 10.6 6.1 3.8 11.6 8.7 16.7 14.5 5.1 5.9 7.6 13.2 7.6 22 0 5.6-1 10-3 13.2-2 3.2-4.6 5.6-7.7 7-3.1 1.5-6.5 2.3-10.1 2.6-2.1.2-3.9.2-5.6.2z"/>
  <path class="fill_00e300" d="M1147.7 328.6c0-2.2-1.8-4-4-4-4.8 0-11.4-.6-19.7-1.8-8.2-1.2-17.1-3.4-26.5-6.8-9.4-3.3-19-8.2-28.7-14.4-9.5-6.1-18.3-14.4-25.9-24.6-7.7-10.2-14.2-23-19.2-37.9-5-14.9-7.5-33.1-7.5-54.1 0-21.3 3.3-40.6 9.7-57.6 6.4-16.9 15.1-31.4 25.7-42.9s22.7-20.1 36-25.7c10.8-4.5 21.9-6.8 33-6.8 2.6 0 5.2.1 7.7.4 13.7 1.3 27.3 6.5 40.4 15.5 12.3 8.4 23.6 20.8 33.5 36.8l-60.4 34.4c-2.3-4.5-5.1-8.7-8.2-12.6-3.4-4.5-7.8-8.5-12.9-12-5.5-3.7-11.9-5.6-19.1-5.6-7.6 0-13.6 2.6-17.9 7.7-3.8 4.6-6.6 10-8.3 16-1.7 5.8-2.7 11.8-2.9 17.8-.2 5.7-.3 9.9-.3 12.7 0 30.5 5.9 55.4 17.6 73.9 11.9 18.9 29.9 30.4 53.4 34.1.2 0 .4.1.6.1.9 0 1.9-.3 2.6-1 .9-.8 1.4-1.9 1.4-3v-48.9c0-2.2-1.8-4-4-4H1116l14-31.1 77.8-36.2v178.9l-60 29.7v-27z" fill="#00e300"/>
  <path class="fill_" d="M1120.5 56.1c2.4 0 4.9.1 7.3.3 13 1.2 25.9 6.2 38.5 14.8 10.9 7.5 21 18.3 30.1 32.1l-53.2 30.3c-2-3.4-4.2-6.6-6.6-9.6-3.7-4.8-8.3-9.1-13.8-12.9-6.1-4.2-13.3-6.3-21.3-6.3-11.1 0-17.5 5-21 9.2-4.1 5-7.2 10.9-9.1 17.4-1.8 6.1-2.8 12.4-3.1 18.7-.2 5.7-.4 10.1-.4 12.9 0 31.3 6.1 56.9 18.2 76 12.6 19.9 31.5 32 56.2 35.9.4.1.8.1 1.3.1 1.9 0 3.7-.7 5.2-1.9 1.8-1.5 2.8-3.7 2.8-6.1v-48.9c0-4.4-3.6-8-8-8H1122l10.9-24.1 70.8-32.9v170.1l-52 25.7v-20.5c0-4.4-3.6-8-8-8-4.6 0-11.1-.6-19.1-1.7-7.9-1.1-16.6-3.3-25.8-6.6-9.1-3.2-18.5-7.9-27.9-14-9.1-5.9-17.5-13.9-24.9-23.7-7.5-9.9-13.7-22.2-18.5-36.7-4.9-14.5-7.3-32.3-7.3-52.9 0-20.8 3.2-39.7 9.4-56.2 6.2-16.4 14.6-30.4 24.9-41.6 10.2-11.1 21.8-19.4 34.6-24.7 10.3-4 20.8-6.2 31.4-6.2m0-8c-11.7 0-23.2 2.4-34.5 7.1-14 5.8-26.5 14.7-37.4 26.7-11 12-19.8 26.7-26.5 44.2-6.6 17.5-10 37.2-10 59 0 21.5 2.6 40 7.7 55.4 5.2 15.4 11.7 28.4 19.8 39 8 10.6 17 19.1 27 25.6 10 6.4 19.8 11.4 29.5 14.8 9.7 3.4 18.8 5.8 27.3 7 8.5 1.2 15.2 1.8 20.3 1.8V362l68-33.6V140.7l-84.9 39.5-17.2 38.1h34v48.9c-22.4-3.6-39.3-14.4-50.7-32.3-11.3-17.9-17-41.9-17-71.8 0-2.7.1-6.9.3-12.6.2-5.7 1.1-11.3 2.7-16.8s4.1-10.4 7.6-14.6c3.4-4.2 8.4-6.3 14.8-6.3s12 1.6 16.8 4.9c4.8 3.3 8.8 7 12 11.2 3.9 4.8 7.1 10 9.6 15.7l67.7-38.6c-10.8-18.2-23-32.1-36.8-41.5-13.7-9.4-27.8-14.8-42.3-16.1-2.4-.2-5.1-.3-7.8-.3z"/>
  <g>
    <path class="fill_00e300" d="M1033.8 320.9c-12.9 0-25.7-1.5-38.1-4.3-13.5-3.1-26.5-8.1-38.5-14.8-11.9-6.6-22.5-15.7-31.5-26.9-9-11.3-16.2-25.2-21.6-41.2-5.3-16.1-8-35.3-8-57 0-15.1 2.2-30.1 6.4-44.6s10.3-27.6 18-38.9c7.6-11.2 17.1-20.6 28-27.7 10.8-7.1 23.1-11.1 36.6-11.9 1.5-.1 3.1-.1 4.6-.1 12.3 0 25.8 3 40.1 8.9 15.5 6.4 32.2 17.5 49.5 33L1044 160c-4.4-4.2-8.9-8.1-13.5-11.5-5.1-3.9-10.8-7.5-16.9-10.7-6.5-3.4-12.7-5.1-18.5-5.1-9.9 0-18.2 3.7-24.7 11-6.4 7.2-9.6 18-9.6 32.1 0 16.3 4.1 30.5 12.2 42.3 8 11.7 18.7 20.8 31.8 27.3 13 6.4 28 10.2 44.6 11.4 3.7.3 7.4.4 11.1.4 10.9 0 22.1-1.2 33.3-3.4l-17.4 62.9c-12.7 2.6-25.8 4-39.1 4.3-1.1-.1-2.3-.1-3.5-.1z" fill="#00e300"/>
    <path class="fill_" d="M989.7 57.4c11.8 0 24.7 2.9 38.5 8.6 14.4 5.9 29.9 16.1 46 30.2l-31.3 57.3c-3.3-3-6.6-5.7-10-8.3-5.3-4.1-11.2-7.8-17.5-11.1-7.1-3.7-13.9-5.5-20.3-5.5-11.1 0-20.4 4.2-27.7 12.4-7 7.9-10.6 19.6-10.6 34.8 0 17.1 4.3 32.1 12.8 44.5 8.4 12.2 19.6 21.9 33.4 28.6 13.4 6.6 28.9 10.6 46 11.8 3.8.3 7.6.4 11.4.4 9.1 0 18.4-.8 27.8-2.4l-15.1 54.4c-11.7 2.2-23.8 3.5-36 3.7h-3.4c-12.6 0-25.1-1.4-37.2-4.2-13.1-3-25.7-7.9-37.5-14.4-11.5-6.3-21.7-15.1-30.3-25.9-8.7-10.9-15.7-24.4-20.9-40-5.2-15.7-7.8-34.4-7.8-55.7 0-14.7 2.1-29.3 6.2-43.5 4.1-14.1 10-26.8 17.5-37.8 7.3-10.8 16.4-19.7 26.9-26.6 10.2-6.7 21.9-10.5 34.7-11.2 1.5 0 3-.1 4.4-.1m0-8c-1.6 0-3.3 0-4.9.1-14.3.9-27.1 5.1-38.6 12.5-11.4 7.5-21.2 17.1-29.1 28.8-8 11.7-14.1 25.1-18.5 40-4.4 15-6.6 30.2-6.6 45.7 0 22.3 2.8 41.7 8.3 58.3 5.5 16.6 12.9 30.7 22.2 42.4 9.3 11.7 20.2 21 32.7 27.9 12.5 6.9 25.6 11.9 39.6 15.2 12.8 3 25.8 4.4 39 4.4h3.6c14.5-.3 28.6-1.9 42.3-4.8l19.9-71.7c-13.3 3.2-26.3 4.8-39 4.8-3.6 0-7.3-.1-10.9-.4-16.2-1.2-30.5-4.8-43.1-11-12.6-6.2-22.7-14.8-30.3-25.9-7.6-11.1-11.5-24.5-11.5-40 0-13.2 2.9-23 8.6-29.5 5.7-6.4 13-9.7 21.7-9.7 5.2 0 10.7 1.5 16.7 4.6 5.9 3.1 11.4 6.5 16.3 10.3 5.8 4.4 11.5 9.4 16.8 15l39.4-72.1c-18.6-17-36.3-28.9-53-35.8-14.8-6-28.7-9.1-41.6-9.1zm109.8 199z"/>
  </g>
  <g>
    <path class="fill_00e300" d="M1033.8 320.9c-12.9 0-25.7-1.5-38.1-4.3-13.5-3.1-26.5-8.1-38.5-14.8-11.9-6.6-22.5-15.7-31.5-26.9-9-11.3-16.2-25.2-21.6-41.2-5.3-16.1-8-35.3-8-57 0-15.1 2.2-30.1 6.4-44.6s10.3-27.6 18-38.9c7.6-11.2 17.1-20.6 28-27.7 10.8-7.1 23.1-11.1 36.6-11.9 1.5-.1 3.1-.1 4.6-.1 12.3 0 25.8 3 40.1 8.9 15.5 6.4 32.2 17.5 49.5 33L1044 160c-4.4-4.2-8.9-8.1-13.5-11.5-5.1-3.9-10.8-7.5-16.9-10.7-6.5-3.4-12.7-5.1-18.5-5.1-9.9 0-18.2 3.7-24.7 11-6.4 7.2-9.6 18-9.6 32.1 0 16.3 4.1 30.5 12.2 42.3 8 11.7 18.7 20.8 31.8 27.3 13 6.4 28 10.2 44.6 11.4 3.7.3 7.4.4 11.1.4 10.9 0 22.1-1.2 33.3-3.4l-17.4 62.9c-12.7 2.6-25.8 4-39.1 4.3-1.1-.1-2.3-.1-3.5-.1z" fill="#00e300"/>
    <path class="fill_" d="M989.7 57.4c11.8 0 24.7 2.9 38.5 8.6 14.4 5.9 29.9 16.1 46 30.2l-31.3 57.3c-3.3-3-6.6-5.7-10-8.3-5.3-4.1-11.2-7.8-17.5-11.1-7.1-3.7-13.9-5.5-20.3-5.5-11.1 0-20.4 4.2-27.7 12.4-7 7.9-10.6 19.6-10.6 34.8 0 17.1 4.3 32.1 12.8 44.5 8.4 12.2 19.6 21.9 33.4 28.6 13.4 6.6 28.9 10.6 46 11.8 3.8.3 7.6.4 11.4.4 9.1 0 18.4-.8 27.8-2.4l-15.1 54.4c-11.7 2.2-23.8 3.5-36 3.7h-3.4c-12.6 0-25.1-1.4-37.2-4.2-13.1-3-25.7-7.9-37.5-14.4-11.5-6.3-21.7-15.1-30.3-25.9-8.7-10.9-15.7-24.4-20.9-40-5.2-15.7-7.8-34.4-7.8-55.7 0-14.7 2.1-29.3 6.2-43.5 4.1-14.1 10-26.8 17.5-37.8 7.3-10.8 16.4-19.7 26.9-26.6 10.2-6.7 21.9-10.5 34.7-11.2 1.5 0 3-.1 4.4-.1m0-8c-1.6 0-3.3 0-4.9.1-14.3.9-27.1 5.1-38.6 12.5-11.4 7.5-21.2 17.1-29.1 28.8-8 11.7-14.1 25.1-18.5 40-4.4 15-6.6 30.2-6.6 45.7 0 22.3 2.8 41.7 8.3 58.3 5.5 16.6 12.9 30.7 22.2 42.4 9.3 11.7 20.2 21 32.7 27.9 12.5 6.9 25.6 11.9 39.6 15.2 12.8 3 25.8 4.4 39 4.4h3.6c14.5-.3 28.6-1.9 42.3-4.8l19.9-71.7c-13.3 3.2-26.3 4.8-39 4.8-3.6 0-7.3-.1-10.9-.4-16.2-1.2-30.5-4.8-43.1-11-12.6-6.2-22.7-14.8-30.3-25.9-7.6-11.1-11.5-24.5-11.5-40 0-13.2 2.9-23 8.6-29.5 5.7-6.4 13-9.7 21.7-9.7 5.2 0 10.7 1.5 16.7 4.6 5.9 3.1 11.4 6.5 16.3 10.3 5.8 4.4 11.5 9.4 16.8 15l39.4-72.1c-18.6-17-36.3-28.9-53-35.8-14.8-6-28.7-9.1-41.6-9.1z"/>
  </g>
  <g>
    <path class="fill_00e300" d="M880.6 351.1c-1.3-19-2.6-47-3.7-71.9-.6-13.3-1.1-25.9-1.6-35.8-.7-13-1.3-26.8-1.8-41-.6-14.3-1-29.4-1.3-44.7-.3-15.3-.4-31-.3-46.5.1-14.7.4-29.2.8-43.2l56-16c-.6 29.3-.6 59.5-.2 89.9.2 13.2.5 27.5.8 43.9.3 15.4.8 31.4 1.5 47.4s1.5 32.4 2.5 48.6c1.1 18.4 2.3 34.1 3.6 46.7l-56.3 22.6z" fill="#00e300"/>
    <path class="fill_" d="M924.4 57.3c-.5 27.6-.5 56-.1 84.6.2 13.2.5 27.6.8 43.9.3 15.5.8 31.5 1.5 47.5.7 16.1 1.5 32.5 2.5 48.7 1.1 17 2.2 31.7 3.3 43.8l-48.2 19.5c-1.2-18.6-2.3-43.7-3.3-66.3-.6-13.3-1.1-25.9-1.7-35.9-.7-12.9-1.3-26.7-1.8-40.9-.6-14.3-1-29.3-1.3-44.6-.3-15.3-.4-30.9-.3-46.4.1-13.7.3-27.1.7-40.2l47.9-13.7m8.2-10.6l-64 18.3c-.5 15-.7 30.4-.8 46.2-.1 15.8 0 31.3.3 46.7.3 15.3.8 30.2 1.3 44.8.6 14.5 1.2 28.2 1.9 41 1.6 30.3 3.5 85.1 5.7 113.3l64-25.8c-1.6-15.3-2.9-33.2-3.9-49.5-1-16.3-1.9-32.4-2.5-48.5-.7-16.1-1.2-31.9-1.5-47.4-.3-15.5-.6-30.1-.8-43.8-.5-32.7-.4-64.4.3-95.3z"/>
  </g>
  <g>
    <path class="fill_00e300" d="M880.6 351.1c-1.3-19-2.6-47-3.7-71.9-.6-13.3-1.1-25.9-1.6-35.8-.7-13-1.3-26.8-1.8-41-.6-14.3-1-29.4-1.3-44.7-.3-15.3-.4-31-.3-46.5.1-14.7.4-29.2.8-43.2l56-16c-.6 29.3-.6 59.5-.2 89.9.2 13.2.5 27.5.8 43.9.3 15.4.8 31.4 1.5 47.4s1.5 32.4 2.5 48.6c1.1 18.4 2.3 34.1 3.6 46.7l-56.3 22.6z" fill="#00e300"/>
    <path class="fill_" d="M924.4 57.3c-.5 27.6-.5 56-.1 84.6.2 13.2.5 27.6.8 43.9.3 15.5.8 31.5 1.5 47.5.7 16.1 1.5 32.5 2.5 48.7 1.1 17 2.2 31.7 3.3 43.8l-48.2 19.5c-1.2-18.6-2.3-43.7-3.3-66.3-.6-13.3-1.1-25.9-1.7-35.9-.7-12.9-1.3-26.7-1.8-40.9-.6-14.3-1-29.3-1.3-44.6-.3-15.3-.4-30.9-.3-46.4.1-13.7.3-27.1.7-40.2l47.9-13.7m8.2-10.6zm0 0l-64 18.3c-.5 15-.7 30.4-.8 46.2-.1 15.8 0 31.3.3 46.7.3 15.3.8 30.2 1.3 44.8.6 14.5 1.2 28.2 1.9 41 1.6 30.3 3.5 85.1 5.7 113.3l64-25.8c-1.6-15.3-2.9-33.2-3.9-49.5-1-16.3-1.9-32.4-2.5-48.5-.7-16.1-1.2-31.9-1.5-47.4-.3-15.5-.6-30.1-.8-43.8-.5-32.7-.4-64.4.3-95.3z"/>
  </g>
  <g>
    <path class="fill_00e300" d="M829.4 328.6c0-2.2-1.8-4-4-4-4.8 0-11.4-.6-19.7-1.8-8.2-1.2-17.1-3.4-26.5-6.8-9.4-3.3-19-8.2-28.7-14.4-9.5-6.1-18.3-14.4-25.9-24.6-7.7-10.2-14.2-23-19.2-37.9-5-14.9-7.5-33.1-7.5-54.1 0-21.3 3.3-40.6 9.7-57.6 6.4-16.9 15.1-31.4 25.7-42.9s22.7-20.1 36-25.7c10.8-4.5 21.9-6.8 33-6.8 2.6 0 5.2.1 7.7.4 13.7 1.3 27.3 6.5 40.4 15.5 12.3 8.4 23.5 20.8 33.5 36.8l-60.4 34.4c-2.3-4.5-5.1-8.7-8.2-12.6-3.4-4.5-7.8-8.5-12.9-12-5.5-3.7-11.9-5.6-19.1-5.6-7.6 0-13.6 2.6-17.9 7.7-3.8 4.6-6.6 10-8.3 16-1.7 5.8-2.7 11.8-2.9 17.8-.2 5.7-.3 9.9-.3 12.7 0 30.5 5.9 55.4 17.6 73.9 11.9 18.9 29.9 30.4 53.4 34.1.2 0 .4.1.6.1.9 0 1.9-.3 2.6-1 .9-.8 1.4-1.9 1.4-3v-48.9c0-2.2-1.8-4-4-4h-27.8l14-31.1 77.8-36.2v178.9l-60 29.7v-27z" fill="#00e300"/>
    <path class="fill_" d="M802.2 56.1c2.4 0 4.9.1 7.3.3 13 1.2 25.9 6.2 38.5 14.8 10.9 7.5 21 18.3 30.1 32.1L825 133.6c-2-3.4-4.2-6.6-6.6-9.6-3.7-4.8-8.3-9.1-13.8-12.9-6.1-4.2-13.3-6.3-21.3-6.3-11.1 0-17.5 5-21 9.2-4.1 5-7.2 10.9-9.1 17.4-1.8 6.1-2.8 12.4-3.1 18.7-.2 5.7-.4 10.1-.4 12.9 0 31.3 6.1 56.9 18.2 76 12.6 19.9 31.5 32 56.2 35.9.4.1.8.1 1.3.1 1.9 0 3.7-.7 5.2-1.9 1.8-1.5 2.8-3.7 2.8-6.1v-48.9c0-4.4-3.6-8-8-8h-21.6l10.9-24.1 70.8-32.9v170.1l-52 25.7v-20.5c0-2.1-.8-4.2-2.3-5.7-1.5-1.5-3.5-2.3-5.7-2.3-4.6 0-11.1-.6-19.1-1.7-7.9-1.1-16.6-3.3-25.8-6.6-9.1-3.2-18.5-7.9-27.9-14-9.1-5.9-17.5-13.9-24.9-23.7-7.5-9.9-13.7-22.2-18.5-36.7-4.9-14.5-7.3-32.3-7.3-52.9 0-20.8 3.2-39.7 9.4-56.2 6.2-16.4 14.6-30.4 24.9-41.6 10.2-11.1 21.8-19.4 34.6-24.7 10.2-4 20.8-6.2 31.3-6.2m0-8c-11.7 0-23.2 2.4-34.5 7.1-14 5.8-26.5 14.7-37.4 26.7-11 12-19.8 26.7-26.5 44.2-6.6 17.5-10 37.2-10 59 0 21.5 2.6 40 7.7 55.4 5.2 15.4 11.7 28.4 19.8 39 8 10.6 17 19.1 27 25.6 10 6.4 19.8 11.4 29.5 14.8 9.7 3.4 18.8 5.8 27.3 7 8.5 1.2 15.2 1.8 20.3 1.8V362l68-33.6V140.7l-84.9 39.5-17.2 38.1h34v48.9c-22.4-3.6-39.3-14.4-50.7-32.3-11.3-17.9-17-41.9-17-71.8 0-2.7.1-6.9.3-12.6.2-5.7 1.1-11.3 2.7-16.8s4.1-10.4 7.6-14.6c3.4-4.2 8.4-6.3 14.8-6.3s12 1.6 16.8 4.9c4.8 3.3 8.8 7 12 11.2 3.9 4.8 7.1 10 9.6 15.7l67.7-38.6c-10.8-18.2-23-32.1-36.8-41.5-13.7-9.4-27.8-14.8-42.3-16.1-2.4-.2-5.1-.3-7.8-.3z"/>
  </g>
  <g>
    <path class="fill_00e300" d="M701.2 342.3c-.9-4.3-2-9.1-3.2-14.4-1.4-6-3-13.2-4.7-21.3-1.8-8.4-3.8-17.7-6.1-27.9-.4-1.9-2.1-3.1-3.9-3.1-.2 0-.5 0-.7.1l-41.8 7.5c-1.6.3-2.8 1.5-3.2 3-1.8 7.6-3.5 14.5-5.2 20.5-1.4 5-2.6 9.1-3.6 12.1L579 339c4.4-16.4 8.8-38.3 12.7-57.8 2.9-14.3 5.6-27.8 8-37.6 6.3-25.7 11.5-49.9 15.7-71.9 4.2-22 7.3-41.7 9.3-58.5 1.9-15.8 2.9-35.2 3-45.5l42.6-16.4c11.3 28 22.3 57.5 32.8 87.6 4.7 13.3 9.5 28 14.4 43.4 4.9 15.6 9.8 31.7 14.4 47.8 4.7 16.2 9.1 33.1 13.3 50.2 3.8 15.7 7.2 31.7 10.2 47.4l-54.2 14.6zm-40.7-148.9c-1.8.1-3.3 1.4-3.7 3.2-.6 3.4-1.4 7.1-2.3 11.3l-2.4 12.4c-.9 4.6-1.9 9.6-3 14.9-.3 1.3.1 2.7 1.1 3.7.8.8 1.8 1.2 2.8 1.2.3 0 .6 0 .8-.1l18.5-4c1.1-.2 2-.9 2.6-1.9s.7-2.1.4-3.2c-1.8-6.2-3.6-12.3-5.4-17.9-1.8-5.7-3.6-11.4-5.4-17-.5-1.7-2.1-2.8-3.8-2.8 0 .1-.1.1-.2.2z" fill="#00e300"/>
    <path class="fill_" d="M668.1 56.4c10.8 26.9 21.3 55 31.3 83.8 4.7 13.3 9.5 27.9 14.4 43.3 4.9 15.5 9.8 31.6 14.4 47.7 4.6 16.2 9.1 33 13.2 50 3.5 14.5 6.7 29.1 9.5 43.6l-46.7 12.6c-.7-3.2-1.5-6.6-2.3-10.3-1.4-6-2.9-13.1-4.7-21.2-1.7-8.1-3.7-17.2-6.1-27.9-.8-3.7-4.1-6.3-7.8-6.3-.5 0-.9 0-1.4.1l-41.8 7.5c-3.1.6-5.6 2.9-6.4 6-1.8 7.6-3.5 14.4-5.1 20.4-1.1 4-2.1 7.4-2.9 10.2l-40.9 16.6c3.8-15.3 7.4-33.6 10.8-50.4 2.9-14.3 5.6-27.7 7.9-37.4 6.3-25.8 11.6-50 15.7-72.1 4.2-22.1 7.3-41.9 9.3-58.8 1.8-14.9 2.7-32.3 3-43.2l36.6-14.2M653 244c.6 0 1.1-.1 1.7-.2l18.5-4c2.2-.5 4.1-1.8 5.2-3.7 1.1-1.9 1.4-4.2.8-6.3-1.8-6.3-3.7-12.3-5.4-18-1.8-5.9-3.7-11.6-5.4-17-1.1-3.3-4.2-5.5-7.6-5.5h-.5c-3.6.2-6.7 2.9-7.4 6.5-.6 3.4-1.4 7-2.3 11.2v.2l-.7 3.6c-.5 2.6-1.1 5.5-1.7 8.7-.9 4.6-1.9 9.6-3 14.8-.6 2.7.3 5.4 2.2 7.3 1.5 1.6 3.5 2.4 5.6 2.4m19.6-197.9l-48.8 18.8c0 9.7-1 30.9-3 47.8s-5.1 36.3-9.3 58.3c-4.2 22-9.4 45.9-15.7 71.7-6.3 25.8-14.6 76.2-22.9 103.2l59.3-24c1.1-3.2 2.5-7.9 4.2-14.1s3.4-13 5.2-20.7l41.8-7.5c2.2 10.3 4.3 19.6 6.1 27.9 1.8 8.4 3.4 15.5 4.7 21.3 1.6 7 2.9 13.2 4 18.5l62-16.7c-3.1-17-6.8-34.1-10.9-51.2-4.2-17.2-8.6-33.9-13.3-50.4-4.7-16.4-9.5-32.4-14.5-47.9-4.9-15.5-9.8-30-14.5-43.5-11.1-31.7-22.5-62.2-34.4-91.5zM653 236c1.1-5.3 2.1-10.3 3-15 .9-4.7 1.7-8.8 2.4-12.3.9-4.1 1.7-7.9 2.4-11.4 1.8 5.6 3.6 11.2 5.4 16.9 1.8 5.7 3.6 11.7 5.4 17.8l-18.6 4z"/>
  </g>
  <g>
    <path class="fill_00e300" d="M554.1 332.9c.8-9.2 1.4-17.9 1.9-25.8.6-9.2.8-18.1.8-26.6s-.3-17.4-.8-26.4c-.6-8.9-1.3-18.7-2.2-29.3-.2-2-1.8-3.6-3.8-3.7h-.2c-1.9 0-3.6 1.4-3.9 3.3l-11.6 61.2-38.4 9.1-23.5-65.7c-.6-1.6-2.1-2.7-3.8-2.7-.3 0-.6 0-.8.1-2 .4-3.3 2.2-3.2 4.2 1.1 14.8 1.7 27.6 1.7 38 0 10.4-.2 19-.7 25.7-.4 6.7-.8 12.5-1.4 17.4L412 326.4c.5-7.4 1.2-16 2-25 1.7-21 3.7-44.7 3.7-61.8 0-22.2-.6-47.4-1.9-74.9-.6-14.3-3-62.3-7.5-94.8l41-13.9 60.3 160c.6 1.6 2.1 2.6 3.7 2.6h.4c1.8-.2 3.3-1.6 3.5-3.4 2.2-14.7 4.5-31 6.7-48.5 1.8-15 3.6-32.6 5.2-52.3 1.6-18.4 2.9-38.3 4-59.2l58.9 4.3c5.7 26.3 10.4 52 14 76.4 3.7 25.3 6.4 50.4 8.1 74.7 1.7 24.3 2.5 48.8 2.5 72.9 0 22.4-.4 36-1.2 59.2l-61.3-9.8z" fill="#00e300"/>
    <path class="fill_" d="M537.2 59.5l51.9 3.8c5.4 25.2 9.9 49.8 13.3 73.2 3.7 25.2 6.4 50.2 8 74.4 1.7 24.2 2.5 48.6 2.5 72.7 0 20.8-.3 34.1-1 54.6l-53.5-8.5c.6-7.9 1.2-15.3 1.6-22.2.6-9.3.9-18.3.9-26.9 0-8.6-.3-17.5-.9-26.7-.6-8.9-1.3-18.8-2.2-29.4-.3-4-3.6-7.1-7.6-7.3h-.4c-3.8 0-7.1 2.7-7.9 6.5l-11.2 58.7-32.4 7.7-22.2-62.3c-1.2-3.2-4.2-5.3-7.5-5.3-.5 0-1.1.1-1.7.2-3.9.8-6.6 4.4-6.3 8.4 1.1 14.7 1.7 27.4 1.7 37.7 0 10.3-.2 18.9-.7 25.4v.1c-.3 5.4-.7 10.2-1.1 14.5l-44 12.2c.4-6 1-12.5 1.6-19.3 1.7-21 3.7-44.9 3.7-62.1 0-22.2-.6-47.5-1.9-75.1-.6-13.9-2.9-59.4-7.1-91.9L447.1 61 506 217.3c1.2 3.1 4.2 5.2 7.5 5.2h.8c3.6-.4 6.5-3.2 7.1-6.7 2.3-14.7 4.5-31.1 6.8-48.6v-.1c1.8-15 3.6-32.6 5.2-52.4 1.4-17.3 2.7-35.8 3.8-55.2m-7.6-8.6c-1.1 22.3-2.5 43.3-4.2 63.1-1.7 19.8-3.4 37.2-5.2 52.1-2.2 17.6-4.5 33.7-6.7 48.4L451.8 50.9 404 67.1c4 27.6 6.7 70.1 7.9 97.7 1.2 27.6 1.9 52.5 1.9 74.8 0 26.1-4.7 68.2-6 92.2l60.2-17c.7-5.6 1.2-12.3 1.7-20.2.4-6.7.7-15.4.7-25.9 0-10.6-.6-23.3-1.7-38.3l24.6 69 44.5-10.6 12.1-63.8c.9 10.6 1.6 20.3 2.2 29.2.6 8.9.8 17.7.8 26.2s-.3 17.3-.8 26.4c-.6 9.1-1.3 18.9-2.2 29.5l69.7 11.1c.9-24.9 1.3-39.5 1.3-63.9 0-24.3-.8-48.7-2.5-73.2s-4.4-49.5-8.1-75c-3.7-25.5-8.6-52-14.6-79.6l-66.1-4.8z"/>
  </g>
</svg>
