<?xml version="1.0" encoding="utf-8"?>
<!-- Generator: Adobe Illustrator 19.0.0, SVG Export Plug-In . SVG Version: 6.00 Build 0)  -->
<svg version="1.1" id="text" xmlns="http://www.w3.org/2000/svg" xmlns:xlink="http://www.w3.org/1999/xlink" x="0px" y="0px"
	 viewBox="-819 641 360 720" style="enable-background:new -819 641 360 720;" xml:space="preserve">
<style type="text/css">
	.st0{enable-background:new    ;}
	.st1{fill:#00CC33;}
</style>
<g>
	<g class="st0">
		<path class="st1" d="M-795.4,768.1c-0.2-0.5-0.2-1.1,0.1-1.9c0.3-0.8,0.8-1.4,1.6-1.8c0.4-0.2,0.9-0.4,1.5-0.4
			c0.6-0.1,1.2-0.1,1.7,0c0.5,0,1.2,0,2.1-0.2c0.8-0.2,1.7-0.5,2.5-0.9c1-0.5,1.9-1.1,2.6-1.8c0.7-0.7,0.9-1.3,0.6-1.9
			c-0.2-0.6-0.9-0.9-2-0.9c-1.1,0-2.3,0.2-3.8,0.5c-1.4,0.3-2.9,0.6-4.4,0.8c-1.5,0.3-2.9,0.2-4.1-0.1c-1.3-0.3-2.2-1-2.8-2.1
			c-0.9-1.8-0.6-3.7,1-5.8c1.6-2.1,3.9-3.9,6.9-5.5c0.7-0.4,1.5-0.8,2.3-1.1c0.8-0.4,1.8-0.7,2.9-1.1c1.1-0.4,2-0.5,2.8-0.5
			c0.8,0,1.3,0.3,1.5,0.8c0.2,0.5,0.2,1.1,0,1.8c-0.2,0.7-0.8,1.3-1.6,1.7c-0.3,0.2-1.1,0.4-2.4,0.6c-1.2,0.2-2.5,0.7-3.8,1.4
			c-1.4,0.7-2.4,1.5-2.9,2.1c-0.5,0.7-0.7,1.2-0.5,1.7c0.2,0.4,0.7,0.6,1.5,0.6c0.8,0,1.7-0.2,2.8-0.4c1.1-0.3,2.3-0.5,3.6-0.7
			c1.3-0.2,2.6-0.3,3.7-0.3c1.2,0,2.2,0.2,3.2,0.7c1,0.5,1.7,1.3,2.1,2.4c0.7,1.9,0.4,3.8-1.1,5.7c-1.5,1.9-3.7,3.6-6.7,5.1
			c-2.6,1.3-5,2.1-7.2,2.5C-793.7,769.2-795,768.9-795.4,768.1z"/>
		<path class="st1" d="M-773.7,753.5c-1.9-5-3-7.5-5.1-12.4c-0.2-0.4,0-0.9,0.6-1.4c0.6-0.5,1.3-1,2.2-1.4c0.9-0.4,1.8-0.7,2.5-0.8
			c0.8-0.1,1.2,0.1,1.4,0.5c2,5,3,7.5,4.9,12.6c0.7,1.9,2.3,2.2,5,1.2c2.7-1.1,3.7-2.6,3.1-4.5c-1.8-5.2-2.7-7.8-4.6-12.9
			c-0.2-0.4,0-0.9,0.6-1.4c0.6-0.5,1.3-0.9,2.3-1.3c0.9-0.4,1.8-0.6,2.5-0.6c0.8,0,1.2,0.2,1.4,0.6c1.8,5.2,2.7,7.8,4.4,13.1
			c0.7,2.4,0.3,4.5-1.3,6.3c-1.6,1.8-3.9,3.3-7.1,4.6c-3.2,1.3-5.9,1.8-8.1,1.5C-771.3,757-772.9,755.7-773.7,753.5z"/>
		<path class="st1" d="M-748.6,747c-0.2-0.5,0-1.2,0.4-2c0.4-0.8,1-1.3,1.8-1.5c0.4-0.1,0.9-0.2,1.5-0.1c0.6,0.1,1.2,0.2,1.7,0.3
			c0.5,0.1,1.2,0.2,2.1,0.2c0.9,0,1.7-0.2,2.6-0.4c1.1-0.3,2-0.8,2.8-1.4c0.7-0.6,1-1.2,0.9-1.9c-0.2-0.7-0.8-1.1-1.9-1.3
			c-1.1-0.2-2.3-0.3-3.8-0.3c-1.5,0-2.9,0-4.4-0.1c-1.5-0.1-2.9-0.4-4.1-1c-1.2-0.6-2-1.5-2.5-2.8c-0.7-2.1-0.1-4,1.8-5.8
			c1.9-1.8,4.4-3.3,7.6-4.3c0.8-0.3,1.6-0.5,2.5-0.7c0.9-0.2,1.9-0.4,3-0.5c1.1-0.2,2.1-0.1,2.9,0.1c0.8,0.2,1.3,0.6,1.4,1.1
			c0.1,0.5,0.1,1.2-0.3,1.9c-0.3,0.7-0.9,1.2-1.8,1.5c-0.4,0.1-1.2,0.1-2.4,0.1c-1.3,0-2.6,0.2-4,0.6c-1.5,0.5-2.5,1-3.2,1.6
			c-0.6,0.6-0.9,1.1-0.7,1.6c0.1,0.5,0.6,0.8,1.4,0.9c0.8,0.1,1.8,0.2,2.9,0.1c1.1-0.1,2.3-0.1,3.7,0c1.3,0.1,2.6,0.2,3.7,0.4
			c1.2,0.2,2.2,0.7,3.1,1.5c0.9,0.7,1.5,1.7,1.8,2.9c0.5,2.1-0.1,4-1.8,5.7c-1.7,1.7-4.1,3-7.3,4c-2.7,0.8-5.2,1.2-7.5,1.1
			S-748.3,748-748.6,747z"/>
		<path class="st1" d="M-730.4,723.5c-0.1-0.6-0.1-1.1,0.2-1.6c0.3-0.5,0.7-0.9,1.4-1c7.8-2.2,11.8-3.1,19.7-4.7
			c0.7-0.1,1.3,0,1.7,0.3c0.5,0.3,0.7,0.8,0.9,1.4c0.1,0.6,0,1.2-0.3,1.7c-0.3,0.5-0.8,0.8-1.4,0.9c-2.5,0.5-3.8,0.8-6.3,1.3
			c1.5,6.9,2.2,10.3,3.5,17.3c0.1,0.5-0.2,0.9-0.8,1.3c-0.6,0.4-1.4,0.7-2.3,0.9c-0.9,0.2-1.7,0.2-2.4,0.1c-0.7-0.1-1.1-0.4-1.2-0.9
			c-1.4-6.9-2.1-10.3-3.7-17.1c-2.5,0.6-3.7,0.9-6.2,1.6c-0.7,0.2-1.2,0.1-1.7-0.2S-730.3,724.1-730.4,723.5z"/>
		<path class="st1" d="M-705.3,737.5c0-0.1,0-0.2,0-0.4c1.9-8.4,2.9-12.7,4.8-21.1c0.1-0.6,0.6-1.1,1.4-1.5c0.8-0.4,1.8-0.8,2.9-0.9
			c1.1-0.2,2.2-0.2,3.1,0c0.9,0.2,1.6,0.5,1.9,1c4.8,7.5,7,11.3,11.1,19.2c0.1,0.2,0.1,0.3,0.1,0.4c0.1,0.6-0.4,1.1-1.3,1.6
			c-0.9,0.5-1.9,0.8-2.9,0.9c-1.3,0.1-2-0.1-2.3-0.7c-0.8-1.6-1.2-2.4-2-4c-3.7,0.4-5.6,0.7-9.3,1.3c-0.4,1.7-0.5,2.6-0.9,4.3
			c-0.1,0.7-0.8,1.1-2.1,1.3c-1,0.2-2,0.1-3-0.1C-704.7,738.4-705.2,738-705.3,737.5z M-696.9,729.1c2.6-0.4,3.9-0.6,6.5-0.9
			c-1.8-3.4-2.7-5-4.6-8.3C-695.7,723.6-696.1,725.4-696.9,729.1z"/>
		<path class="st1" d="M-677.3,734.4c-0.8-8.6-1.3-12.8-2.4-21.3c-0.1-0.5,0.2-0.9,0.9-1.3c0.7-0.3,1.5-0.6,2.5-0.6
			c1-0.1,1.9,0,2.6,0.2c0.7,0.2,1.1,0.6,1.2,1.1c1,8.5,1.4,12.8,2.1,21.5c0,0.5-0.3,0.9-0.9,1.3c-0.7,0.3-1.4,0.5-2.4,0.6
			c-0.9,0.1-1.8,0-2.4-0.3C-676.8,735.3-677.2,735-677.3,734.4z"/>
		<path class="st1" d="M-665.6,733.8c-0.5-8.7-0.9-13-1.8-21.6c-0.1-0.5,0.3-0.9,0.9-1.3c0.7-0.3,1.5-0.5,2.5-0.6
			c1.4-0.1,2.4,0,3.1,0.3c0.7,0.3,1.5,1,2.4,2.1c3.3,4.1,5,6.3,8.1,10.6c-0.2-4.7-0.3-7.1-0.7-11.8c0-0.5,0.3-0.9,1-1.2
			c0.7-0.3,1.5-0.4,2.5-0.4c1,0,1.9,0.2,2.6,0.4c0.7,0.3,1.1,0.7,1.1,1.2c0.5,8.8,0.6,13.3,0.7,22.2c0,0.5-0.3,0.9-1,1.2
			c-0.7,0.3-1.5,0.4-2.4,0.3c-1.9-0.1-3.2-0.6-3.9-1.6c-3.5-4.9-5.3-7.3-9-11.9c0.3,4.7,0.5,7,0.7,11.7c0,0.5-0.3,0.9-1,1.2
			c-0.7,0.3-1.5,0.5-2.4,0.5c-0.9,0-1.7-0.1-2.4-0.4C-665.3,734.7-665.6,734.3-665.6,733.8z"/>
		<path class="st1" d="M-640.6,733.5c0-0.1,0-0.2,0.1-0.4c3.2-8.4,4.9-12.6,8.1-21c0.2-0.6,0.8-1,1.7-1.3c0.9-0.3,1.9-0.4,3-0.3
			c1.1,0.1,2.2,0.3,3,0.7c0.9,0.4,1.4,0.9,1.7,1.5c3.5,9,5,13.6,7.8,22.8c0,0.2,0.1,0.3,0.1,0.4c0,0.6-0.5,1.1-1.5,1.4
			c-1,0.3-2,0.4-3,0.3c-1.2-0.2-2-0.6-2.2-1.3c-0.5-1.9-0.8-2.8-1.3-4.6c-3.7-0.4-5.6-0.6-9.3-0.9c-0.6,1.7-0.9,2.6-1.5,4.3
			c-0.2,0.7-1,0.9-2.2,0.9c-1-0.1-2-0.4-3-0.9C-640.1,734.7-640.6,734.1-640.6,733.5z M-631,726.7c2.6,0.2,3.9,0.3,6.5,0.6
			c-1.2-4-1.9-5.9-3.2-9.8C-629,721.2-629.6,723.1-631,726.7z"/>
		<path class="st1" d="M-612.6,737.1c0.6-9.2,0.8-13.7,1-22.9c0-0.5,0.3-0.9,0.9-1.2c0.6-0.2,1.4-0.3,2.2-0.1
			c3.8,0.5,5.6,0.8,9.4,1.5c6.1,1.1,9,3.9,8.6,8.2c-0.2,2.9-1.7,4.6-4.2,4.9c1.5,0.8,2.5,1.7,3.2,2.7c0.7,1,0.9,2.4,0.8,4.1
			c0,0.3,0,0.5-0.1,0.8c-0.3,2.7-1.3,4.5-3,5.4c-1.7,0.9-3.8,1-6.5,0.5c-3.8-0.8-5.7-1.2-9.6-1.8c-0.9-0.2-1.6-0.4-2.1-0.9
			C-612.4,738-612.6,737.5-612.6,737.1z M-604.9,723.4c1.9,0.3,2.8,0.5,4.7,0.8c0.8,0.1,1.4,0,1.9-0.4c0.5-0.4,0.7-1,0.8-1.6
			c0-0.7-0.1-1.3-0.6-1.9c-0.4-0.6-1-1-1.9-1.1c-1.9-0.3-2.8-0.5-4.8-0.8C-604.8,720.4-604.8,721.4-604.9,723.4z M-605.6,735
			c1.7,0.3,2.6,0.5,4.4,0.8c2.3,0.5,3.6-0.4,3.8-2.6c0-0.2,0-0.3,0-0.6c0.2-2.2-0.9-3.6-3.3-4c-1.8-0.3-2.7-0.5-4.4-0.8
			C-605.3,730.6-605.4,732.1-605.6,735z"/>
		<path class="st1" d="M-587.9,742.1c1.1-9.3,1.6-14,2.3-23.3c0-0.6,0.4-0.9,1.1-1c0.7-0.1,1.6-0.1,2.5,0.1c1,0.2,1.8,0.6,2.4,1
			c0.7,0.5,1,1,0.9,1.5c-0.8,8.1-1.2,12.1-2.3,20.2c3.9,1.1,5.8,1.7,9.7,2.9c0.6,0.2,1,0.6,1.3,1.2c0.3,0.6,0.3,1.3,0.2,1.9
			c-0.1,0.7-0.4,1.2-0.8,1.6c-0.4,0.4-0.9,0.5-1.5,0.3c-5.3-1.7-7.9-2.5-13.3-4c-0.8-0.2-1.5-0.5-2-1
			C-587.8,743.2-588,742.7-587.9,742.1z"/>
		<path class="st1" d="M-567.2,748.3c1.6-9.4,2.3-14.1,3.5-23.5c0.1-0.6,0.4-0.9,1.1-1c0.6-0.1,1.4-0.1,2.2,0.2
			c6.3,2,9.4,3.1,15.6,5.6c0.7,0.3,1.1,0.7,1.4,1.3c0.3,0.6,0.3,1.3,0.2,2c-0.1,0.7-0.4,1.3-0.9,1.6c-0.4,0.4-1,0.4-1.6,0.2
			c-4.6-1.8-6.9-2.7-11.5-4.3c-0.4,2.5-0.6,3.8-1,6.3c2.6,0.9,3.8,1.4,6.4,2.4c0.6,0.2,1.1,0.7,1.3,1.2c0.3,0.6,0.3,1.2,0.2,1.8
			c-0.1,0.6-0.4,1-0.8,1.3c-0.4,0.3-0.9,0.3-1.6,0.1c-2.5-1-3.8-1.5-6.3-2.4c-0.4,2.5-0.6,3.8-1.1,6.3c4.5,1.6,6.7,2.5,11.1,4.4
			c0.6,0.3,1,0.7,1.3,1.3c0.2,0.6,0.3,1.3,0.1,2c-0.1,0.7-0.4,1.2-0.9,1.5c-0.4,0.4-1,0.4-1.6,0.1c-5.8-2.5-8.7-3.6-14.6-5.7
			c-0.8-0.3-1.4-0.7-1.9-1.2C-567.1,749.4-567.3,748.9-567.2,748.3z"/>
	</g>
	<g class="st0">
		<path class="st1" d="M-795.9,799.1c0,0,0-0.1,0-0.2c0-4.4,0-6.6,0-11c0-0.3,0.2-0.6,0.5-1c0.3-0.4,0.8-0.7,1.3-1
			c0.5-0.3,1-0.5,1.5-0.6c0.5-0.1,0.8,0,1,0.1c3.1,2.7,4.6,4.1,7.5,7.1c0.1,0.1,0.1,0.1,0.1,0.1c0.1,0.3,0,0.6-0.4,1
			c-0.4,0.4-0.8,0.8-1.3,1c-0.6,0.3-1,0.3-1.2,0.1c-0.6-0.6-0.8-0.9-1.4-1.5c-1.7,0.9-2.6,1.4-4.3,2.3c0,0.9,0,1.3,0.1,2.2
			c0,0.3-0.3,0.7-0.9,1c-0.5,0.3-1,0.4-1.5,0.5C-795.5,799.4-795.8,799.4-795.9,799.1z M-792.8,793.5c1.2-0.7,1.8-1,3-1.6
			c-1.2-1.3-1.9-1.9-3.1-3.1C-792.9,790.7-792.8,791.6-792.8,793.5z"/>
		<path class="st1" d="M-782.8,792.3c-1.4-3.9-2.1-5.8-3.6-9.6c-0.1-0.2,0-0.5,0.3-0.8c0.3-0.3,0.6-0.6,1.1-0.8
			c0.6-0.3,1.1-0.5,1.5-0.5c0.4,0,0.8,0.1,1.4,0.5c2.1,1.2,3.1,1.8,5.1,3.1c-0.7-2.1-1.1-3.1-1.9-5.2c-0.1-0.2,0-0.5,0.3-0.8
			c0.3-0.3,0.7-0.5,1.1-0.8c0.5-0.2,0.9-0.3,1.3-0.4c0.4,0,0.6,0.1,0.7,0.3c1.4,3.9,2.1,5.9,3.3,9.9c0.1,0.2,0,0.5-0.3,0.8
			c-0.3,0.3-0.6,0.5-1.1,0.7c-0.9,0.4-1.6,0.5-2,0.2c-2.3-1.4-3.5-2.1-5.8-3.4c0.8,2.1,1.1,3.1,1.9,5.2c0.1,0.2,0,0.5-0.3,0.8
			c-0.3,0.3-0.6,0.5-1.1,0.8c-0.4,0.2-0.8,0.3-1.2,0.4C-782.5,792.7-782.8,792.6-782.8,792.3z"/>
		<path class="st1" d="M-770,786.3c-1.3-4-1.9-6-3.3-10c-0.1-0.2,0-0.4,0.2-0.7c0.2-0.3,0.6-0.5,1-0.7c1.5-0.7,2.3-1,3.9-1.7
			c1.6-0.7,3-0.9,4.2-0.7c1.2,0.2,1.9,1,2.3,2.3c0.5,1.7,0.7,2.5,1.2,4.2c0.4,1.3,0.2,2.5-0.6,3.5c-0.8,1-2,1.8-3.5,2.5
			c-1.5,0.6-2.2,0.9-3.7,1.6c-0.4,0.2-0.8,0.3-1.1,0.2C-769.7,786.6-769.9,786.5-770,786.3z M-767.1,783.4c0.8-0.3,1.1-0.5,1.9-0.8
			c1.3-0.5,1.8-1.3,1.4-2.4c-0.5-1.7-0.7-2.5-1.2-4.1c-0.3-1.1-1.1-1.3-2.5-0.8c-0.8,0.3-1.2,0.5-1.9,0.8
			C-768.4,779-768,780.5-767.1,783.4z"/>
	</g>
	<g class="st0">
		<path class="st1" d="M-795.4,826.7c-2-5.5-3.1-8.3-5.4-13.7c-0.1-0.3-0.1-0.7,0.2-1.1c0.3-0.4,0.7-0.8,1.2-1.1
			c4-2.4,6.1-3.6,10.2-5.8c0.4-0.2,0.8-0.3,1.2-0.1c0.3,0.2,0.6,0.5,0.7,0.9c0.2,0.4,0.2,0.9,0,1.3c-0.1,0.4-0.4,0.7-0.8,1
			c-3.1,1.7-4.6,2.5-7.6,4.3c0.6,1.5,0.9,2.2,1.4,3.7c1.7-1,2.5-1.4,4.2-2.4c0.4-0.2,0.8-0.3,1.1-0.1c0.3,0.1,0.6,0.4,0.7,0.8
			c0.1,0.3,0.1,0.7,0,1.1c-0.1,0.4-0.4,0.7-0.8,0.9c-1.7,0.9-2.5,1.4-4.2,2.3c0.5,1.5,0.8,2.2,1.4,3.7c2.9-1.7,4.4-2.5,7.4-4
			c0.4-0.2,0.8-0.2,1.1,0c0.3,0.2,0.6,0.5,0.7,0.9c0.1,0.4,0.1,0.8,0,1.2c-0.1,0.4-0.4,0.7-0.8,1c-3.9,2-5.9,3.1-9.7,5.3
			c-0.5,0.3-1,0.4-1.4,0.5C-795,827.1-795.3,827-795.4,826.7z"/>
		<path class="st1" d="M-780.7,818.7c-1.8-5.8-2.7-8.7-4.7-14.4c-0.1-0.3,0-0.7,0.4-1.1c0.4-0.4,0.9-0.8,1.5-1.1
			c0.9-0.4,1.6-0.7,2.1-0.7c0.5,0,1.1,0.2,1.9,0.8c2.8,1.9,4.2,2.9,6.9,4.9c-0.9-3.2-1.4-4.8-2.3-7.9c-0.1-0.4,0-0.7,0.4-1.1
			c0.4-0.4,0.9-0.7,1.6-1s1.2-0.4,1.7-0.5c0.5,0,0.8,0.2,0.9,0.5c1.7,6,2.6,9,4.1,15c0.1,0.4-0.1,0.7-0.4,1.1
			c-0.4,0.4-0.9,0.7-1.5,1c-1.2,0.5-2.1,0.5-2.7,0.1c-3-2.3-4.6-3.4-7.7-5.5c1,3.1,1.4,4.7,2.3,7.9c0.1,0.4,0,0.7-0.4,1.1
			c-0.4,0.4-0.9,0.7-1.5,1c-0.6,0.3-1.1,0.4-1.6,0.5C-780.3,819.2-780.6,819-780.7,818.7z"/>
		<path class="st1" d="M-768.4,796.7c-0.1-0.4,0.1-0.9,0.7-1.5c0.6-0.6,1.2-1,1.9-1.3c0.9-0.4,1.4-0.3,1.7,0c3,4.2,4.5,6.3,7.2,10.7
			c0.5-5.6,0.8-8.4,1.3-14c0.1-0.5,0.5-1,1.4-1.3c0.7-0.3,1.4-0.4,2.2-0.3c0.7,0.1,1.2,0.3,1.2,0.8c0,0,0,0.1,0,0.3
			c-0.9,6.8-1.4,10.2-2.4,17c-0.1,0.5-0.4,0.9-0.9,1.3c-0.5,0.4-1.1,0.8-1.8,1c-0.7,0.3-1.4,0.4-2,0.4c-0.6,0-1-0.2-1.3-0.5
			c-3.5-5.1-5.3-7.6-9.2-12.4C-768.4,796.8-768.4,796.7-768.4,796.7z"/>
		<path class="st1" d="M-746,804.6c-1.1-6.4-1.8-9.6-3.1-15.8c-0.1-0.4,0.1-0.7,0.5-1.1c0.4-0.4,1-0.6,1.6-0.9
			c0.7-0.2,1.3-0.3,1.8-0.3c0.5,0,0.8,0.3,0.9,0.6c1.3,6.3,1.9,9.5,2.9,16c0.1,0.4-0.1,0.8-0.5,1.1c-0.4,0.3-0.9,0.6-1.6,0.8
			c-0.6,0.2-1.2,0.3-1.7,0.2C-745.7,805.2-745.9,805-746,804.6z"/>
		<path class="st1" d="M-738.2,802.3c-1-6.5-1.5-9.7-2.8-16.1c-0.1-0.3,0-0.6,0.3-1c0.2-0.3,0.6-0.5,1-0.7c2.6-0.8,3.9-1.1,6.5-1.8
			c5.2-1.4,8.1-0.1,8.6,3.6c0.4,2.7-0.7,4.7-3,6.1c1.8,1.9,2.7,2.9,4.4,4.9c0.1,0.1,0.2,0.2,0.2,0.4c0.1,0.5-0.2,1.1-0.8,1.6
			c-0.6,0.6-1.2,1-1.9,1.1c-0.7,0.2-1.2,0-1.6-0.4c-2-2.4-3-3.6-5.1-5.9c-0.8,0.2-1.2,0.3-2,0.5c0.4,2.5,0.6,3.7,0.9,6.2
			c0.1,0.4-0.1,0.8-0.6,1.1c-0.4,0.3-1,0.6-1.6,0.8c-0.6,0.2-1.2,0.2-1.7,0.1C-737.9,802.9-738.1,802.7-738.2,802.3z M-734.9,791.8
			c1.2-0.3,1.8-0.5,3-0.8c0.9-0.2,1.6-0.6,2-1.1c0.4-0.5,0.6-1.2,0.4-2c-0.1-0.9-0.5-1.4-1-1.7c-0.5-0.2-1.3-0.3-2.2,0
			c-1.2,0.3-1.9,0.5-3.1,0.8C-735.4,788.9-735.2,789.9-734.9,791.8z"/>
		<path class="st1" d="M-721.4,793.3c-0.3-2.8-0.5-4.2-0.8-6.9c-0.3-2.1,0.2-3.8,1.5-5.1c1.3-1.3,3.1-2.2,5.5-2.6
			c2.4-0.5,4.4-0.3,5.9,0.5c1.5,0.8,2.4,2.3,2.6,4.4c0.2,2.8,0.3,4.3,0.5,7.1c0.1,2.2-0.5,3.9-1.8,5.1c-1.3,1.2-3.1,2-5.3,2.4
			c-2.2,0.4-4.1,0.2-5.5-0.5C-720.3,796.9-721.2,795.4-721.4,793.3z M-716.6,792.3c0.2,1.8,1.2,2.5,3,2.2c1.8-0.3,2.7-1.4,2.6-3.1
			c-0.2-2.8-0.4-4.2-0.6-7.1c-0.2-1.8-1.2-2.5-3.1-2.1c-1.9,0.4-2.7,1.4-2.5,3.2C-717,788.1-716.9,789.5-716.6,792.3z"/>
		<path class="st1" d="M-702.9,795.1c-0.3-6.9-0.6-10.3-1.1-17.1c0-0.4,0.2-0.8,0.7-1.1c0.5-0.3,1.1-0.5,1.7-0.6
			c1-0.1,1.7-0.1,2.2,0.1c0.5,0.2,1,0.7,1.7,1.6c2.3,3.1,3.4,4.7,5.6,7.9c-0.1-3.7-0.2-5.6-0.4-9.3c0-0.4,0.2-0.8,0.7-1
			c0.5-0.3,1.1-0.4,1.8-0.5c0.7-0.1,1.3,0,1.8,0.2c0.5,0.2,0.8,0.5,0.8,0.9c0.3,7,0.4,10.5,0.4,17.5c0,0.4-0.2,0.8-0.7,1
			c-0.5,0.3-1,0.4-1.7,0.5c-1.3,0.1-2.2-0.2-2.7-1c-2.4-3.6-3.7-5.4-6.3-8.9c0.2,3.7,0.3,5.5,0.4,9.2c0,0.4-0.2,0.8-0.7,1
			c-0.5,0.3-1,0.5-1.7,0.5c-0.7,0.1-1.2,0-1.7-0.1C-702.6,795.8-702.9,795.5-702.9,795.1z"/>
		<path class="st1" d="M-683.8,793.5c0-6.7,0-10.1-0.2-16.7c0-0.7,0.2-1.3,0.7-1.7c0.5-0.4,1.1-0.6,1.8-0.6c1-0.1,1.7,0,2.2,0.3
			c0.5,0.2,1.1,0.8,1.7,1.7c1.4,2,2,2.9,3.3,4.9c1.3-2,2-3.1,3.3-5.1c0.6-1,1.2-1.6,1.7-1.8c0.5-0.3,1.3-0.4,2.2-0.4
			c0.7,0,1.3,0.2,1.8,0.5c0.5,0.4,0.7,0.9,0.7,1.7c-0.1,6.8-0.3,10.2-0.6,17.1c0,0.4-0.3,0.8-0.8,1c-0.5,0.2-1.1,0.3-1.7,0.3
			c-0.7,0-1.2-0.1-1.7-0.4c-0.5-0.2-0.7-0.6-0.7-1c0.2-4.2,0.2-6.3,0.3-10.6c-1.3,1.8-1.9,2.8-3.1,4.6c-0.4,0.5-0.9,0.8-1.7,0.8
			c-0.7,0-1.2-0.3-1.5-0.8c-1.2-1.9-1.8-2.9-3-4.8c0,4.3,0,6.4-0.1,10.7c0,0.4-0.3,0.8-0.7,1c-0.5,0.2-1,0.4-1.7,0.4
			c-0.7,0-1.2-0.1-1.7-0.3C-683.6,794.2-683.8,793.9-683.8,793.5z"/>
		<path class="st1" d="M-661.8,793.4c0.4-7.2,0.6-10.8,0.8-18c0-0.4,0.2-0.8,0.7-1c0.4-0.2,1-0.3,1.6-0.3c4.6,0.2,7,0.3,11.6,0.7
			c0.5,0,0.9,0.3,1.1,0.7c0.2,0.4,0.3,0.9,0.3,1.4c0,0.6-0.2,1-0.5,1.4c-0.3,0.4-0.7,0.5-1.1,0.5c-3.4-0.3-5.2-0.4-8.6-0.6
			c-0.1,1.9-0.1,2.9-0.2,4.8c1.9,0.1,2.9,0.2,4.8,0.3c0.5,0,0.8,0.2,1.1,0.6s0.3,0.8,0.3,1.3c0,0.4-0.2,0.8-0.5,1.1
			c-0.3,0.3-0.7,0.5-1.1,0.4c-1.9-0.1-2.8-0.2-4.7-0.3c-0.1,1.9-0.2,2.9-0.3,4.8c3.3,0.2,5,0.3,8.3,0.7c0.5,0,0.8,0.3,1,0.7
			c0.2,0.4,0.3,0.9,0.3,1.4c-0.1,0.5-0.2,1-0.5,1.3c-0.3,0.4-0.7,0.5-1.1,0.5c-4.4-0.4-6.6-0.6-11-0.9c-0.6,0-1.1-0.2-1.5-0.4
			C-661.6,794.2-661.8,793.9-661.8,793.4z"/>
		<path class="st1" d="M-645.1,794.8c0.8-7.3,1.1-11,1.6-18.3c0-0.4,0.3-0.8,0.8-0.9c0.5-0.2,1.1-0.3,1.8-0.2c1,0.1,1.7,0.3,2.1,0.6
			c0.4,0.3,0.9,1,1.4,2.1c1.8,3.8,2.6,5.8,4.2,9.7c0.5-3.9,0.7-5.9,1.1-9.9c0-0.4,0.3-0.7,0.8-0.9c0.5-0.2,1.1-0.2,1.8-0.1
			c0.7,0.1,1.3,0.3,1.7,0.6c0.5,0.3,0.7,0.7,0.6,1.1c-0.8,7.4-1.3,11.1-2.4,18.5c-0.1,0.4-0.4,0.7-0.9,0.9c-0.5,0.2-1.1,0.2-1.7,0.1
			c-1.3-0.2-2.1-0.8-2.5-1.7c-1.8-4.4-2.7-6.6-4.7-10.9c-0.4,3.9-0.6,5.9-1.1,9.8c-0.1,0.4-0.3,0.8-0.8,0.9
			c-0.5,0.2-1.1,0.2-1.7,0.1c-0.7-0.1-1.2-0.3-1.6-0.6C-644.9,795.6-645.1,795.2-645.1,794.8z"/>
		<path class="st1" d="M-625.1,779.5c0.1-0.5,0.2-1,0.5-1.3c0.3-0.3,0.7-0.5,1.2-0.4c5.6,1,8.3,1.6,13.8,2.9c0.5,0.1,0.8,0.4,1,0.9
			c0.2,0.5,0.2,0.9,0.2,1.5c-0.1,0.6-0.3,1-0.6,1.3c-0.3,0.3-0.7,0.4-1.2,0.3c-1.7-0.4-2.6-0.6-4.4-1c-1,6.4-1.5,9.6-2.6,16
			c-0.1,0.5-0.4,0.7-0.9,0.9c-0.5,0.1-1.1,0.1-1.7,0c-0.6-0.1-1.2-0.4-1.6-0.7c-0.4-0.3-0.6-0.7-0.5-1.2c1.1-6.4,1.5-9.6,2.4-16
			c-1.8-0.4-2.6-0.5-4.4-0.8c-0.5-0.1-0.8-0.3-1-0.8C-625.1,780.6-625.2,780.1-625.1,779.5z"/>
		<path class="st1" d="M-603.4,803.3c1.8-8.7,2.7-13,4.2-21.7c0.1-0.5,0.4-0.9,0.9-1c0.5-0.1,1.2-0.1,1.8,0.1
			c5.1,1.5,7.6,2.3,12.6,4c0.6,0.2,0.9,0.6,1.1,1.1c0.2,0.6,0.2,1.2,0.1,1.8c-0.1,0.7-0.4,1.2-0.8,1.5c-0.4,0.4-0.9,0.4-1.4,0.2
			c-3.7-1.3-5.5-1.9-9.3-3.1c-0.5,2.3-0.7,3.5-1.2,5.8c2.1,0.7,3.2,1,5.3,1.8c0.5,0.2,0.9,0.5,1.1,1c0.2,0.5,0.2,1.1,0.1,1.6
			c-0.1,0.5-0.4,0.9-0.7,1.3c-0.4,0.3-0.8,0.4-1.4,0.2c-2.1-0.7-3.2-1.1-5.3-1.8c-0.7,3.5-1.1,5.3-1.9,8.8c-0.1,0.5-0.5,0.8-1.1,0.9
			c-0.6,0.1-1.2,0-2-0.2c-0.7-0.2-1.3-0.6-1.8-1C-603.3,804.3-603.5,803.8-603.4,803.3z"/>
		<path class="st1" d="M-585.8,809.5c2.3-8.7,3.3-13.1,5.3-21.9c0.1-0.4,0.3-0.8,0.7-1c0.4-0.2,0.8-0.2,1.3,0c3,1.1,4.4,1.7,7.4,2.9
			c5.8,2.4,8,6.3,6.6,11.2c-1,3.6-3,5.3-6.1,5.1c0.8,3.8,1.2,5.7,1.8,9.5c0.1,0.2,0.1,0.4,0,0.7c-0.2,0.7-0.7,1.1-1.6,1.4
			c-0.9,0.3-1.7,0.2-2.4-0.2c-0.8-0.4-1.2-1-1.3-1.8c-0.7-4.5-1.1-6.7-2-11.2c-0.9-0.4-1.3-0.6-2.2-1c-0.9,3.3-1.3,5-2.2,8.3
			c-0.1,0.5-0.5,0.8-1.1,0.9c-0.6,0.1-1.2,0-1.9-0.3c-0.7-0.3-1.3-0.7-1.7-1.2C-585.8,810.5-586,810-585.8,809.5z M-577.3,799.2
			c1.4,0.6,2,0.9,3.4,1.4c1,0.4,1.8,0.5,2.5,0.3c0.7-0.3,1.1-1,1.4-2.1c0.3-1.1,0.3-2.1-0.1-2.8c-0.4-0.7-1.1-1.3-2.1-1.7
			c-1.4-0.6-2.1-0.9-3.5-1.4C-576.3,795.4-576.7,796.7-577.3,799.2z"/>
		<path class="st1" d="M-566.5,818.3c2.7-8.7,4-13.1,6.5-21.9c0.1-0.5,0.5-0.8,1.1-0.8c0.6,0,1.3,0.2,2,0.5c0.7,0.4,1.3,0.8,1.8,1.4
			c0.4,0.5,0.6,1.1,0.4,1.6c-2.6,8.8-3.9,13.2-6.8,21.9c-0.2,0.5-0.6,0.8-1.1,0.8c-0.6,0-1.2-0.2-1.9-0.5c-0.7-0.4-1.2-0.8-1.6-1.4
			C-566.6,819.3-566.7,818.8-566.5,818.3z"/>
		<path class="st1" d="M-558.1,822.8c3-8.7,4.4-13.1,7-21.9c0.2-0.5,0.5-0.8,1-0.9c0.5,0,1.1,0.1,1.7,0.4c4.8,2.6,7.2,4,11.8,7
			c0.5,0.3,0.8,0.8,0.9,1.4c0.1,0.6,0,1.3-0.2,1.9c-0.2,0.7-0.6,1.1-1,1.4c-0.4,0.3-0.9,0.3-1.3,0c-3.4-2.2-5.2-3.3-8.7-5.3
			c-0.8,2.3-1.1,3.5-1.9,5.8c1.9,1.1,2.9,1.7,4.8,2.9c0.5,0.3,0.8,0.7,0.9,1.3c0.1,0.6,0.1,1.2-0.1,1.7c-0.2,0.5-0.5,0.9-0.9,1.2
			c-0.4,0.3-0.8,0.2-1.3-0.1c-1.9-1.2-2.9-1.8-4.8-2.9c-0.8,2.3-1.2,3.5-2,5.8c3.4,2,5,3.1,8.3,5.3c0.4,0.3,0.7,0.8,0.8,1.4
			c0.1,0.6,0,1.3-0.3,1.9c-0.2,0.6-0.6,1.1-1,1.4c-0.4,0.3-0.9,0.3-1.3,0c-4.3-2.9-6.5-4.3-11-6.9c-0.6-0.3-1-0.8-1.4-1.3
			C-558.2,823.9-558.2,823.4-558.1,822.8z"/>
		<path class="st1" d="M-541.4,833.4c3.4-8.7,5-13,8.1-21.8c0.2-0.5,0.6-0.8,1.2-0.7c0.6,0,1.2,0.3,1.9,0.8c1,0.7,1.6,1.3,2,1.9
			c0.3,0.6,0.6,1.7,0.7,3.3c0.4,5.7,0.6,8.6,0.8,14.3c1.9-4.7,2.8-7,4.7-11.7c0.2-0.5,0.6-0.8,1.2-0.7c0.6,0.1,1.2,0.4,1.9,0.9
			c0.7,0.5,1.2,1.1,1.5,1.7c0.4,0.6,0.4,1.2,0.2,1.8c-3.5,8.8-5.4,13.1-9.2,21.8c-0.2,0.5-0.6,0.7-1.2,0.7c-0.6-0.1-1.1-0.4-1.7-0.9
			c-1.2-1-1.8-2.1-1.9-3.4c-0.2-6.5-0.4-9.7-0.8-16.1c-1.8,4.7-2.7,7-4.6,11.6c-0.2,0.5-0.6,0.8-1.2,0.7c-0.6-0.1-1.2-0.3-1.8-0.8
			c-0.6-0.5-1.1-1-1.5-1.6C-541.6,834.5-541.6,833.9-541.4,833.4z"/>
		<path class="st1" d="M-523.5,847.6c3.9-8.6,5.8-13,9.4-21.8c0.2-0.4,0.5-0.7,1-0.7c0.5,0,1.1,0.2,1.7,0.7c2.1,1.8,3.1,2.7,5.2,4.6
			c2.2,2,3.6,4.2,4.2,6.7c0.7,2.5,0.3,5.2-1,7.9c-1.7,3.5-2.5,5.3-4.2,8.8c-1.3,2.7-2.9,4.1-4.7,4.2c-1.8,0.1-3.7-0.9-5.6-2.8
			c-1.9-1.8-2.8-2.7-4.8-4.5c-0.5-0.5-0.9-1.1-1.1-1.7C-523.7,848.5-523.7,848-523.5,847.6z M-517.9,848.5c1,0.9,1.5,1.4,2.4,2.3
			c1.6,1.6,3,1.2,4-1c1.7-3.5,2.5-5.3,4.1-8.8c1-2.3,0.7-4.2-1-5.8c-1-0.9-1.5-1.4-2.6-2.3C-513.6,839.1-515,842.2-517.9,848.5z"/>
		<path class="st1" d="M-507.8,863c4.4-8.5,6.5-12.8,10.6-21.5c0.2-0.5,0.6-0.7,1.2-0.5c0.5,0.2,1.1,0.5,1.7,1.2
			c0.6,0.6,1,1.3,1.3,2c0.3,0.7,0.3,1.3,0,1.9c-3.6,7.5-5.5,11.2-9.3,18.5c2.3,2.6,3.4,4,5.5,6.7c0.3,0.4,0.5,1,0.4,1.7
			c-0.1,0.7-0.3,1.3-0.6,2c-0.3,0.6-0.7,1-1.2,1.2c-0.4,0.2-0.8,0.1-1.1-0.3c-2.9-3.8-4.5-5.6-7.6-9.1c-0.5-0.5-0.8-1.1-1-1.8
			C-508.1,864.1-508.1,863.5-507.8,863z"/>
		<path class="st1" d="M-488.3,852.2c0.3-0.6,0.9-0.7,1.7-0.5c0.8,0.3,1.5,0.8,2.1,1.5c0.3,0.4,0.5,0.7,0.6,1.1
			c0.1,0.3,0.1,0.8,0.1,1.3c-0.4,5.2-0.7,7.8-1.3,13c3.2-1.7,4.8-2.5,8-4.1c0.6-0.3,1.1-0.2,1.6,0.5c0.5,0.8,1,1.8,1.3,3
			c0.3,1.2,0.3,2.1-0.1,2.7c-0.1,0.2-0.2,0.3-0.3,0.3c-4.5,1.8-6.7,2.8-11.2,4.7c-0.1,0-0.3,0.2-0.4,0.3c-1.9,3.3-2.9,5-4.8,8.3
			c-0.3,0.5-0.7,0.6-1.2,0.4c-0.5-0.2-1-0.6-1.4-1.3c-0.5-0.7-0.8-1.4-1-2.1c-0.2-0.7-0.1-1.4,0.2-1.9c1.9-3.3,2.8-5,4.7-8.3
			c0.1-0.2,0.2-0.4,0.2-0.6c0.6-7.1,0.8-10.7,1.1-17.9C-488.4,852.5-488.4,852.4-488.3,852.2z"/>
	</g>
	<g class="st0">
		<path class="st1" d="M-796.2,863.2c-2.4-7.7-3.7-11.5-6.5-18.9c-0.2-0.4-0.1-0.9,0.3-1.5c0.4-0.5,0.9-1,1.5-1.4
			c4.9-3.1,7.5-4.6,12.6-7.4c0.5-0.3,1-0.3,1.4-0.1c0.4,0.3,0.7,0.7,0.9,1.2c0.2,0.6,0.2,1.2,0,1.8c-0.2,0.6-0.5,1-1,1.3
			c-3.8,2-5.7,3.1-9.4,5.3c0.7,2,1,3,1.7,5.1c2-1.2,3.1-1.8,5.1-3c0.5-0.3,1-0.3,1.4-0.1c0.4,0.2,0.7,0.6,0.8,1.1
			c0.1,0.5,0.1,1,0,1.5c-0.2,0.5-0.5,0.9-1,1.2c-2,1.1-3,1.7-5.1,2.9c0.6,2.1,1,3.1,1.6,5.2c3.5-2,5.3-3,8.9-4.9
			c0.5-0.3,0.9-0.2,1.3,0c0.4,0.3,0.7,0.7,0.8,1.4c0.1,0.6,0.1,1.1,0,1.7c-0.2,0.6-0.5,1-1,1.2c-4.7,2.4-7,3.7-11.6,6.4
			c-0.6,0.4-1.1,0.5-1.7,0.5C-795.8,863.9-796.1,863.7-796.2,863.2z"/>
		<path class="st1" d="M-780.3,853.5c-0.1-0.3,0-0.6,0.1-1c1.5-4.6,2.3-6.9,3.9-11.5c-3.2-2.3-4.8-3.4-8.1-5.5
			c-0.3-0.2-0.5-0.5-0.6-0.8c-0.2-0.6,0-1.4,0.7-2.2c0.7-0.9,1.4-1.5,2.3-2c0.8-0.4,1.5-0.4,1.9,0c2.8,2,4.1,3,6.7,5.1
			c1.2-3.9,1.8-5.8,3.1-9.7c0.2-0.7,0.7-1.3,1.6-1.6c0.9-0.4,1.8-0.5,2.7-0.4c0.9,0.1,1.5,0.5,1.6,1.2c0.1,0.3,0,0.7-0.2,1.2
			c-1.7,4.5-2.6,6.8-4.2,11.3c3.2,2.4,4.8,3.7,7.8,6.4c0.3,0.3,0.4,0.5,0.5,0.8c0.1,0.7-0.2,1.4-0.9,2.3c-0.7,0.8-1.5,1.4-2.3,1.7
			c-0.6,0.3-1.1,0.3-1.4,0c-2.6-2.5-3.9-3.7-6.7-6c-1.4,4.2-2,6.2-3.3,10.4c-0.2,0.5-0.5,0.8-1.1,1.1c-0.8,0.4-1.6,0.5-2.5,0.4
			C-779.6,854.5-780.1,854.1-780.3,853.5z"/>
		<path class="st1" d="M-760.1,844.9c0-0.1,0-0.2,0-0.4c1.3-9.3,1.9-13.9,3.2-23.1c0.1-0.6,0.5-1.2,1.1-1.8c0.7-0.6,1.5-1,2.4-1.4
			c0.9-0.3,1.8-0.5,2.6-0.4c0.8,0.1,1.3,0.3,1.6,0.8c4.2,7.4,6.2,11.3,9.6,19.1c0.1,0.2,0.1,0.3,0.1,0.4c0.1,0.6-0.3,1.2-1,1.9
			c-0.7,0.7-1.5,1.1-2.4,1.3c-1,0.3-1.7,0.1-1.9-0.5c-0.7-1.6-1-2.4-1.7-4c-3.1,0.9-4.6,1.4-7.6,2.5c-0.2,1.9-0.4,2.8-0.6,4.7
			c-0.1,0.7-0.7,1.3-1.7,1.6c-0.8,0.3-1.6,0.4-2.5,0.2C-759.5,845.8-760,845.5-760.1,844.9z M-753.4,834.9c2.1-0.7,3.2-1.1,5.3-1.8
			c-1.6-3.4-2.4-5-4.1-8.3C-752.6,828.8-752.9,830.9-753.4,834.9z"/>
		<path class="st1" d="M-737.1,838.2c-0.7-8.6-1.1-12.9-2.2-21.3c-0.1-0.9,0.1-1.7,0.6-2.3c0.5-0.6,1.2-1,2.1-1.3
			c1.2-0.3,2.1-0.4,2.7-0.2c0.7,0.2,1.4,0.7,2.3,1.8c1.9,2.2,2.8,3.3,4.6,5.5c1.4-2.9,2.1-4.4,3.5-7.3c0.7-1.4,1.3-2.3,1.9-2.7
			c0.6-0.4,1.5-0.8,2.7-1c0.9-0.2,1.6-0.1,2.3,0.3c0.6,0.4,1,1,1,2c0.5,8.8,0.6,13.3,0.7,22.2c0,0.6-0.3,1-0.8,1.4
			c-0.6,0.4-1.2,0.6-2,0.8c-0.8,0.1-1.5,0.1-2-0.1c-0.6-0.2-0.9-0.6-0.9-1.2c-0.1-5.5-0.3-8.2-0.6-13.6c-1.3,2.7-2,4-3.3,6.7
			c-0.4,0.8-1,1.3-1.9,1.4c-0.9,0.2-1.5,0-1.9-0.7c-1.6-2.2-2.4-3.3-4.1-5.4c0.5,5.5,0.7,8.2,1,13.8c0,0.5-0.2,1-0.8,1.5
			c-0.5,0.4-1.2,0.7-2,0.9s-1.4,0.2-2,0C-736.8,839.1-737.1,838.7-737.1,838.2z"/>
		<path class="st1" d="M-710.8,833.1c0-9.4-0.1-14.1-0.5-23.4c0-0.5,0.2-0.9,0.6-1.3c0.4-0.4,1-0.7,1.7-0.8c3.3-0.5,5-0.7,8.4-1
			c2.9-0.3,5.2,0.2,7,1.4c1.7,1.3,2.6,3.4,2.5,6.4c0,0.1,0,0.1,0,0.2c-0.1,3-1,5.2-2.8,6.8c-1.8,1.5-4.1,2.4-7,2.6
			c-1.5,0.1-2.3,0.2-3.8,0.4c0,3.2,0,4.8-0.1,8c0,0.6-0.3,1-0.9,1.4c-0.6,0.4-1.3,0.6-2.1,0.7c-0.8,0.1-1.5,0-2-0.2
			C-710.5,834.1-710.8,833.7-710.8,833.1z M-704.9,819.9c1.5-0.2,2.3-0.3,3.9-0.4c2.3-0.2,3.5-1.6,3.6-4.1c0-0.2,0-0.2,0-0.4
			c0-2.5-1.2-3.6-3.6-3.4c-1.6,0.2-2.4,0.3-3.9,0.4C-704.9,815.2-704.9,816.8-704.9,819.9z"/>
		<path class="st1" d="M-689.4,831.4c0.6-9.7,0.8-14.5,1-24.1c0-0.6,0.3-1,1-1.4c0.6-0.3,1.4-0.5,2.2-0.6s1.6,0.1,2.2,0.4
			c0.6,0.3,0.9,0.7,0.9,1.3c-0.3,8.3-0.5,12.5-1.2,20.9c3.5,0,5.2,0,8.7,0.1c0.5,0,0.9,0.3,1.2,0.8c0.3,0.5,0.3,1.2,0.3,1.9
			c-0.1,0.7-0.3,1.3-0.7,1.8c-0.4,0.5-0.8,0.7-1.3,0.7c-4.8-0.2-7.2-0.2-11.9-0.2c-0.7,0-1.3-0.1-1.8-0.4
			C-689.2,832.5-689.4,832-689.4,831.4z"/>
		<path class="st1" d="M-670.8,831.7c1.2-9.8,1.6-14.7,2.3-24.5c0-0.6,0.3-1,0.9-1.3c0.6-0.3,1.2-0.4,2-0.4
			c5.8,0.3,8.7,0.5,14.5,1.1c0.6,0.1,1.1,0.4,1.3,0.9c0.3,0.6,0.3,1.2,0.3,1.9c-0.1,0.8-0.3,1.4-0.7,1.9c-0.4,0.5-0.9,0.7-1.5,0.6
			c-4.3-0.5-6.5-0.7-10.8-1c-0.3,2.6-0.4,3.9-0.7,6.6c2.4,0.2,3.6,0.3,5.9,0.5c0.6,0.1,1,0.3,1.3,0.8c0.3,0.5,0.4,1.1,0.3,1.7
			c-0.1,0.6-0.3,1.1-0.7,1.5c-0.4,0.4-0.9,0.6-1.5,0.6c-2.3-0.2-3.5-0.3-5.8-0.5c-0.3,2.6-0.5,4-0.8,6.6c4.1,0.3,6.2,0.6,10.2,1.1
			c0.6,0.1,1,0.4,1.2,1c0.2,0.6,0.3,1.2,0.2,2c-0.1,0.7-0.4,1.3-0.8,1.8c-0.4,0.5-0.9,0.7-1.4,0.6c-5.3-0.7-8-1-13.4-1.4
			c-0.7-0.1-1.3-0.3-1.7-0.6C-670.6,832.8-670.8,832.3-670.8,831.7z"/>
		<path class="st1" d="M-651.2,830.9c0.1-0.7,0.5-1.4,1.1-2.1c0.6-0.7,1.3-0.9,2-0.8c0.4,0.1,0.8,0.3,1.2,0.7
			c0.4,0.4,0.8,0.8,1.1,1.3c0.3,0.5,0.8,0.9,1.5,1.3c0.6,0.4,1.4,0.7,2.1,0.9c1,0.2,1.9,0.1,2.7-0.1c0.8-0.3,1.3-0.9,1.5-1.7
			c0.2-0.9-0.1-1.7-0.8-2.5c-0.7-0.8-1.6-1.6-2.7-2.4c-1.1-0.8-2.2-1.6-3.3-2.4s-2-2-2.7-3.3c-0.7-1.4-0.9-2.9-0.6-4.6
			c0.4-2.8,1.7-4.7,3.9-5.8c2.2-1.1,4.8-1.4,7.6-0.9c0.7,0.1,1.4,0.3,2.2,0.5c0.8,0.2,1.6,0.5,2.5,1c0.9,0.4,1.6,1,2.1,1.6
			c0.5,0.6,0.7,1.3,0.6,2.1c-0.1,0.7-0.5,1.4-1.1,2c-0.6,0.7-1.2,0.9-2,0.7c-0.3-0.1-0.9-0.5-1.9-1.2c-0.9-0.7-2-1.2-3.3-1.4
			c-1.3-0.2-2.4-0.2-3.1,0.2c-0.7,0.3-1.2,0.9-1.3,1.5c-0.1,0.6,0.1,1.2,0.7,1.8c0.5,0.6,1.2,1.2,2.1,1.7c0.9,0.5,1.8,1.2,2.8,1.9
			c1,0.8,1.9,1.6,2.6,2.5c0.8,0.9,1.3,2,1.7,3.3c0.4,1.3,0.4,2.8,0,4.4c-0.6,2.7-1.9,4.6-4,5.7c-2,1.1-4.4,1.4-7.2,0.8
			c-2.4-0.5-4.4-1.4-6-2.7C-650.7,833.5-651.4,832.2-651.2,830.9z"/>
		<path class="st1" d="M-625.7,839.9c1.8-7.4,2.7-11,4.3-18.4c0.1-0.4,0.4-0.7,0.8-0.9c0.4-0.1,0.9-0.1,1.5,0c4,1.1,5.9,1.7,9.9,2.9
			c0.4,0.1,0.7,0.4,0.8,0.9c0.1,0.5,0.1,1,0,1.5c-0.1,0.6-0.4,1-0.7,1.3c-0.3,0.3-0.7,0.4-1.1,0.3c-2.9-1-4.3-1.4-7.3-2.2
			c-0.5,2-0.7,3-1.2,4.9c1.7,0.5,2.5,0.8,4.2,1.3c0.4,0.1,0.7,0.4,0.8,0.8c0.1,0.4,0.1,0.9,0,1.4c-0.1,0.4-0.3,0.8-0.6,1.1
			c-0.3,0.3-0.7,0.3-1.1,0.2c-1.7-0.5-2.5-0.8-4.1-1.3c-0.7,3-1.1,4.5-1.9,7.5c-0.1,0.4-0.4,0.7-0.9,0.8c-0.5,0.1-1,0.1-1.6-0.1
			c-0.6-0.2-1-0.4-1.4-0.8C-625.6,840.7-625.8,840.3-625.7,839.9z"/>
		<path class="st1" d="M-610.8,838.9c0.9-3.1,1.3-4.6,2.1-7.7c0.6-2.4,1.7-3.9,3.2-4.6c1.5-0.7,3.3-0.6,5.4,0.1
			c2.1,0.8,3.6,2,4.5,3.6c0.9,1.6,1,3.6,0.3,6c-0.9,3.1-1.4,4.6-2.4,7.7c-0.7,2.4-1.9,3.8-3.4,4.4c-1.5,0.6-3.2,0.5-5.2-0.3
			c-1.9-0.8-3.3-1.9-4.2-3.5C-611.3,843.2-611.4,841.3-610.8,838.9z M-606.6,840.4c-0.6,1.9-0.1,3.2,1.5,3.8c1.6,0.6,2.7,0,3.3-1.9
			c0.9-3.1,1.4-4.6,2.3-7.7c0.6-1.9,0-3.3-1.6-3.9c-1.6-0.6-2.7,0.1-3.3,2C-605.2,835.8-605.7,837.4-606.6,840.4z"/>
		<path class="st1" d="M-596.8,850.5c2.5-7.4,3.6-11.1,5.9-18.5c0.1-0.4,0.3-0.6,0.7-0.8c0.3-0.2,0.7-0.2,1.1,0
			c2.3,1,3.4,1.5,5.6,2.6c4.4,2.1,5.9,5.4,4.4,9.5c-1.1,3-2.8,4.4-5.2,4.3c0.4,3.2,0.5,4.8,0.8,8.1c0,0.2,0,0.4-0.1,0.6
			c-0.2,0.6-0.7,0.9-1.4,1.2c-0.7,0.2-1.4,0.2-1.9-0.1c-0.6-0.3-0.9-0.8-0.9-1.5c-0.3-3.8-0.4-5.7-0.8-9.5c-0.7-0.3-1-0.5-1.7-0.8
			c-0.9,2.8-1.4,4.2-2.4,7c-0.2,0.4-0.5,0.7-0.9,0.7c-0.5,0.1-1-0.1-1.5-0.3c-0.5-0.3-1-0.6-1.3-1
			C-596.9,851.4-596.9,850.9-596.8,850.5z M-589.2,841.9c1,0.5,1.6,0.7,2.6,1.2c0.8,0.4,1.4,0.5,2,0.2c0.5-0.2,1-0.8,1.3-1.8
			c0.3-1,0.4-1.8,0.1-2.4c-0.3-0.6-0.8-1.1-1.6-1.5c-1.1-0.5-1.6-0.8-2.6-1.3C-588.2,838.6-588.5,839.7-589.2,841.9z"/>
		<path class="st1" d="M-571.5,842.3c0.2-0.5,0.5-0.9,0.8-1.2c0.3-0.3,0.7-0.3,1.1-0.1c4.5,2.6,6.7,3.9,11,6.8
			c0.4,0.3,0.6,0.6,0.6,1.2c0,0.5,0,1-0.3,1.6c-0.2,0.6-0.5,1-0.9,1.2c-0.4,0.2-0.7,0.2-1.1,0c-1.4-0.9-2.1-1.4-3.4-2.3
			c-2.5,6.4-3.8,9.5-6.5,15.8c-0.2,0.4-0.5,0.7-1,0.7c-0.5,0-1-0.2-1.5-0.5c-0.5-0.3-0.9-0.7-1.2-1.2c-0.3-0.5-0.3-0.9-0.1-1.4
			c2.6-6.3,3.8-9.5,6.3-15.9c-1.4-0.9-2.1-1.3-3.5-2.1c-0.4-0.2-0.6-0.6-0.7-1.1C-571.7,843.5-571.7,842.9-571.5,842.3z"/>
		<path class="st1" d="M-564.1,869.5c3.2-7.3,4.8-11,7.8-18.4c0.2-0.4,0.5-0.7,1-0.6c0.5,0,1,0.2,1.5,0.6c0.5,0.4,0.9,0.8,1.2,1.3
			c0.3,0.5,0.3,1,0.1,1.4c-1.2,2.8-1.8,4.3-3,7.1c1.9,1.4,2.8,2.1,4.7,3.6c1.3-2.8,1.9-4.2,3.2-7.1c0.2-0.4,0.5-0.6,1-0.6
			c0.5,0.1,1,0.3,1.5,0.7c0.5,0.4,0.9,0.9,1.1,1.4c0.3,0.5,0.3,1,0.1,1.5c-3.3,7.4-5,11-8.6,18.2c-0.2,0.4-0.5,0.6-1,0.6
			c-0.5,0-0.9-0.3-1.4-0.7c-0.5-0.4-0.8-0.8-1.1-1.4c-0.2-0.5-0.2-1,0-1.4c1.5-3.1,2.2-4.6,3.6-7.8c-1.8-1.5-2.8-2.2-4.6-3.6
			c-1.4,3.1-2.1,4.7-3.5,7.8c-0.2,0.4-0.5,0.6-1,0.6c-0.5,0-0.9-0.2-1.4-0.6c-0.5-0.4-0.9-0.8-1.1-1.3
			C-564.3,870.4-564.3,869.9-564.1,869.5z"/>
		<path class="st1" d="M-550.2,880.6c3.6-7.2,5.3-10.9,8.7-18.2c0.2-0.4,0.5-0.7,0.9-0.6c0.4,0,0.8,0.2,1.3,0.6
			c3.3,2.8,4.9,4.3,8.1,7.3c0.3,0.3,0.5,0.8,0.5,1.3c0,0.6-0.2,1.1-0.4,1.6c-0.3,0.6-0.6,0.9-1,1.1c-0.4,0.2-0.7,0.2-1-0.2
			c-2.3-2.3-3.5-3.4-6-5.5c-0.9,1.9-1.4,2.9-2.3,4.8c1.3,1.2,2,1.8,3.3,3c0.3,0.3,0.5,0.7,0.5,1.2s-0.1,1-0.4,1.5
			c-0.2,0.4-0.5,0.7-0.9,0.9c-0.3,0.2-0.7,0.1-1-0.2c-1.3-1.2-1.9-1.8-3.3-3c-1,1.9-1.4,2.9-2.4,4.8c2.3,2.1,3.4,3.2,5.7,5.5
			c0.3,0.3,0.4,0.7,0.4,1.3c0,0.6-0.2,1.1-0.5,1.6c-0.3,0.5-0.6,0.9-1,1.1c-0.4,0.2-0.7,0.2-1-0.2c-2.9-3-4.4-4.4-7.5-7.2
			c-0.4-0.4-0.7-0.8-0.9-1.3C-550.4,881.5-550.4,881.1-550.2,880.6z"/>
	</g>
	<g class="st0">
		<path class="st1" d="M-797.7,900.3c-1.5-5.8-2.3-8.6-4-14.2c-0.1-0.3,0-0.6,0.1-1c0.2-0.4,0.4-0.7,0.8-0.9
			c1.8-1.2,2.7-1.8,4.5-2.9c1.6-1,2.9-1.3,4.1-1c1.2,0.3,2,1.4,2.4,3.2c0,0,0,0.1,0,0.1c0.4,1.8,0.3,3.5-0.5,4.9
			c-0.8,1.4-1.9,2.6-3.5,3.6c-0.8,0.5-1.2,0.8-2.1,1.3c0.5,2,0.7,3,1.2,4.9c0.1,0.4,0,0.7-0.3,1.1c-0.3,0.4-0.6,0.7-1,1
			c-0.4,0.3-0.8,0.4-1.2,0.4C-797.4,900.8-797.6,900.6-797.7,900.3z M-796.5,890.6c0.8-0.5,1.2-0.8,2.1-1.3c1.3-0.8,1.7-1.9,1.3-3.5
			c0-0.1,0-0.2-0.1-0.3c-0.4-1.5-1.2-1.9-2.5-1.1c-0.9,0.5-1.3,0.8-2.1,1.3C-797.2,887.7-797,888.6-796.5,890.6z"/>
		<path class="st1" d="M-786,893.2c-1.2-6-1.8-9-3.3-14.9c-0.1-0.3,0-0.6,0.1-0.9s0.4-0.6,0.7-0.8c1.9-1.1,2.8-1.6,4.7-2.6
			c3.7-2,6-1.2,6.6,2.3c0.5,2.5-0.2,4.6-1.8,6.2c1.5,1.6,2.2,2.4,3.6,4.1c0.1,0.1,0.1,0.2,0.2,0.4c0.1,0.5-0.1,1-0.5,1.7
			c-0.4,0.6-0.8,1.1-1.3,1.3c-0.5,0.2-0.9,0.2-1.2-0.2c-1.6-2-2.4-3-4.1-4.9c-0.6,0.3-0.9,0.5-1.4,0.8c0.5,2.3,0.7,3.4,1.1,5.7
			c0.1,0.4,0,0.7-0.3,1.1c-0.3,0.4-0.7,0.7-1.1,0.9c-0.4,0.2-0.9,0.4-1.2,0.3C-785.7,893.7-785.9,893.6-786,893.2z M-784.4,882.8
			c0.9-0.5,1.3-0.7,2.2-1.2c0.6-0.3,1.1-0.8,1.4-1.3c0.3-0.5,0.3-1.2,0.2-2c-0.2-0.8-0.4-1.3-0.9-1.4s-1-0.1-1.6,0.3
			c-0.9,0.5-1.3,0.7-2.2,1.2C-784.9,880.2-784.7,881.1-784.4,882.8z"/>
		<path class="st1" d="M-773.5,886.8c-0.9-6.2-1.4-9.3-2.5-15.5c-0.1-0.4,0-0.7,0.3-1.1c0.3-0.3,0.6-0.6,1.1-0.8
			c3.3-1.6,5-2.3,8.4-3.7c0.4-0.2,0.7-0.1,0.9,0.2c0.2,0.3,0.4,0.6,0.5,1.1c0.1,0.5,0,0.9-0.1,1.3c-0.2,0.4-0.4,0.7-0.7,0.8
			c-2.5,1-3.8,1.6-6.3,2.7c0.3,1.7,0.4,2.5,0.7,4.1c1.4-0.6,2.1-0.9,3.4-1.5c0.3-0.1,0.6-0.1,0.9,0.1c0.2,0.2,0.4,0.5,0.4,1
			c0,0.4,0,0.8-0.1,1.1c-0.1,0.4-0.4,0.6-0.7,0.8c-1.4,0.6-2.1,0.9-3.4,1.5c0.2,1.7,0.4,2.5,0.6,4.2c2.4-1,3.6-1.6,6-2.5
			c0.3-0.1,0.6-0.1,0.8,0.2c0.2,0.3,0.4,0.6,0.4,1.1c0,0.5,0,0.9-0.2,1.3c-0.1,0.4-0.4,0.7-0.7,0.8c-3.2,1.3-4.8,1.9-7.9,3.3
			c-0.4,0.2-0.8,0.2-1.1,0.2C-773.2,887.4-773.4,887.2-773.5,886.8z"/>
		<path class="st1" d="M-762.5,880.3c0-0.5,0.1-1,0.3-1.6c0.3-0.6,0.6-1,1-1.1c0.2-0.1,0.5-0.1,0.8,0c0.3,0.1,0.6,0.2,0.8,0.4
			c0.3,0.2,0.6,0.3,1.1,0.3c0.4,0.1,0.9,0,1.4-0.2c0.6-0.2,1.1-0.5,1.5-1c0.4-0.4,0.6-0.9,0.6-1.5c0-0.6-0.3-1-0.9-1.2
			c-0.5-0.3-1.2-0.4-1.9-0.5c-0.8-0.1-1.5-0.2-2.3-0.4c-0.8-0.2-1.5-0.5-2.1-1.1c-0.6-0.6-1-1.4-1.1-2.5c-0.2-1.8,0.2-3.3,1.3-4.7
			c1.1-1.3,2.5-2.3,4.2-3c0.4-0.2,0.9-0.3,1.3-0.4c0.5-0.1,1-0.2,1.6-0.2c0.6-0.1,1.1,0,1.5,0.2c0.4,0.2,0.6,0.6,0.7,1
			c0,0.5-0.1,1-0.3,1.5c-0.2,0.6-0.6,0.9-1,1.1c-0.2,0.1-0.6,0-1.3-0.1c-0.7-0.1-1.4,0-2.1,0.2c-0.8,0.3-1.4,0.7-1.7,1.1
			c-0.4,0.4-0.5,0.9-0.5,1.3c0,0.4,0.3,0.7,0.7,0.9c0.4,0.2,0.9,0.3,1.5,0.3c0.6,0,1.2,0.1,1.9,0.3c0.7,0.1,1.3,0.3,1.9,0.6
			c0.6,0.3,1.1,0.7,1.5,1.4c0.4,0.7,0.7,1.5,0.7,2.5c0.1,1.8-0.3,3.3-1.3,4.7c-1,1.3-2.3,2.3-4,2.9c-1.5,0.5-2.8,0.6-3.9,0.4
			C-761.8,881.7-762.4,881.1-762.5,880.3z"/>
		<path class="st1" d="M-749.3,877.6c-0.3-6.6-0.5-9.9-1.1-16.4c0-0.4,0.1-0.8,0.4-1.1c0.3-0.3,0.7-0.5,1.2-0.7
			c3.5-1.1,5.3-1.6,8.9-2.5c0.4-0.1,0.7,0,0.9,0.3c0.2,0.3,0.3,0.7,0.4,1.2c0,0.5-0.1,1-0.3,1.4c-0.2,0.4-0.5,0.7-0.8,0.7
			c-2.7,0.7-4,1-6.6,1.8c0.1,1.8,0.2,2.6,0.3,4.4c1.4-0.4,2.2-0.6,3.6-1c0.4-0.1,0.6,0,0.9,0.2c0.2,0.3,0.3,0.6,0.3,1
			c0,0.4-0.1,0.8-0.3,1.2c-0.2,0.4-0.5,0.6-0.8,0.7c-1.4,0.4-2.2,0.6-3.6,1c0.1,1.8,0.1,2.7,0.2,4.4c2.5-0.7,3.8-1.1,6.3-1.7
			c0.3-0.1,0.6,0,0.8,0.3c0.2,0.3,0.3,0.7,0.3,1.2c0,0.5-0.1,0.9-0.3,1.3c-0.2,0.4-0.5,0.6-0.8,0.7c-3.3,0.8-5,1.3-8.3,2.2
			c-0.4,0.1-0.8,0.1-1.1,0C-749.1,878.3-749.3,878-749.3,877.6z"/>
		<path class="st1" d="M-736.7,874.3c0-6.8-0.1-10.1-0.4-16.8c0-0.4,0.2-0.8,0.5-1.1c0.4-0.3,0.8-0.5,1.4-0.7c0.8-0.2,1.3-0.2,1.7,0
			c0.4,0.1,0.8,0.6,1.3,1.5c1.7,2.9,2.5,4.4,4.1,7.4c0-3.7,0-5.5,0-9.1c0-0.4,0.2-0.8,0.6-1.1c0.4-0.3,0.9-0.5,1.4-0.6
			c0.5-0.1,1-0.1,1.4,0.1c0.4,0.1,0.6,0.4,0.6,0.8c0,6.8-0.1,10.3-0.4,17.2c0,0.4-0.2,0.8-0.6,1.1c-0.4,0.3-0.8,0.5-1.3,0.6
			c-1,0.2-1.7-0.1-2.1-0.8c-1.7-3.4-2.6-5.1-4.5-8.3c0,3.6,0,5.4,0,9.1c0,0.4-0.2,0.8-0.6,1.1c-0.4,0.3-0.8,0.5-1.3,0.6
			c-0.5,0.1-0.9,0.1-1.3,0C-736.5,875-736.7,874.7-736.7,874.3z"/>
		<path class="st1" d="M-722.5,855c0-0.5,0.1-0.9,0.3-1.3c0.2-0.4,0.5-0.6,0.9-0.7c4.4-0.7,6.7-1,11.2-1.5c0.4,0,0.7,0.1,0.9,0.5
			c0.2,0.3,0.3,0.8,0.2,1.3c0,0.5-0.2,1-0.4,1.4c-0.2,0.4-0.5,0.6-0.9,0.6c-1.4,0.1-2.1,0.2-3.5,0.4c-0.2,6-0.4,9-0.8,15
			c0,0.4-0.2,0.8-0.6,1c-0.4,0.3-0.8,0.4-1.4,0.5c-0.5,0.1-1,0-1.3-0.2c-0.4-0.2-0.5-0.5-0.5-0.9c0.3-6,0.5-8.9,0.6-14.9
			c-1.4,0.2-2.1,0.3-3.5,0.5c-0.4,0.1-0.7-0.1-0.9-0.4C-722.4,856-722.5,855.5-722.5,855z"/>
		<path class="st1" d="M-702.3,869.4c0.9-8.6,1.3-13,1.9-21.6c0-0.5,0.3-0.9,0.7-1.2c0.5-0.3,1-0.5,1.6-0.5
			c4.5-0.2,6.8-0.3,11.3-0.3c0.5,0,0.9,0.2,1.1,0.7c0.2,0.5,0.3,1,0.2,1.6c-0.1,0.7-0.3,1.2-0.6,1.7c-0.3,0.5-0.7,0.7-1.2,0.7
			c-3.3,0-5,0-8.3,0.1c-0.2,2.3-0.3,3.5-0.5,5.8c1.9-0.1,2.9-0.1,4.8-0.1c0.5,0,0.8,0.2,1,0.6c0.2,0.4,0.3,0.9,0.2,1.5
			c-0.1,0.5-0.2,1-0.5,1.4c-0.3,0.4-0.7,0.6-1.2,0.6c-1.9,0-2.8,0-4.7,0.1c-0.4,3.5-0.6,5.3-1,8.8c-0.1,0.5-0.3,0.9-0.8,1.2
			c-0.5,0.3-1.1,0.4-1.7,0.5c-0.6,0-1.2-0.1-1.6-0.4C-702.1,870.3-702.3,869.9-702.3,869.4z"/>
		<path class="st1" d="M-685.8,863.1c0.9-6.3,1.3-9.4,2.1-15.6c0.1-0.5,0.4-0.9,0.9-1.2c0.5-0.3,1.1-0.4,1.9-0.4
			c0.7,0,1.3,0.2,1.7,0.5c0.5,0.3,0.7,0.7,0.6,1.2c-0.8,6.3-1.3,9.4-2.3,15.7c-0.4,2.3,0.4,3.5,2.4,3.7c2,0.2,3.2-0.9,3.6-3.2
			c1.1-6.3,1.6-9.5,2.6-15.8c0.1-0.5,0.4-0.9,0.9-1.2c0.5-0.2,1.2-0.3,1.9-0.3c0.7,0.1,1.3,0.3,1.7,0.6c0.5,0.3,0.6,0.8,0.6,1.3
			c-1,6.3-1.6,9.5-2.8,15.8c-0.5,2.8-1.7,4.8-3.3,6c-1.7,1.2-3.6,1.6-5.9,1.4c-2.3-0.2-4-1-5.2-2.3
			C-685.8,867.9-686.2,865.9-685.8,863.1z"/>
		<path class="st1" d="M-665.6,849.3c0.1-0.6,0.3-1.2,0.7-1.6c0.3-0.4,0.8-0.6,1.3-0.6c5.6,0.7,8.5,1.1,14.1,2.1
			c0.5,0.1,0.8,0.4,1,0.9c0.2,0.5,0.2,1.1,0,1.7c-0.2,0.7-0.4,1.2-0.8,1.6c-0.4,0.4-0.8,0.6-1.3,0.5c-1.8-0.3-2.6-0.5-4.4-0.8
			c-1.6,7.7-2.5,11.5-4.3,19.1c-0.1,0.5-0.5,0.9-1,1.1c-0.5,0.2-1.1,0.3-1.8,0.1c-0.6-0.1-1.2-0.4-1.6-0.7c-0.4-0.4-0.5-0.8-0.4-1.4
			c1.7-7.6,2.5-11.4,4-19.1c-1.8-0.3-2.7-0.4-4.4-0.6c-0.5-0.1-0.8-0.3-1-0.8C-665.6,850.6-665.7,850-665.6,849.3z"/>
		<path class="st1" d="M-650.4,867.6c1.6-6.4,2.4-9.5,3.8-15.9c0.1-0.5,0.5-0.9,1-1.1c0.5-0.2,1.2-0.2,1.9,0
			c0.7,0.2,1.2,0.4,1.7,0.8c0.4,0.4,0.6,0.9,0.4,1.4c-1.5,6.4-2.4,9.6-4.1,16c-0.6,2.3,0,3.7,1.9,4.3c1.9,0.5,3.2-0.4,3.9-2.7
			c1.8-6.4,2.7-9.6,4.4-16c0.1-0.5,0.5-0.9,1-1c0.6-0.2,1.2-0.1,1.9,0.1c0.7,0.2,1.2,0.5,1.6,0.9c0.4,0.4,0.5,0.9,0.4,1.5
			c-1.8,6.4-2.7,9.6-4.6,16c-0.9,2.9-2.2,4.7-4,5.6c-1.8,0.9-3.8,1-6,0.4c-2.3-0.6-3.9-1.7-4.9-3.4
			C-650.9,872.6-651.1,870.4-650.4,867.6z"/>
		<path class="st1" d="M-633.9,879.1c2.9-8.9,4.2-13.4,6.8-22.4c0.1-0.4,0.4-0.8,0.8-1c0.4-0.2,0.8-0.3,1.2-0.1
			c2.6,0.8,3.9,1.3,6.5,2.2c5.1,1.9,6.8,5.5,5.1,10.5c-1.3,3.7-3.3,5.5-6.1,5.6c0.4,3.7,0.5,5.5,0.8,9.2c0,0.2,0,0.4-0.1,0.7
			c-0.3,0.7-0.8,1.2-1.6,1.5c-0.8,0.3-1.6,0.4-2.2,0.1c-0.7-0.3-1-0.8-1.1-1.6c-0.2-4.4-0.4-6.5-0.8-10.9c-0.8-0.3-1.2-0.4-2-0.7
			c-1.1,3.4-1.7,5.1-2.8,8.4c-0.2,0.5-0.5,0.9-1.1,1c-0.5,0.1-1.1,0.1-1.7-0.1c-0.6-0.2-1.1-0.6-1.5-1
			C-634,880.1-634.1,879.6-633.9,879.1z M-625.2,868c1.2,0.4,1.8,0.6,3,1.1c0.9,0.3,1.6,0.3,2.3,0c0.6-0.3,1.1-1.1,1.5-2.2
			c0.4-1.2,0.4-2.1,0.1-2.8c-0.3-0.7-0.9-1.2-1.8-1.5c-1.2-0.5-1.8-0.7-3.1-1.1C-624,864.1-624.4,865.4-625.2,868z"/>
		<path class="st1" d="M-617.1,885.8c3.4-8.8,5-13.3,8-22.3c0.2-0.5,0.5-0.9,1-1c0.5-0.1,1-0.1,1.6,0.2c4.3,1.9,6.5,3,10.7,5.2
			c0.5,0.2,0.7,0.7,0.8,1.3c0.1,0.6,0,1.2-0.3,1.8c-0.3,0.7-0.6,1.2-1,1.5c-0.4,0.3-0.9,0.4-1.3,0.2c-3.1-1.7-4.7-2.4-7.9-3.9
			c-0.9,2.4-1.3,3.6-2.2,5.9c1.8,0.8,2.6,1.3,4.4,2.2c0.4,0.2,0.7,0.6,0.8,1.1c0.1,0.5,0,1.1-0.2,1.7c-0.2,0.5-0.5,1-0.9,1.3
			c-0.4,0.3-0.8,0.3-1.2,0.1c-1.7-0.9-2.6-1.3-4.3-2.1c-0.9,2.4-1.4,3.6-2.3,5.9c3,1.5,4.5,2.3,7.5,3.9c0.4,0.2,0.6,0.6,0.7,1.2
			c0,0.6-0.1,1.2-0.4,1.9c-0.3,0.6-0.6,1.1-1,1.4s-0.8,0.4-1.3,0.2c-3.9-2.2-5.9-3.2-9.9-5.1c-0.5-0.2-0.9-0.6-1.2-1.1
			C-617.2,886.8-617.3,886.3-617.1,885.8z"/>
	</g>
</g>
</svg>
