<svg xmlns="http://www.w3.org/2000/svg" class="mg_logo_svg" viewBox="0 0 1800 400">
  <path d="M0 0h1800v400H0z"/>
  <path fill="#00e300" d="M210 342.6c-21.3 0-41.1-3.4-59-10s-34.3-16.7-48.6-30c-13.8-12.6-24.8-28.1-32.7-46-7.9-18-12-36.8-12-56 0-18.9 2.1-35.5 6.3-49.6 4.2-14 9.9-26.8 17.1-38.2C88.8 101.1 97.8 90.7 108 82c8.1-6.9 17.1-12.9 26.8-17.8 3.7-2.3 7.9-3.5 12.3-3.5 12.7 0 23.1 10.3 23.1 23.1 0 9.6-6 18.2-14.9 21.6-2 1.1-4.1 2.2-6.4 3.3-11.8 6-25.8 19.9-33.3 32.9-8 14.1-12.1 30.4-12.1 48.4 0 18.3 2.8 34.1 8.2 46.8 5.4 12.7 13 23.5 22.4 32.2 19.6 18 45.2 27.2 76 27.2 31.1 0 56.6-9 76-26.8 20.3-18.7 30.6-44 30.6-75.1 0-24.9-7.8-46.7-23.1-64.6-14.4-17-33.3-26.4-56.2-28v96.5c0 12-9.7 21.7-21.7 21.7-11.6 0-21.3-9.3-21.7-20.9-.1-.4-.1-.8-.1-1.2v-133c0-4 3.2-7.2 7.2-7.2h139.6c11.8.3 21.4 10.1 21.4 22 0 12-9.7 21.8-21.7 22h-17.9c5.8 5.4 11.1 11.3 15.7 17.6 8.7 11.9 15.3 25.6 19.6 40.8v.1c3 11.1 4.5 25.8 4.5 43.6 0 18.2-4 36.5-11.9 54.5s-19 33.5-32.8 46c-14 12.9-30.3 22.6-48.2 29.1-17.9 6.1-37.8 9.3-59.4 9.3zm-2.1-58.3c-12.3 0-24.2-2.3-35.4-7-21.4-8.9-37.2-25.2-44.4-45.9-.1-.3-.2-.6-.2-.9-.1-.3-.3-.7-.4-1-3.8-11.1 2-23.2 13.1-27.1 2.3-.8 4.6-1.2 7-1.2 9.1 0 17.1 5.8 20.1 14.3.1.4.3.8.4 1.3l.3.6c5.7 16.4 22 27 41.5 27 5.9 0 11.9-1 17.6-3 25-8.7 39.2-33.6 31.6-55.4-.1-.3-.2-.6-.2-.8-.1-.4-.3-.7-.4-1.1-1.9-5.4-1.5-11.1 1-16.3 2.5-5.1 6.8-9 12.2-10.8 2.3-.8 4.6-1.2 7-1.2 9.1 0 17.1 5.8 20.1 14.3.1.4.3.8.4 1.2.1.2.2.5.3.7 7.2 20.7 4.9 43.3-6.4 63.5-11.2 20-29.8 35.3-52.5 43.2-10.7 3.8-21.7 5.6-32.7 5.6zM153 188.9c-14.8 0-26.8-12-26.8-26.8s12-26.8 26.8-26.8 26.8 12 26.8 26.8-12 26.8-26.8 26.8z"/>
  <path d="M340.2 61.4c9.8.1 17.8 8.1 17.8 18s-8 18-18 18H311.6c9 7 16.8 15.1 23.3 24 8.4 11.5 14.8 24.8 19 39.5 2.9 10.8 4.4 25.1 4.4 42.6 0 17.6-3.9 35.4-11.6 52.9-7.7 17.4-18.4 32.5-31.8 44.7-13.7 12.5-29.4 22-46.9 28.3-17.4 6.2-36.9 9.4-58 9.4-20.8 0-40.2-3.3-57.6-9.7-17.4-6.5-33.3-16.3-47.3-29.2-13.4-12.2-24.1-27.3-31.8-44.7-7.7-17.4-11.6-35.7-11.6-54.4 0-18.5 2.1-34.8 6.1-48.4 4.1-13.6 9.7-26.1 16.6-37.2 7.4-11.5 16.2-21.6 26.1-30 7.9-6.7 16.7-12.5 26.2-17.4 3-1.9 6.5-3 10.3-3 10.5 0 19.1 8.5 19.1 19.1 0 8.3-5.2 15.3-12.6 17.9-2 1.1-4.1 2.2-6.5 3.4-11.8 6-26.6 19.8-34.9 34.5-8.4 14.7-12.6 31.7-12.6 50.4 0 18.9 2.9 35.1 8.5 48.4 5.6 13.2 13.5 24.5 23.4 33.5 20.4 18.7 46.9 28.2 78.7 28.2 32.1 0 58.6-9.4 78.7-27.8 21.2-19.5 31.9-45.8 31.9-78.1 0-25.9-8.1-48.5-24-67.2-16-18.9-37.3-28.9-63.2-29.6V198.2c0 9.8-7.9 17.7-17.7 17.7-9.7 0-17.5-7.7-17.7-17.4-.1-.2-.1-.5-.1-.8v-133c0-1.8 1.4-3.2 3.2-3.2h139M153 139.2c12.6 0 22.8 10.2 22.8 22.8 0 12.6-10.2 22.8-22.8 22.8-12.6 0-22.8-10.2-22.8-22.8 0-12.6 10.2-22.8 22.8-22.8m125.7 20.6c7.2 0 13.9 4.5 16.3 11.6.2.4.3.9.4 1.3l.3.6c6.8 19.6 4.6 41-6.1 60.3-10.7 19.1-28.6 33.8-50.4 41.4-10.3 3.6-20.9 5.4-31.3 5.4-11.7 0-23.2-2.2-33.8-6.7-20.3-8.5-35.3-23.9-42.1-43.6-.1-.2-.1-.5-.2-.7-.2-.4-.3-.8-.5-1.2-3.1-9 1.6-18.9 10.7-22 1.9-.6 3.8-1 5.7-1 7.2 0 13.9 4.5 16.3 11.6.2.5.3.9.4 1.4.1.2.2.3.2.5 6.4 18.4 24.8 29.7 45.3 29.7 6.2 0 12.6-1 18.9-3.2 27.1-9.4 42.4-36.6 34.1-60.5-.1-.2-.1-.4-.2-.7-.2-.4-.3-.8-.5-1.2-3.1-9 1.6-18.9 10.7-22 2-.7 3.9-1 5.8-1m61.5-106.4H201c-6.2 0-11.2 5-11.2 11.2v133c0 .5 0 1.1.1 1.6.3 6.5 3 12.6 7.7 17.1 4.8 4.7 11.2 7.4 18 7.4 14.2 0 25.7-11.5 25.7-25.7v-.2V106c19.8 2.3 36.3 11.1 49.1 26.2 14.7 17.2 22.1 38.1 22.1 62.1 0 30-9.9 54.2-29.3 72.2-18.6 17-43.2 25.7-73.2 25.7-29.7 0-54.4-8.8-73.3-26.1-9-8.3-16.3-18.7-21.4-30.8-5.2-12.2-7.9-27.4-7.9-45.2 0-17.3 3.9-32.9 11.6-46.4 8-14.1 22-26.4 31.6-31.3 2.2-1.1 4.3-2.2 6.3-3.3 10.3-4 17.2-14.1 17.2-25.2 0-14.9-12.1-27.1-27.1-27.1-5.1 0-10 1.4-14.2 4.1-9.9 5.1-19.1 11.2-27.4 18.2-10.5 8.9-19.8 19.6-27.6 31.8v.1c-7.4 11.7-13.3 24.9-17.5 39.2-4.3 14.4-6.5 31.5-6.5 50.7 0 19.7 4.1 39.1 12.3 57.6 8.2 18.5 19.5 34.4 33.7 47.4 14.7 13.6 31.5 24 49.9 30.8 18.3 6.8 38.6 10.2 60.4 10.2 22 0 42.4-3.3 60.7-9.9 18.4-6.6 35.1-16.7 49.6-29.9 14.2-13 25.6-28.9 33.7-47.4 8.2-18.5 12.3-37.3 12.3-56.1 0-18.2-1.6-33.2-4.7-44.6v-.1-.1c-4.5-15.6-11.3-29.7-20.2-42-2.8-3.9-5.9-7.7-9.3-11.3h8.4c14.1-.3 25.5-11.8 25.5-26 0-14-11.2-25.5-25.1-25.9-.3-.2-.6-.2-.8-.2zM153 131.2c-17 0-30.8 13.8-30.8 30.8s13.8 30.8 30.8 30.8 30.8-13.8 30.8-30.8c.1-16.9-13.8-30.8-30.8-30.8zm125.7 20.6c-2.8 0-5.6.5-8.3 1.4-6.4 2.2-11.5 6.8-14.5 12.9-2.9 6.1-3.4 12.9-1.1 19.3.1.3.2.6.4 1l.3.9c6.9 19.8-6.2 42.4-29.2 50.4-5.3 1.8-10.8 2.8-16.3 2.8-8.7 0-16.8-2.3-23.6-6.7-6.7-4.3-11.6-10.4-14.1-17.6-.1-.2-.2-.5-.3-.7-.1-.4-.3-.8-.4-1.2-3.5-10.2-13.1-17-23.9-17-2.8 0-5.6.5-8.3 1.4-13.2 4.6-20.2 19-15.6 32.2l.3.9c.1.3.2.7.3 1 7.6 21.8 24.1 39 46.6 48.3 11.6 4.8 24 7.3 36.9 7.3 11.4 0 22.9-1.9 34-5.8 23.7-8.2 43.1-24.2 54.7-45 11.9-21.3 14.2-45 6.7-66.8-.1-.3-.2-.5-.3-.8-.1-.4-.2-.8-.4-1.1-3.5-10.2-13.1-17.1-23.9-17.1z"/>
  <path fill="#00e300" d="M1600.3 197l3.3 128.5-48.3 10.2c-.1-4.5-.2-9.4-.3-14.4-.6-31.3-1.4-70.3-2.2-94.3-.5-13-1-26.4-1.7-39.7-.7-13.5-1.4-26.9-2.2-39.7-.8-12.9-1.7-25.1-2.7-36.2-.8-8.6-1.6-16.4-2.4-23.3l43.3-9.9 92.3 160.8-2.7-31.5c-1.3-15.3-2.8-31.7-4.4-48.5-1.3-14-2.9-29.6-4.7-47.6-1.6-15.5-3.3-30.9-5-46.1l55.2-10.3c1.2 12.1 2.3 24.7 3.2 37.6 1.1 15.5 2.1 31.3 2.9 46.8.8 15.5 1.5 30.9 2 45.9.6 15.3 1.1 29.8 1.5 43.1.8 26.7 1.4 61.9 1.6 95.2l-55 13.5-73.7-140.1z"/>
  <path d="M1711.5 63.2c.9 9.7 1.7 19.7 2.5 29.8 1.1 15.5 2.1 31.2 2.8 46.6.8 15.4 1.5 30.9 2 45.8.6 15.1 1.1 29.6 1.5 43.1.7 25.2 1.3 58 1.6 89.5l-44.3 10.9-57.2-108.7-27.9-53.1 1.5 60 2.4 92.6-34.3 7.2c0-2-.1-4-.1-6-.6-31.3-1.4-70.3-2.2-94.3-.5-13-1-26.4-1.7-39.8-.7-13.5-1.4-26.9-2.2-39.8-.8-12.9-1.7-25.2-2.7-36.4-.6-6.2-1.1-11.9-1.7-17.3l32.1-7.3 74 128.9L1689 270l-5.4-63c-1.3-15.3-2.8-31.6-4.4-48.6-1.3-14-2.9-29.6-4.7-47.7-1.4-13.3-2.8-26.6-4.3-39.7l41.3-7.8m12.4-16.5l-69 12.9c2 17.5 3.9 35 5.7 52.5 1.8 17.5 3.4 33.4 4.7 47.6 1.6 16.6 3 32.8 4.4 48.5l-79.1-137.9-54.6 12.4c1.1 8.3 2.2 18.1 3.2 29.4 1 11.3 1.9 23.3 2.7 36 .8 12.8 1.5 25.9 2.2 39.6.7 13.6 1.2 26.8 1.7 39.6 1.1 30.2 2 84.1 2.7 117l62.3-13.1-2.7-104.3 62.3 118.4 65.7-16.2c-.2-30.8-.8-69.2-1.7-100.9-.5-13.6-1-28-1.5-43.1-.6-15.1-1.2-30.5-2-46-.8-15.6-1.7-31.2-2.9-46.9-1.2-15.9-2.6-31-4.1-45.5z"/>
  <path fill="#00e300" d="M1446.7 337.9c-.3-39.3-2.8-79.7-7.4-120.1-4.8-41.7-13.2-82.1-24.9-120.3l41.3-41.7 110.8 28.9-32.4 39.6-60.7-6.5 2.8 9.9c.9 3.1 1.7 6.8 2.6 11 1.5 7.6 3.6 19.6 6 35.7l.9 6h62.5l-12.2 39.4h-46.5l.5 7.5c.4 6.4.9 13 1.3 19.7.4 6.6.8 14 1 21.8l.2 6.3 82.1 5.7-10 57-15.4-1.7c-6.7-.7-14.3-1.2-22.6-1.7-8.4-.5-16.9-.7-25.3-.7-4.4 0-10.2.2-17.2.7-6.8.5-13.7 1-20.5 1.7h-.2c-5.4.7-11 1.3-16.7 1.8z"/>
  <path d="M1457.8 63.6l96.3 25.1-23.1 28.2-46.7-5-20.5-2.2 5.5 19.9c.8 2.9 1.6 6.4 2.5 10.6 1.5 7.4 3.5 19.3 5.9 35.3l1.8 11.9h59l-7.8 25.4H1482l1 15c.4 6.4.9 13 1.3 19.7.4 6.5.8 13.8 1 21.6l.4 12.7 12.7.9 68 4.7-7.5 42.9-8.8-1h-.2c-6.7-.7-14.4-1.2-22.8-1.7-8.5-.5-17.2-.7-25.7-.7-4.6 0-10.4.2-17.6.8-6.8.5-13.8 1.1-20.7 1.7h-.4c-2.9.4-5.9.7-9 1-.5-37.1-3-75.1-7.4-113.2-4.7-40.7-12.7-80.2-24-117.5l35.5-36.1m-4.3-15.6l-47.1 47.6c12.3 39.1 21 80.1 25.9 123 4.9 42.9 7.4 85.2 7.4 126.9 8.5-.6 16.7-1.4 24.6-2.4 6.7-.6 13.5-1.2 20.4-1.7 6.8-.5 12.4-.7 16.7-.7 8.3 0 16.6.2 24.9.7 8.3.5 15.7 1 22.2 1.7l21.9 2.4 12.5-71.1-83.5-5.8c-.2-8-.6-15.4-1-22.1-.5-6.7-.9-13.3-1.3-19.7h44.1l16.5-53.4h-66c-2.5-16.3-4.5-28.4-6.1-36-.9-4.5-1.8-8.3-2.7-11.5l54.2 5.8 41.8-50.9L1453.5 48z"/>
  <path fill="#00e300" d="M1337.8 335.3c-.3-40-2.8-81.2-7.4-122.3-4.8-42.5-13.2-83.7-25-122.6l41.4-42.5 110.9 29.5-32.6 40.5-60.6-6.6 2.7 9.9c.9 3.1 1.7 6.9 2.6 11.2 1.5 7.7 3.6 19.9 6 36.4l.9 6h62.6L1427 215h-46.4l.5 7.5c.4 6.5.9 13.2 1.3 20 .4 6.7.8 14.2 1 22.2l.2 6.3 82.1 5.8-10 58.3-15.3-1.7c-6.7-.7-14.3-1.3-22.6-1.7-8.4-.5-16.9-.7-25.3-.7-4.4 0-10.2.3-17.2.8-6.8.5-13.7 1.1-20.5 1.7h-.2c-5.5.7-11.1 1.3-16.8 1.8z"/>
  <path d="M1349 55.7l96.5 25.6-23.4 29.1-46.6-5-20.4-2.2 5.4 19.8c.8 3 1.6 6.6 2.5 10.8 1.5 7.6 3.5 19.7 5.9 36l1.8 11.9h59.2l-8 26.3h-48.7l1 15c.4 6.5.9 13.2 1.3 20 .4 6.7.8 14.1 1 22l.4 12.7 12.7.9 68.1 4.8-7.6 44.2-8.8-1h-.2c-6.7-.7-14.4-1.3-22.8-1.8-8.5-.5-17.2-.8-25.7-.8-4.6 0-10.4.3-17.7.8-6.8.5-13.8 1.1-20.7 1.7h-.4c-2.9.4-5.9.7-9 1-.5-37.9-3-76.6-7.4-115.4-4.7-41.4-12.8-81.7-24-119.8l35.6-36.6m-4.4-15.7l-47.1 48.4c12.3 39.8 21 81.5 25.9 125.2 4.9 43.7 7.4 86.8 7.4 129.2 8.5-.6 16.7-1.5 24.6-2.4 6.7-.6 13.5-1.2 20.4-1.7 6.8-.5 12.4-.7 16.7-.7 8.3 0 16.6.2 24.9.7 8.3.5 15.7 1.1 22.2 1.7l21.9 2.4 12.5-72.4-83.5-5.9c-.2-8.1-.6-15.7-1-22.5-.5-6.8-.9-13.5-1.3-20.1h44.1l16.5-54.3h-66c-2.5-16.6-4.5-28.9-6.1-36.7-.9-4.6-1.8-8.5-2.7-11.7l54.2 5.9 41.8-51.9L1344.6 40z"/>
  <path fill="#00e300" d="M1252.1 230.8l8.1 35.5c3.9 17.2 5 33.9 5.3 42.3l-63.5 14c-2-19.2-4-38.9-6.1-59-2.4-22.8-5.1-45.5-8.1-67.3-3-21.9-6.6-43.1-10.7-63.1-3.7-18.2-8.1-35.1-13.1-50.2l46.2-35.3c71.1 32.4 117.9 77 122.6 117.1 2.2 18.6-5.3 35-21.7 47.3l-5.8 4.4 75.8 91.7-64.2 16.9-64.8-94.3zm-27-107.5c5 18.1 14.7 54.3 18.5 69.9l1.1 4.7 4.8.6c1.3.2 2.7.3 4.1.3 13.5 0 24.8-8.7 27.5-14.7 4.6-10.4 6.1-26.6-12.8-44.9-7.2-7-20.3-17-33.1-23.8l-14.4-7.6 4.3 15.5z"/>
  <path d="M1211.1 55.9c33.9 15.8 62.3 34.5 82.4 54.4 19.1 18.9 30.3 38 32.3 55.4 1.9 16.2-4.5 30-19 41l-11.6 8.8 9.3 11.3 64.2 77.6-48.8 12.9-41.5-60.3-35.9-52.2 6 .8c1.6.2 3.3.3 4.9.3 15.8 0 29.9-9.8 33.9-18.9 4.5-10.2 8.7-30.6-14.4-52.8-7-6.8-20.3-17.4-34.7-25L1209.5 94l8.7 31.3c5 18.1 14.7 54.2 18.4 69.6l.5 2.1-.1-.1 16.1 71.1c3 13.3 4.3 26.4 4.8 35.2l-50 11.1c-1.7-16.7-3.5-33.8-5.3-51.2-2.4-22.9-5.1-45.6-8.1-67.6-3.1-22-6.7-43.4-10.8-63.5-3.4-16.6-7.3-32.1-11.8-46.2l39.2-29.9m-1.8-16.2l-53.5 40.9c5.6 16.1 10.4 34.2 14.5 54.1 4 19.9 7.6 40.8 10.6 62.7 3 21.8 5.7 44.2 8.1 67.1 2.4 22.9 4.7 45.2 6.9 66.8l76.7-17s.2-23.9-5.6-49.4l47.1 68.4 79.5-21-78.2-94.5c55.3-42 17.3-123.3-106.1-178.1zm44.2 152c-1 0-2.1-.1-3.2-.2-3.8-15.8-13.7-52.6-18.5-70.1 13 6.9 25.4 16.8 31.5 22.7 12.1 11.6 17 24.1 11.3 37-1.4 3.2-9.9 10.6-21.1 10.6z"/>
  <path fill="#00e300" d="M1150.7 321.6h-7c-4.7 0-11.2-.6-19.3-1.7-8-1.1-16.7-3.4-26-6.6-9.2-3.2-18.6-8-28.1-14.1-9.2-6-17.7-14-25.2-23.9-7.5-10-13.8-22.4-18.7-37-4.9-14.6-7.4-32.5-7.4-53.2 0-20.9 3.2-39.9 9.5-56.5s14.7-30.7 25.1-41.9c10.3-11.2 22-19.6 35-25 10.4-4.4 21.1-6.6 31.8-6.6 2.5 0 5 .1 7.4.3 13.2 1.2 26.3 6.3 38.9 15 11.3 7.7 21.7 18.9 30.9 33.2l-55 31.3c-2.1-3.6-4.4-7.1-7-10.3-3.6-4.7-8.2-9-13.6-12.6-6-4.1-13-6.2-20.8-6.2-10.7 0-16.9 4.8-20.2 8.8-4 4.9-7 10.7-8.9 17.1-1.8 6.1-2.8 12.3-3 18.5-.2 5.7-.3 10-.3 12.8 0 31.1 6.1 56.5 18.1 75.5 12.4 19.6 31.1 31.6 55.5 35.5l8.1 1.3v-64.1h-30.2l11.7-25.9 72.5-33.7V324l-54 26.7v-29.1z"/>
  <path d="M1120.5 62.1c2.2 0 4.5.1 6.8.3 12 1.1 23.9 5.7 35.6 13.8 8.9 6.1 17.2 14.5 24.8 25.1l-42.6 24.3c-1.2-1.8-2.5-3.6-3.9-5.3-4.1-5.3-9.2-10-15.1-14.1-7.2-4.9-15.5-7.4-24.7-7.4-13.4 0-21.3 6.2-25.6 11.4-4.6 5.7-8.1 12.2-10.2 19.6-1.9 6.6-3 13.4-3.3 20.2-.2 5.8-.4 10.2-.4 13.1 0 32.5 6.4 59.1 19.2 79.3 13.5 21.4 33.8 34.4 60.3 38.6l16.2 2.6v-79.3h-26.3l6.1-13.6 60.2-28v157l-40 19.8v-24.8h-14c-4.3 0-10.5-.6-18.3-1.7-7.5-1.1-15.8-3.2-24.6-6.3-8.7-3.1-17.6-7.5-26.6-13.4-8.5-5.5-16.4-13-23.4-22.2-7.1-9.3-13-21.1-17.6-35-4.6-13.9-7-31-7-51s3-38.2 9.1-54c6-15.7 13.9-29.1 23.7-39.7 9.6-10.4 20.5-18.2 32.5-23.2 9.5-4.1 19.3-6.1 29.1-6.1m0-14c-11.7 0-23.2 2.4-34.5 7.1-14 5.8-26.5 14.7-37.4 26.7-11 12-19.8 26.7-26.5 44.2-6.6 17.5-10 37.2-10 59 0 21.5 2.6 40 7.7 55.4 5.2 15.4 11.7 28.4 19.8 39 8 10.6 17 19.1 27 25.6 10 6.4 19.8 11.4 29.5 14.8 9.7 3.4 18.8 5.8 27.3 7 8.5 1.2 15.2 1.8 20.3 1.8V362l68-33.6V140.7l-84.9 39.5-17.2 38.1h34v48.9c-22.4-3.6-39.3-14.4-50.7-32.3-11.3-17.9-17-41.9-17-71.8 0-2.7.1-6.9.3-12.6.2-5.7 1.1-11.3 2.7-16.8s4.1-10.4 7.6-14.6c3.4-4.2 8.4-6.3 14.8-6.3s12 1.6 16.8 4.9c4.8 3.3 8.8 7 12 11.2 3.9 4.8 7.1 10 9.6 15.7l67.7-38.6c-10.8-18.2-23-32.1-36.8-41.5-13.7-9.4-27.8-14.8-42.3-16.1-2.4-.2-5.1-.3-7.8-.3z"/>
  <g>
    <path fill="#00e300" d="M1036.4 316.7c-14.3 0-28.2-1.1-40.2-3.1-13.1-3.1-25.8-7.9-37.6-14.4C947 292.8 936.7 284 928 273c-8.8-11-15.8-24.6-21.1-40.3-5.2-15.8-7.9-34.6-7.9-56.1 0-14.8 2.1-29.5 6.3-43.8 4.2-14.2 10.1-27 17.6-38 7.4-10.9 16.5-19.9 27.2-26.9 10.4-6.8 22.2-10.6 35.2-11.4 1.5-.1 3-.1 4.5-.1 11.9 0 25 2.9 38.9 8.6 14.7 6 30.4 16.4 46.9 30.9l-32.3 59.2c-3.6-3.3-7.2-6.3-10.9-9.1-5.2-4-11-7.7-17.3-11-6.9-3.6-13.6-5.4-19.9-5.4-10.8 0-19.9 4-27 12-6.9 7.7-10.4 19.2-10.4 34.1 0 16.9 4.3 31.7 12.7 44 8.3 12.1 19.4 21.6 33 28.3 1.1.5 2.2 1.1 3.5 1.8 11 5.6 31.5 16 56 16 3.9 0 7.8-.3 11.7-.8l-1.8 49.1c-10.9 1.7-23.4 2.6-36.5 2.6z"/>
    <path d="M989.7 63.4c11 0 23.2 2.7 36.3 8.1 12.7 5.2 26.4 14 40.7 26l-25.4 46.6c-1.5-1.3-3.1-2.5-4.6-3.7-5.6-4.3-11.8-8.2-18.4-11.6-7.9-4.1-15.7-6.2-23.1-6.2-12.7 0-23.8 5-32.2 14.4-8 9.1-12.1 22.1-12.1 38.8 0 18.3 4.7 34.5 13.9 47.9 9 13.1 21 23.4 35.7 30.6l3.4 1.7c11.5 5.9 33 16.8 59.2 16.8 1.5 0 2.9 0 4.4-.1l-1.3 35.3c-9.1 1.1-19.2 1.7-29.7 1.7-13.9 0-27.3-1-38.8-3-12.4-2.9-24.4-7.5-35.6-13.7-10.8-6-20.4-14.2-28.5-24.4-8.2-10.4-14.9-23.2-19.9-38.1-5-15.1-7.5-33.2-7.5-53.9 0-14.1 2-28.2 6-41.8 3.9-13.5 9.6-25.6 16.7-36.1 6.9-10.1 15.4-18.5 25.2-24.9 9.5-6.2 19.9-9.5 31.8-10.3 1.1 0 2.5-.1 3.8-.1m0-14c-1.6 0-3.3 0-4.9.1-14.3.9-27.1 5.1-38.6 12.5-11.4 7.5-21.2 17.1-29.1 28.8-8 11.7-14.1 25.1-18.5 40-4.4 15-6.6 30.2-6.6 45.7 0 22.3 2.8 41.7 8.3 58.3 5.5 16.6 12.9 30.7 22.2 42.4 9.3 11.7 20.2 21 32.7 27.9 12.5 6.9 25.6 11.9 39.6 15.2 12.5 2.2 27.1 3.3 41.6 3.3 15.2 0 30.4-1.2 43.3-3.7l2.3-63.6c-6.6 1.6-12.9 2.3-19 2.3-25.5 0-46.3-12.1-56.4-17-12.6-6.2-22.7-14.8-30.3-25.9-7.6-11.1-11.5-24.5-11.5-40 0-13.2 2.9-23 8.6-29.5 5.7-6.4 13-9.7 21.7-9.7 5.2 0 10.7 1.5 16.7 4.6 5.9 3.1 11.4 6.5 16.3 10.3 5.8 4.4 11.5 9.4 16.8 15l39.4-72.1c-18.6-17-36.3-28.9-53-35.8-14.8-6-28.7-9.1-41.6-9.1z"/>
  </g>
  <g>
    <path fill="#00e300" d="M883.3 346.8c-1.2-18.8-2.4-44.5-3.4-67.7-.6-13.3-1.1-25.9-1.7-35.9-.7-13-1.3-26.8-1.8-40.9-.6-14.3-1-29.4-1.3-44.7-.3-15.3-.4-30.9-.3-46.5.1-13.9.3-27.7.7-40.9L925.4 56c-.5 28-.6 56.9-.1 85.9.2 13.2.5 27.6.8 43.9.3 15.5.8 31.4 1.5 47.5s1.5 32.4 2.5 48.7c1.1 17.4 2.2 32.3 3.4 44.5l-50.2 20.3z"/>
    <path d="M918.2 65.3c-.4 25.1-.4 50.8 0 76.8.2 13.2.5 27.6.8 43.9.3 15.5.9 31.5 1.5 47.6.7 16.1 1.5 32.5 2.5 48.8.9 15 1.9 28.3 2.9 39.5l-36.4 14.7c-1-17.3-1.9-38.5-2.8-57.9-.6-13.4-1.1-26-1.7-35.9-.7-12.9-1.3-26.7-1.8-40.8-.6-14.3-1-29.3-1.3-44.5-.3-15.2-.4-30.8-.3-46.3.1-12.1.3-24 .6-35.6l36-10.3m14.4-18.6l-64 18.3c-.5 15-.7 30.4-.8 46.2-.1 15.8 0 31.3.3 46.7.3 15.3.8 30.2 1.3 44.8.6 14.5 1.2 28.2 1.9 41 1.6 30.3 3.5 85.1 5.7 113.3l64-25.8c-1.6-15.3-2.9-33.2-3.9-49.5-1-16.3-1.9-32.4-2.5-48.5-.7-16.1-1.2-31.9-1.5-47.4-.3-15.5-.6-30.1-.8-43.8-.5-32.7-.4-64.4.3-95.3z"/>
  </g>
  <g>
    <path fill="#00e300" d="M883.3 347.2c-1.2-18.8-2.4-44.7-3.4-68-.6-13.3-1.1-25.9-1.7-35.9-.7-13-1.3-26.8-1.8-40.9-.6-14.3-1-29.4-1.3-44.7-.3-15.3-.4-30.9-.3-46.5.1-14 .3-27.9.7-41.2l50.8-18c.6 56.8 11.4 238.1 14.1 274.5l-57.1 20.7z"/>
    <path d="M919.5 61.9c1.5 62.7 10.5 216 13.6 259.9l-43.3 15.6c-1-17.5-2-39-2.8-58.6-.6-13.4-1.1-26-1.7-35.9-.7-12.9-1.3-26.7-1.8-40.8-.6-14.3-1-29.3-1.3-44.5-.3-15.2-.4-30.8-.3-46.2.1-12.3.3-24.5.6-36.3l37-13.2m13.8-19.8zm0 0c-5.9 2.1-64.7 22.8-64.7 22.8-.5 15-.7 30.4-.8 46.2-.1 15.8 0 31.3.3 46.7.3 15.3.8 30.2 1.3 44.8.6 14.5 1.2 28.2 1.9 41 1.6 30.3 3.5 85.1 5.7 113.3l70.8-25.6C946.3 316 932.3 85 933.3 42.1z"/>
  </g>
  <g>
    <path fill="#00e300" d="M832.4 321.6h-7c-4.7 0-11.2-.6-19.3-1.7-8-1.1-16.7-3.4-26-6.6-9.2-3.2-18.6-8-28.1-14.1-9.2-6-17.7-14-25.2-23.9-7.5-10-13.8-22.4-18.7-37-4.9-14.6-7.4-32.5-7.4-53.2 0-20.9 3.2-39.9 9.5-56.5s14.7-30.7 25.1-41.9c10.3-11.2 22-19.6 35-25 10.4-4.4 21.1-6.6 31.8-6.6 2.5 0 5 .1 7.4.3 13.2 1.2 26.3 6.3 38.9 15 11.3 7.7 21.7 18.9 30.9 33.2l-55 31.3c-2.1-3.6-4.4-7.1-7-10.3-3.6-4.7-8.2-9-13.6-12.7-6-4.1-13-6.2-20.8-6.2-10.7 0-16.9 4.8-20.2 8.8-4 4.9-7 10.7-8.9 17.1-1.8 6.1-2.8 12.3-3 18.5-.2 5.7-.3 10-.3 12.8 0 31.1 6.1 56.5 18.1 75.5 12.4 19.6 31.1 31.6 55.5 35.5l8.1 1.3v-64.1H802l11.7-25.9 72.5-33.7V324l-54 26.7v-29.1z"/>
    <path d="M802.2 62.1c2.2 0 4.5.1 6.8.3 12 1.1 23.9 5.7 35.6 13.8 8.9 6.1 17.2 14.5 24.9 25.1L827 125.6c-1.2-1.8-2.5-3.6-3.9-5.3-4.1-5.3-9.2-10-15.1-14.1-7.2-4.9-15.5-7.4-24.7-7.4-13.4 0-21.3 6.2-25.6 11.4-4.6 5.7-8.1 12.2-10.2 19.6-1.9 6.6-3 13.4-3.3 20.2-.2 5.8-.4 10.2-.4 13.1 0 32.5 6.4 59.1 19.2 79.3 13.5 21.4 33.8 34.4 60.3 38.6l16.2 2.6v-79.3h-26.3l6.1-13.6 60.2-28v157l-40 19.8v-24.8h-14c-4.3 0-10.5-.6-18.3-1.7-7.5-1.1-15.8-3.2-24.6-6.3-8.7-3.1-17.6-7.5-26.6-13.4-8.5-5.5-16.4-13-23.4-22.2-7.1-9.3-13-21.1-17.6-35-4.6-13.9-7-31-7-51s3-38.2 9.1-54c6-15.7 13.9-29.1 23.7-39.7 9.6-10.4 20.5-18.2 32.5-23.2 9.4-4.1 19.2-6.1 28.9-6.1m0-14c-11.7 0-23.2 2.4-34.5 7.1-14 5.8-26.5 14.7-37.4 26.7-11 12-19.8 26.7-26.5 44.2-6.6 17.5-10 37.2-10 59 0 21.5 2.6 40 7.7 55.4 5.2 15.4 11.7 28.4 19.8 39 8 10.6 17 19.1 27 25.6 10 6.4 19.8 11.4 29.5 14.8 9.7 3.4 18.8 5.8 27.3 7 8.5 1.2 15.2 1.8 20.3 1.8V362l68-33.6V140.7l-84.9 39.5-17.2 38.1h34v48.9c-22.4-3.6-39.3-14.4-50.7-32.3-11.3-17.9-17-41.9-17-71.8 0-2.7.1-6.9.3-12.6.2-5.7 1.1-11.3 2.7-16.8s4.1-10.4 7.6-14.6c3.4-4.2 8.4-6.3 14.8-6.3s12 1.6 16.8 4.9c4.8 3.3 8.8 7 12 11.2 3.9 4.8 7.1 10 9.6 15.7l67.7-38.6c-10.8-18.2-23-32.1-36.8-41.5-13.7-9.4-27.8-14.8-42.3-16.1-2.4-.2-5.1-.3-7.8-.3z"/>
  </g>
  <g>
    <path fill="#00e300" d="M575.1 343.3c18.5-61 43.7-239.8 47.4-273.6l46-15c23.7 58.2 81.8 233.5 92.8 271.9L703.5 339c-1.8-8.4-4.9-22.5-7.6-34.6-2-9.3-3.8-17.4-4.6-21l-1.4-6.6-55.4 9.8-1.1 4.5c-1.5 6.5-10.2 40.7-13.7 53.7l-44.6-1.5zM653.9 196c-.6 3.4-1.4 7-2.3 11.3l-2.4 12.5c-.9 4.6-1.9 9.6-3 14.8l-2.2 10.6 36.4-7.8-2.1-7.2c-1.8-6.3-3.7-12.3-5.4-17.9-1.8-5.7-3.6-11.4-5.4-17l-8.4-26.1-5.2 26.8z"/>
    <path d="M664.5 63.4c23.6 59.9 74 211.1 88.1 258l-43.7 9.3c-1.8-8.2-4.1-18.8-6.1-28.1-2-9.2-3.8-17.2-4.5-20.8l-2.9-13.1-13.2 2.3-44.3 7.8-9.1 1.6-2.1 9c-1.4 5.9-8.3 33-12.2 48.2l-30.1-1c9.4-35 19.8-94.6 27.5-142.6 7.5-46.9 14.7-97.3 17.3-119l35.3-11.6m-29.7 190.8l21.1-4.5 18.5-4 14.7-3.2-4.2-14.5c-1.8-6.3-3.7-12.4-5.5-18.1-1.8-5.9-3.7-11.6-5.4-17l-16.8-52.1-10.2 53.9c-.6 3.3-1.4 6.9-2.3 11.1v.4l-.7 3.5c-.5 2.7-1.1 5.6-1.7 8.8-.9 4.6-1.9 9.5-3 14.7l-4.5 21m37.8-208.1L616 64.5c0 9.7-31.4 234.7-50.5 285.5l59.5 2c1.1-3.2 13.4-51.7 15.2-59.3l44.3-7.8c2.2 10.3 12.5 57.2 13.7 62.4L770 332c-3.1-17-74-231-97.4-285.9zM653 236c1.1-5.3 2.1-10.3 3-15 .9-4.7 1.7-8.8 2.4-12.3.9-4.1 1.7-7.9 2.4-11.4 1.8 5.6 3.6 11.2 5.4 16.9 1.8 5.7 3.6 11.7 5.4 17.8l-18.6 4z"/>
  </g>
  <g>
    <path fill="#00e300" d="M415.1 333.9c1.3-39.3 3.1-166.3-3.7-261.9l36.3-12.3 55.7 147.9 5.4-21.7c.2-.8 18.3-73.1 26.8-127.5l54.7 4c11.8 45 21 220 13.8 258.6h-50.7c5.3-32.2 4.1-68.6 4.1-70.2L556 207l-23.3 80-36.5 8.9-28.1-69.6.9 38.3c0 .4.8 37.2 1 56.8l-54.9 12.5z"/>
    <path d="M541.5 65.8l43.2 3.2c4.9 22.9 10 72.2 12.9 127.3 1.6 30.3 2.3 59.5 2.1 82.1-.2 17.9-.9 28.9-1.7 35.5h-36.4c4-30.6 3-61.9 2.9-63.5l-3-87.4-24.4 84-9.9 34.1-26.7 6.5-11.5-28.4-28.7-71.1 1.7 76.7c0 .4.7 30.9.9 51.1l-40.6 9.2c1.2-46.4 2.4-159.5-3.6-248.2l24.8-8.4 45.4 120.6 15.8 41.9 10.9-43.4c.7-3 17-68.3 25.9-121.8m-11.9-14.9c-8 55.2-27.6 133.2-27.6 133.2L451.8 50.9 404 67.1c8 104.6 5.1 251.6 3.7 275.6L477 327c0-17.2-1-62.5-1-62.5l16 39.7 46.3-11.3 12.1-41.8s1.5 43.5-5.5 77h64.5C620 298.7 609 95 595.6 55.7l-66-4.8z"/>
  </g>
</svg>
