<svg
	xmlns="http://www.w3.org/2000/svg"
	x="0" y="0"
	viewBox="-487 513 24 24"
	fill="none"
	stroke="currentColor"
	stroke-width="1"
	stroke-linecap="round" stroke-linejoin="round"
	class="whatsapp">
  <path d="M-475 514c2.9 0 5.7 1.1 7.8 3.2 2.1 2.1 3.2 4.8 3.2 7.8 0 6.1-4.9 11-11 11-2 0-3.9-.5-5.6-1.5l-.4-.2-4.2 1.1 1.1-4.1-.3-.4c-1.1-1.7-1.7-3.8-1.7-5.8.1-6.2 5-11.1 11.1-11.1"/>
  <path d="M-479.7 518.9c-.2 0-.6.1-.9.4-.3.3-1.2 1.1-1.2 2.8 0 1.6 1.2 3.2 1.3 3.4.2.2 2.3 3.6 5.7 5 .8.4 1.4.6 1.9.7.8.3 1.5.2 2.1.1.6-.1 1.9-.8 2.2-1.6.3-.8.3-1.4.2-1.6-.1-.1-.3-.2-.6-.4s-2-1-2.3-1.1c-.3-.1-.5-.2-.7.2-.2.3-.9 1.1-1 1.3-.2.2-.4.3-.7.1-.3-.2-1.4-.5-2.7-1.6-1-.9-1.6-2-1.8-2.3-.2-.3 0-.5.1-.7.1-.1.4-.4.5-.6.2-.2.2-.3.3-.5.1-.2.1-.4 0-.6-.1-.1-.7-1.8-1-2.5-.3-.6-.5-.6-.7-.6-.2.1-.5.1-.7.1z"/>
</svg>
