<?xml version="1.0" standalone="no"?>
<!DOCTYPE svg PUBLIC "-//W3C//DTD SVG 20010904//EN"
 "http://www.w3.org/TR/2001/REC-SVG-20010904/DTD/svg10.dtd">
<svg version="1.0" xmlns="http://www.w3.org/2000/svg"
 width="1000.000000pt" height="1000.000000pt" viewBox="0 0 1000.000000 1000.000000"
 preserveAspectRatio="xMidYMid meet">
<metadata>
Created by potrace 1.11, written by Peter Selinger 2001-2013
</metadata>
<g transform="translate(0.000000,1000.000000) scale(0.100000,-0.100000)"
fill="#000000" stroke="none">
<path d="M4667 9529 c-38 -10 -67 -32 -90 -69 l-22 -35 0 -2189 c0 -1657 3
-2208 12 -2272 40 -275 271 -494 552 -521 81 -7 74 -7 145 1 171 21 346 131
440 278 30 48 64 116 70 143 2 6 9 30 16 55 11 37 14 342 14 1690 0 1116 4
1647 11 1652 5 4 21 6 35 3 14 -2 61 -7 105 -10 44 -3 91 -8 105 -10 14 -2 45
-7 70 -10 92 -12 295 -57 383 -85 507 -156 922 -432 1259 -838 118 -143 124
-151 212 -282 233 -346 396 -737 472 -1130 8 -41 16 -85 18 -96 7 -33 14 -83
22 -149 3 -33 8 -68 10 -77 16 -94 23 -493 10 -678 -6 -87 -30 -306 -41 -372
-3 -16 -7 -43 -10 -60 -34 -208 -115 -484 -206 -704 -188 -455 -514 -884 -914
-1205 -336 -269 -742 -475 -1173 -594 -132 -36 -324 -79 -402 -90 -25 -3 -70
-10 -100 -15 -30 -5 -82 -12 -115 -15 -33 -4 -73 -8 -90 -10 -221 -25 -714
-25 -923 0 -20 2 -62 7 -92 10 -30 3 -66 8 -80 10 -14 2 -54 9 -90 15 -394 63
-702 161 -1050 334 -232 115 -423 241 -630 415 -336 283 -580 597 -780 1005
-81 164 -86 178 -146 351 -132 380 -196 808 -197 1315 -1 303 13 465 64 720
133 680 460 1243 984 1695 39 33 72 63 75 66 12 14 177 132 198 142 12 6 22
14 22 19 0 4 5 8 11 8 6 0 23 8 37 19 29 20 169 94 358 190 194 98 299 209
364 384 28 76 32 101 36 212 4 116 -12 198 -56 292 -91 196 -255 329 -465 376
-104 24 -248 17 -350 -17 -44 -15 -84 -31 -90 -36 -5 -4 -59 -34 -120 -66
-123 -64 -272 -153 -385 -227 -67 -45 -287 -204 -300 -217 -3 -3 -45 -39 -95
-80 -119 -98 -391 -368 -485 -481 -41 -50 -83 -100 -94 -112 -81 -96 -326
-445 -326 -466 0 -5 -4 -11 -8 -13 -21 -8 -211 -376 -287 -553 -80 -187 -191
-494 -221 -612 -43 -170 -93 -390 -98 -429 -4 -27 -11 -67 -16 -89 -4 -22 -11
-62 -14 -90 -4 -27 -8 -61 -11 -75 -2 -14 -7 -52 -10 -85 -5 -57 -12 -129 -20
-205 -11 -103 -19 -323 -19 -545 0 -261 5 -356 30 -570 8 -73 43 -283 54 -332
6 -24 14 -62 20 -85 118 -531 354 -1078 659 -1529 101 -149 97 -143 197 -269
129 -163 159 -196 333 -370 141 -140 220 -213 321 -296 19 -16 46 -39 60 -51
14 -13 28 -23 31 -23 3 0 18 -11 33 -25 15 -14 80 -62 144 -108 341 -243 678
-423 1069 -571 117 -44 422 -140 478 -150 15 -3 41 -9 58 -15 26 -8 141 -33
262 -57 42 -8 192 -33 235 -39 25 -3 56 -8 70 -10 82 -11 220 -27 270 -30 231
-15 329 -18 530 -18 221 0 418 7 520 18 25 3 70 7 100 9 57 5 216 24 260 31
14 2 54 9 90 15 79 12 117 19 150 25 14 3 39 8 55 11 17 3 80 16 140 30 61 14
117 27 125 29 8 1 74 20 145 40 890 255 1652 749 2241 1450 220 262 480 684
614 995 18 41 41 95 53 120 31 69 121 316 146 400 12 41 27 86 32 100 11 32
76 295 84 340 3 19 8 46 10 60 13 63 15 77 20 115 3 22 7 47 10 55 2 8 7 44
10 80 3 36 8 72 10 80 30 121 24 848 -10 1150 -3 25 -7 66 -10 91 -6 64 -15
139 -20 169 -3 14 -8 42 -11 64 -3 21 -8 48 -10 60 -2 11 -7 37 -10 56 -61
352 -289 925 -502 1260 -19 30 -51 80 -70 110 -58 91 -224 309 -313 410 -94
108 -249 264 -358 360 l-73 65 448 5 c398 5 455 8 499 24 220 79 363 222 427
428 33 108 31 274 -5 376 -33 94 -79 170 -142 237 -98 103 -188 153 -346 192
-32 7 -4623 10 -4652 2z"/>
<path d="M2999 7000 c-128 -26 -277 -100 -369 -182 -60 -55 -141 -162 -179
-239 -218 -444 8 -962 483 -1108 333 -102 696 35 888 334 47 73 94 181 103
237 3 18 8 40 10 49 10 31 13 185 5 241 -64 453 -495 759 -941 668z"/>
<path d="M7125 6344 c-90 -22 -117 -31 -170 -56 -135 -66 -229 -165 -295 -313
-16 -36 -28 -65 -26 -65 2 0 -2 -19 -8 -42 -8 -25 -12 -86 -11 -143 1 -85 7
-116 37 -205 63 -184 83 -296 83 -460 -1 -225 -46 -411 -152 -624 -195 -393
-541 -692 -978 -846 -49 -17 -97 -33 -105 -35 -8 -2 -42 -11 -75 -19 -32 -9
-80 -19 -105 -22 -25 -3 -48 -8 -52 -10 -12 -8 -191 -18 -293 -18 -150 1 -237
12 -389 50 -282 71 -547 225 -735 427 -110 118 -230 322 -276 467 -30 94 -82
185 -142 250 -57 62 -160 140 -185 140 -8 0 -18 4 -23 9 -12 10 -67 30 -110
39 -16 4 -82 7 -145 6 -100 -1 -125 -4 -190 -29 -164 -61 -280 -168 -352 -325
-48 -105 -66 -242 -46 -350 32 -176 173 -491 310 -694 349 -516 884 -879 1533
-1040 55 -14 111 -27 125 -30 14 -2 52 -9 85 -15 178 -31 295 -39 540 -36 213
3 258 6 355 21 19 3 46 7 60 8 61 7 171 29 245 47 44 12 89 23 100 25 76 15
327 102 451 157 387 171 672 364 955 646 217 218 377 433 512 691 111 211 212
487 242 659 3 19 7 37 9 40 2 3 7 30 11 60 4 30 9 63 11 75 19 95 26 469 11
591 -30 237 -111 533 -184 668 -36 65 -130 166 -194 207 -27 18 -84 46 -127
62 -65 26 -94 31 -182 34 -58 2 -114 1 -125 -2z"/>
</g>
</svg>
