    <svg
      class="logo"
      xmlns="http://www.w3.org/2000/svg"
      xml:space="preserve"
      id="Layer_1"
      x="0"
      y="0"
      version="1.1"
      viewBox="0 0 1303.9 340.2"
    >
      <g id="N">
        <path
          d="M1171.6 197.6c-1.4-2.5-4-4.1-6.9-4.1-.4 0-1.2 0-2.1.3-3.4 1-5.7 4-5.7 7.6l2.4 92.4-43.4 9.2c-.1-3.9-.2-8-.3-12.3-.5-26.9-1.3-65.6-2.1-89.2l-.1-2.7c-.4-11.4-.9-23.2-1.5-34.9-.7-14.2-1.4-26-2.1-37.5-.8-12.4-1.6-23.9-2.6-34.3-.7-7.9-1.5-15-2.2-21.1l39.2-9 72.1 125.5c1.3 2.4 3.9 3.9 6.8 3.9.9 0 1.6-.2 2.1-.3.1 0 .2-.1.3-.1 3.5-1.2 5.7-4.5 5.4-8.2-1.1-12.8-2.4-27.4-4.2-45.9-1-10.3-2.1-21.2-3.3-33.9l-1.1-11.2c-1.3-12.9-2.8-26.5-4.6-42.6l49.9-9.3c1.1 10.8 2.1 22.3 2.9 34.3 1.1 15.7 2 30.6 2.7 44.2.8 16.4 1.5 30.6 1.9 43.5.5 14 1 27.7 1.4 40.8.7 24 1.3 56.4 1.6 89.3l-50.3 12.4-56.2-106.8z"
          class="fill_color"></path>
        <path
          class="outline_color"
          d="M1264.1 44.8c.9 9.5 1.8 19.5 2.5 29.8 1.1 15.7 2 30.5 2.7 44.2.8 16.4 1.5 30.6 1.9 43.5.5 14 1 27.7 1.4 40.7.7 23.2 1.2 54.2 1.5 86l-44.1 11-54.9-104.2v-.1c-2.1-3.8-6-6.2-10.4-6.2-.6 0-1.8 0-3.2.4-5.1 1.5-8.6 6.1-8.6 11.5v.2l2.3 89-35.4 7.5c-.1-2.4-.1-4.9-.2-7.4-.5-27-1.3-65.6-2.1-89.3l-.1-2.5c-.4-11.5-.9-23.4-1.5-35.1-.7-14.2-1.4-26-2.1-37.6-.8-12.4-1.6-24-2.6-34.4-.6-6.4-1.2-12.3-1.8-17.6l32.8-7.5 70.6 122.9c2 3.7 6 6 10.3 6 1.4 0 2.5-.3 3.1-.4.2 0 .4-.1.6-.2 5.3-1.8 8.6-6.8 8.1-12.3-1.1-12.8-2.4-27.4-4.2-45.9-1-10.3-2-21.1-3.3-33.8-.4-3.7-.7-7.5-1.1-11.4-1.2-11.7-2.6-24.5-4.2-38.9l42-7.9m7.1-9.4-57.9 10.8c1.7 15.2 3.4 30.7 5 46.2 1.7 17 3.2 31.8 4.5 45.1 1.5 16 2.9 31.4 4.2 45.9.2 1.8-.9 3.4-2.7 4-.4.1-.8.2-1.1.2-1.3 0-2.7-.7-3.3-1.9l-73.6-128.1-45.6 10.4c.9 7.1 1.7 15.3 2.6 24.5.9 10.5 1.8 22 2.6 34.2.8 12 1.4 24.7 2.1 37.5.7 12.5 1.1 25.2 1.6 37.5.8 22.7 1.5 59.6 2.1 89.2.2 6.1.3 11.7.4 17l51.4-10.9-2.5-95.6c0-1.8 1.1-3.3 2.8-3.8.3-.1.7-.1.9-.1 1.3 0 2.7.8 3.3 2l57.8 109.8 56.4-13.9c-.3-32.2-.9-66.6-1.6-92.5-.4-12.6-.9-26.3-1.4-40.8-.5-14.3-1.1-28.9-1.9-43.6-.8-14.7-1.7-29.6-2.7-44.3-1-13.3-2.1-26.4-3.4-38.8z"
        ></path>
      </g>
      <g id="EE">
        <path
          d="M1109.1 304c-6.6-.7-14.2-1.2-21.4-1.6-7.4-.4-15.5-.7-24.1-.7-4.6 0-10.2.2-16.3.7l-1.3.1c-5.9.4-12 .9-18 1.5h-.2c-3.7.3-7.5.6-11.4 1-1.1.1-2.2.2-3.4.3-.3-36.8-2.7-74.6-7-112.6-4.5-39.1-12.4-77.2-23.5-113.5l38.2-38.5 102.5 26.7-29.1 35.5-47.2-5h-.8c-2.3 0-4.4.9-5.9 2.7-1.8 2-2.4 4.8-1.6 7.3.8 2.9 1.7 6.4 2.4 10.2 1 4.9 3 15.8 5.7 33.9.6 3.8 3.8 6.6 7.7 6.6h52l-10.8 35h-36c-2.1 0-4.2.9-5.7 2.5-1.4 1.4-2.1 3.4-2.1 5.6v.2c.2 2.7.4 5.5.6 8.3.2 3.4.5 6.9.7 10.3.4 6 .8 13.2.9 20.7.2 4 3.2 7.2 7.1 7.6l70.6 4.9-9 51.7-13.6-1.4z"
          class="fill_color"></path>
        <path
          class="outline_color"
          d="m1021.9 45.1 94.3 24.6-23.8 29-45-4.8h-1.2c-3.4 0-6.6 1.5-8.9 4-2.7 3-3.6 7.3-2.5 11.1.8 2.8 1.6 6.2 2.3 9.8v.1c1 4.8 2.9 15.6 5.6 33.6.9 5.8 5.8 10 11.7 10h46.5l-8.3 27h-33c-3.2 0-6.4 1.4-8.6 3.8-2.1 2.2-3.2 5.1-3.2 8.3v.5c.2 2.7.4 5.5.6 8.3.2 3.4.5 6.9.7 10.4.4 6 .7 13.1.9 20.6v.2c.3 5.9 4.8 10.7 10.7 11.3h.2l66.1 4.6-7.6 43.6-9.8-1.1c-6.6-.7-14.3-1.2-21.6-1.6-7.5-.4-15.7-.7-24.3-.7-4.7 0-10.4.2-16.6.7l-1.3.1c-5.9.4-11.9.9-18 1.5h-.2c-3.5.3-6.9.6-10.5.9-.5-35.5-2.8-72-7-108.6-4.4-38.5-12.1-76.1-22.9-111.9l34.7-35.3m-2.4-8.9L978 78.1c11.4 36.5 19.5 75.2 24.1 115.1 4.5 39.2 6.8 78.4 7 116.5 6.5-.6 12.9-1.2 19-1.7h.1c6.5-.7 13.1-1.1 19.4-1.6 6.5-.5 11.9-.7 16-.7 8 0 16 .2 23.9.7 7.8.5 15 .9 21.2 1.6l17.2 1.9 10.4-59.8-74.9-5.2c-1.9-.2-3.4-1.7-3.5-3.7-.2-7.5-.6-14.5-.9-20.8-.4-6.3-.9-12.6-1.2-18.7 0-1 .3-2.1 1-2.8.7-.8 1.7-1.2 2.7-1.2h38.9l13.3-43h-57.4c-1.9 0-3.5-1.3-3.8-3.2-2.3-15.3-4.3-26.8-5.7-34-.8-4.1-1.6-7.7-2.5-10.6-.4-1.2-.1-2.6.8-3.5.8-.9 1.8-1.3 2.9-1.3h.4l49.3 5.2 34.5-42-110.7-29.1zm92.2 118.4z"
        ></path>
      </g>
      <g id="E">
        <path
          d="M1006.2 301.4c-6.6-.7-14.2-1.2-21.4-1.6-7.4-.4-15.5-.7-24.1-.7-3.2 0-8.7.1-16.4.7-6.3.5-12.9 1-19.3 1.6h-.2c-1.8.2-3.7.3-5.6.5-3 .3-6.1.6-9.2.8-.3-37.5-2.7-76.1-7-114.8-4.6-40.2-12.5-79.1-23.5-115.6L917.7 33l102.7 27.3L991 96.8l-47-5.1h-.8c-2.3 0-4.5 1-5.9 2.8-1.7 2-2.3 4.7-1.5 7.2.9 3.2 1.7 6.7 2.3 10.4v.1c1.5 7 3.3 18.2 5.6 34.3.6 3.9 3.8 6.6 7.7 6.6h52l-10.9 35.8h-36c-2.2 0-4.3 1-5.8 2.6-1.3 1.5-2 3.5-2 5.5v.2c.2 2.7.3 5.4.5 8.2.2 3.6.5 7.2.7 10.8.4 6.4.8 13.4.9 21.1.2 4 3.2 7.2 7.1 7.6l70.6 5-9.1 52.8-13.2-1.3z"
          class="fill_color"></path>
        <path
          class="outline_color"
          d="m918.9 37.5 94.5 25.1-24.1 30-44.9-4.8h-1.3c-3.5 0-6.8 1.5-9 4.2-2.5 3-3.4 7.1-2.3 10.9.9 3.1 1.6 6.5 2.3 10.1v.2c1.4 6.9 3.3 18.1 5.6 34.1.9 5.8 5.8 10 11.7 10H998l-8.5 27.8h-33c-3.3 0-6.6 1.5-8.8 4-1.9 2.2-3 5.1-3 8.1v.5c.2 2.7.3 5.4.5 8.1.2 3.5.5 7.2.7 10.9.4 6.4.7 13.3.9 20.9v.2c.3 5.9 4.8 10.7 10.7 11.3h.2l66.1 4.7-7.7 44.8-9.7-1.1c-6.6-.7-14.3-1.2-21.6-1.6-7.5-.4-15.7-.7-24.3-.7-3.3 0-8.9.1-16.7.7-6.3.5-12.9 1-19.2 1.6h-.4c-1.8.2-3.7.3-5.5.5-1.6.2-3.3.3-4.9.5-.5-36.2-2.8-73.5-7-110.9-4.5-39.6-12.3-78-23-114l35.1-36.1m-2.5-8.9-41.6 42.7c11.4 37.1 19.4 76.5 24.1 117.1 4.5 40 6.8 79.8 7 118.7 6.5-.5 12.9-1.1 19.1-1.7h.1c6.5-.6 13.1-1.1 19.4-1.6 6.5-.5 12-.7 16.1-.7 8 0 16 .2 23.9.7 7.8.5 15 .9 21.2 1.6l17.1 1.9 10.5-60.9-74.9-5.3c-1.9-.2-3.4-1.7-3.5-3.7-.2-7.7-.6-14.8-.9-21.2-.4-6.5-.9-12.9-1.2-19 0-1 .4-2.1 1-2.8.7-.8 1.7-1.2 2.7-1.2h38.9l13.4-43.8h-57.4c-1.9 0-3.5-1.3-3.8-3.2-2.3-15.6-4.2-27.3-5.7-34.6-.8-4.3-1.6-7.9-2.5-10.9-.4-1.2-.1-2.6.8-3.5.7-.9 1.7-1.3 2.8-1.3h.4l49.2 5.3 34.6-43-110.8-29.6zm92.5 120.6z"
        ></path>
      </g>
      <g id="R">
        <path
          d="M836.7 211c-1.5-1.9-3.8-3-6.2-3-1 0-2 .2-2.9.6-3.3 1.4-5.2 4.6-4.9 8.1.8 6.6 1.6 13.5 2.4 20.5.7 6.6 1.3 13.1 1.7 19.1v.1c.5 4.6.8 9.1 1 13.5L779 286.5c-.9-8.2-1.7-16.5-2.6-24.8-1-9.5-2-19-3-28.7-2-19.9-4.5-40.8-7.7-63.8-2.8-20.3-6.2-40.5-10.1-59.8-3.4-16.9-7.5-32.7-12.2-46.9l41.9-32c6.2 3.9 12.9 7.6 19.8 11 8.6 4.3 17.5 8.8 26.3 13.4 8.9 4.7 17.5 9.7 25.5 15 8 5.3 15.2 11.2 21.2 17.8 5.9 6.3 10.8 13.8 14.5 22.4 3.6 8.4 5.4 18 5.4 28.7 0 11.5-1.6 20.7-4.8 27.5-3.3 6.9-7.7 12.8-13 17.6-3 2.8-3.4 7.3-1 10.5l68.9 90-54.6 3.4c.4-.1-56.8-76.8-56.8-76.8zM800.9 93.1c-1.9 2-2.6 4.9-1.9 7.6 1.4 4.8 2.9 9.8 4.3 14.8l.7 2.7c1.1 3.9 2.2 8 3.2 12.1v.2c1.2 5.1 2.5 10.4 3.7 16.2 1.5 7.3 2.7 13.5 3.8 19.5.6 3.4 3.4 6 6.9 6.4 1.9.2 3.8.2 5.7.2 1.8 0 3.7-.1 5.5-.2 4.4-.3 8.6-1.4 12.4-3.2 4.3-2 7.9-5.3 10.6-9.5 2.7-4.4 4-9.9 4-16.6 0-10.1-3-18.8-9-25.9-5.4-6.2-11.3-11.4-17.6-15.3-7.3-4.5-15.4-8.1-24-10.7-1.1-.6-2.3-.6-2.8-.6-2-.1-4.1.8-5.5 2.3z"
          class="fill_color"></path>
        <path
          class="outline_color"
          d="M785.7 35.4c5.7 3.5 11.6 6.7 17.8 9.7 8.6 4.3 17.5 8.8 26.2 13.4 8.8 4.6 17.2 9.6 25.2 14.9 7.7 5.1 14.6 10.8 20.5 17.1 5.6 6 10.2 13.1 13.8 21.2 3.4 7.9 5.1 17 5.1 27.1 0 10.7-1.5 19.6-4.4 25.7-3.1 6.4-7.1 11.9-12.1 16.4l-.1.1c-4.5 4.2-5.1 11-1.4 15.8l64.4 84-44.9 2.8-55.8-74.9-.2-.2c-2.3-2.8-5.7-4.5-9.3-4.5-1.5 0-3 .3-4.4.9h-.1c-4.9 2-7.9 7-7.3 12.3v.1c.8 6.5 1.6 13.4 2.3 20.4.7 6.6 1.3 12.9 1.7 18.9v.3c.3 3.5.6 6.9.8 10.3l-41.1 14c-.7-6.5-1.4-13.1-2-19.8-1-9.5-2-19-3-28.7-2-20-4.5-40.9-7.7-63.9-2.8-20.4-6.2-40.6-10.1-60.1-3.2-16-7.1-31-11.4-44.7l37.5-28.6M798 90.3c-2.8 3-3.9 7.4-2.8 11.5v.1c1.4 4.8 2.8 9.7 4.2 14.7l.7 2.6c1.1 3.9 2.2 8 3.2 11.9l.1.2c1.2 5.1 2.5 10.3 3.7 16.1 1.5 7.2 2.7 13.4 3.7 19.3.9 5.1 5.2 9.1 10.4 9.7 2.1.2 4.2.2 6.1.2 1.9 0 3.8-.1 5.7-.2h.2c4.8-.4 9.4-1.6 13.7-3.6 4.9-2.3 9.2-6.1 12.2-11v-.1c3-5 4.6-11.2 4.6-18.7 0-11.1-3.3-20.7-9.9-28.5l-.1-.1c-5.7-6.5-11.9-11.9-18.5-16h-.1c-7.5-4.6-15.7-8.3-24.5-11-1.3-.6-2.7-.9-4.3-.9-3.1.2-6.2 1.5-8.3 3.8m-12.7-64.7L738.9 61c5 14.8 9.4 31.3 13 49.1 3.8 18.8 7.2 38.9 10 59.6s5.5 42 7.7 63.6c2.1 20 4.1 39.5 6.1 58.5l56.3-19.2c-.2-5.3-.6-10.9-1.1-16.7-.4-5.8-.9-12.3-1.7-19.2-.8-7-1.5-13.9-2.4-20.5-.2-1.7.8-3.3 2.4-4 .5-.2.9-.3 1.4-.3 1.1 0 2.3.6 3 1.5l58.4 78.3 64.2-4-73.5-95.9c-1.2-1.6-.9-3.8.5-5.1 5.8-5.2 10.4-11.6 13.9-18.8 3.4-7.2 5.2-17 5.2-29.2 0-11.3-2-21.5-5.8-30.3-3.9-8.8-9-16.8-15.2-23.5-6.3-6.8-13.7-13-22-18.4-8.3-5.5-17-10.6-25.9-15.2-8.8-4.6-17.7-9.1-26.4-13.4-7.9-3.8-15.2-8-21.7-12.3zm42 143.1c-1.8 0-3.5 0-5.2-.2-1.7-.2-3.1-1.4-3.4-3.1-1.2-7.1-2.6-13.7-3.8-19.6-1.2-6-2.6-11.5-3.8-16.6-1.2-5-2.7-10-4-14.9-1.4-5-2.8-9.9-4.3-14.8-.4-1.3 0-2.8.9-3.8.7-.8 1.7-1.1 2.7-1.1.4 0 .8 0 1 .3 8.6 2.6 16.5 6.1 23.6 10.4 6.1 3.8 11.6 8.7 16.7 14.5 5.3 6.3 8 14.1 8 23.3 0 6-1.1 10.8-3.4 14.5-2.3 3.6-5.3 6.3-8.9 8-3.4 1.6-7.1 2.6-10.9 2.8-1.7.2-3.5.3-5.2.3z"
        ></path>
      </g>
      <g id="GG">
        <path
          d="M732.8 297.7c0-.4-.1-.8-.2-1.2-.6-3.7-3.8-6.6-7.7-6.6-4.4 0-10.4-.6-18.1-1.7-7.9-1.2-16-3.2-24.3-6.2-8.3-2.9-17.2-7.4-26.4-13.2-8.7-5.6-16.6-13.1-23.5-22.3-7.1-9.4-13-21.1-17.6-34.8-4.6-13.6-6.9-30.4-6.9-50 0-19.5 3-37.4 8.9-53.1 5.9-15.5 13.8-28.8 23.5-39.3 9.6-10.4 20.6-18.3 32.7-23.4 9.8-4.1 19.7-6.1 29.7-6.1 2.6 0 4.9.1 6.8.4 12.4 1.2 24.7 5.9 36.5 14 10.3 7 19.8 17.2 28.4 30.2l-50 28.5c-1.8-3-3.9-6-6.2-8.9-3.3-4.4-7.7-8.5-13.1-12.2-5.9-4-12.8-6-20.4-6-8.4 0-15.1 2.9-20 8.7-4 4.8-6.9 10.4-8.7 16.6-1.7 5.9-2.7 11.9-2.9 17.8-.2 5.5-.3 9.5-.3 12.2 0 29.7 5.8 54 17.3 72.1 11.9 18.9 29.9 30.4 53.3 34.1h.1c.3.1.6.1 1.1.1 2 0 3.9-.7 5.2-2 1.6-1.5 2.6-3.6 2.6-5.8v-46.3c0-4.3-3.5-7.8-7.8-7.8h-20.1L715 163l66.6-31v160.7l-48.8 24.2v-19.2z"
          class="fill_color"></path>
        <path
          class="outline_color"
          d="M703.1 43.8c2.5 0 4.5.1 6.3.3h.2c11.6 1.1 23.2 5.6 34.5 13.3 8.9 6.1 17.3 14.7 24.9 25.5l-42.9 24.5c-1.3-2-2.8-4-4.3-6-3.6-4.8-8.3-9.2-14-13.1h-.1c-6.6-4.4-14.2-6.7-22.6-6.7-9.5 0-17.5 3.5-23.1 10.1l-.1.1c-4.3 5.2-7.5 11.3-9.4 18-1.8 6.2-2.8 12.5-3.1 18.8-.2 5.5-.3 9.6-.3 12.3 0 30.5 6 55.5 17.9 74.2 12.6 20 31.4 32 56.1 35.9.5.1 1.1.2 1.8.2 3 0 5.9-1.1 7.9-3.1 2.5-2.3 3.9-5.4 3.9-8.7v-46.3c0-6.5-5.3-11.8-11.8-11.8h-14l7-15.5 59.6-27.7V290l-40.8 20.2v-12.7c0-.7-.1-1.5-.3-2.1-1-5.5-5.8-9.6-11.6-9.6-4.2 0-10.1-.5-17.5-1.6-7.6-1.1-15.5-3.1-23.5-6h-.1c-8-2.8-16.6-7.1-25.5-12.8-8.3-5.3-15.9-12.5-22.4-21.3-6.8-9-12.5-20.3-17-33.6-4.4-13.2-6.7-29.6-6.7-48.7 0-19 2.9-36.4 8.7-51.7 5.7-15.1 13.4-27.9 22.7-38 9.2-10 19.7-17.5 31.3-22.4 9.4-4 18.9-5.9 28.3-5.9m0-8c-10.5 0-21 2.2-31.3 6.4-12.6 5.3-24.1 13.4-34.1 24.3s-18.3 24.6-24.3 40.6c-6.1 16.1-9.2 34.4-9.2 54.5 0 19.9 2.4 37.1 7.1 51.2 4.7 14.1 10.9 26.2 18.2 35.9 7.2 9.7 15.5 17.5 24.5 23.3 9.2 5.9 18.3 10.5 27.2 13.6 8.9 3.2 17.3 5.3 25.1 6.4 7.9 1.1 14.1 1.7 18.7 1.7 2.1 0 3.8 1.7 3.8 3.8h.1v25.6l56.8-28.1V125.7L712 160l-13.3 29.5H725c2.1 0 3.8 1.7 3.8 3.8v46.3c0 1-.5 2.1-1.3 2.8-.7.7-1.6.9-2.5.9-.2 0-.4-.1-.6-.1-22.3-3.5-39.3-14.4-50.6-32.3-11.1-17.5-16.7-41.1-16.7-70 0-2.7.1-6.6.3-12 .2-5.7 1.1-11.4 2.7-16.9 1.6-5.7 4.3-10.8 7.9-15.2 4.1-4.8 9.8-7.3 17-7.3 6.8 0 12.9 1.8 18.1 5.3 4.8 3.3 9 7.1 12.2 11.4 2.9 3.7 5.6 7.7 7.8 11.9l57.2-32.6c-9.4-15.2-20.1-26.9-31.7-34.8-12.4-8.5-25.3-13.4-38.3-14.7-2.3-.1-4.8-.2-7.2-.2z"
        ></path>
      </g>
      <g id="C">
        <path
          d="M624.3 286.5c-1.1-.1-2.3-.1-3.4-.1-11.7 0-23.5-1.3-35.2-4-12.4-2.9-24.3-7.4-35.4-13.6-10.8-6-20.4-14.2-28.7-24.5-8.1-10.2-14.8-22.9-19.8-37.8-4.9-14.8-7.4-32.6-7.4-52.7 0-13.8 2-27.6 5.9-41.1 3.8-13.2 9.4-25.2 16.5-35.7 6.9-10.2 15.5-18.7 25.4-25.1 9.6-6.3 20.6-9.9 32.7-10.6 1.3-.1 2.7-.1 4.1-.1 11.1 0 23.4 2.7 36.4 8.1 13.6 5.6 28.2 15.2 43.4 28.4l-29.4 53.9c-3.2-2.9-6.3-5.4-9.4-7.7-4.9-3.8-10.5-7.3-16.5-10.5-6.7-3.5-13.2-5.3-19.4-5.3-10.6 0-19.4 4-26.4 11.8-6.7 7.5-10.1 18.7-10.1 33.1 0 16.2 4.1 30.5 12.3 42.3 7.9 11.5 18.5 20.7 31.6 27.2 12.7 6.3 27.4 10 43.7 11.2 3.2.3 6.8.4 10.8.4 8.3 0 17.1-.7 26-2.2L658 283c-10.7 2-22.1 3.2-33.7 3.5z"
          class="fill_color"></path>
        <path
          class="outline_color"
          d="M579.1 45.2c10.6 0 22.3 2.6 34.9 7.8 12.5 5.2 25.9 13.8 39.8 25.7l-25.5 46.7c-2-1.6-3.9-3.2-5.8-4.6-5.1-3.9-10.9-7.6-17.1-10.8-7.3-3.8-14.4-5.7-21.2-5.7-11.6 0-21.7 4.5-29.4 13.1-7.4 8.3-11.1 20.3-11.1 35.7 0 17.1 4.4 32.1 12.9 44.6 8.3 12.1 19.4 21.7 33.2 28.5 13.2 6.5 28.3 10.4 45.2 11.6 3.4.3 7 .4 11.1.4 6.6 0 13.5-.4 20.5-1.3l-11.8 42.8c-9.8 1.7-20 2.7-30.4 3-1.2-.1-2.4-.1-3.5-.1h-.1c-11.4 0-22.9-1.3-34.3-3.9-12.1-2.8-23.6-7.2-34.4-13.2-10.3-5.7-19.5-13.6-27.5-23.5-7.8-9.8-14.2-22.1-19.1-36.6-4.8-14.5-7.2-31.8-7.2-51.4 0-13.4 1.9-26.8 5.7-40 3.7-12.8 9.1-24.5 16-34.6 6.6-9.8 14.8-17.9 24.3-24 9-5.9 19.4-9.3 30.7-10h.1c1.4-.2 2.7-.2 4-.2m0-8c-1.4 0-2.9 0-4.4.1-12.8.8-24.4 4.5-34.7 11.3-10.3 6.7-19.3 15.6-26.5 26.2-7.3 10.7-13.1 23.1-17 36.8-4 13.7-6.1 27.9-6.1 42.2 0 20.5 2.6 38.7 7.6 54 5.1 15.2 11.9 28.3 20.5 39 8.5 10.6 18.6 19.2 29.8 25.5 11.4 6.3 23.7 11.1 36.5 14 11.7 2.7 23.9 4.1 36.1 4.1 1.1 0 2.3 0 3.3.1 12.6-.3 25-1.6 37-4.1l16.5-59.6c-10.6 2.1-21.2 3.2-31.5 3.2-3.5 0-7-.1-10.5-.4-15.7-1.1-29.9-4.7-42.2-10.8-12.4-6.2-22.5-14.8-30.1-25.9-7.7-11.2-11.6-24.6-11.6-40.1 0-13.4 3-23.6 9.1-30.4 6.2-6.9 14-10.4 23.4-10.4 5.5 0 11.4 1.6 17.5 4.8 5.8 3 11.2 6.4 16 10.1 4.4 3.2 8.6 6.9 12.8 10.9L664 76.9c-16.4-14.7-32.2-25.2-46.9-31.3-13.5-5.6-26.3-8.4-38-8.4zm98.6 189.7z"
        ></path>
      </g>
      <g id="I">
        <path
          d="M479.4 313.2c-1.1-17.6-2.2-41.3-3.1-62.5-.2-4.7-.4-9.4-.6-13.8-.3-7.3-.6-14.3-.9-20.1-.6-12-1.2-25.1-1.7-38.8-.5-12.1-.9-25.9-1.2-42.3-.3-14.4-.4-29.2-.3-43.9.1-11.8.3-24.3.7-37.9l45-12.9c-.4 24.7-.5 50.9-.1 79.9.1 8.3.3 17 .5 26.5.1 4.8.2 9.8.3 15.1.3 14.9.8 30 1.4 45 .8 18 1.5 32.6 2.4 46.1 1 16.2 2 30.1 3.1 41.4l-45.5 18.2z"
          class="fill_color"></path>
        <path
          class="outline_color"
          d="M513.2 46.4c-.4 23.1-.4 47.6 0 74.6.1 8.3.3 17.2.5 26.5.1 4.8.2 9.8.3 15.1.3 14.9.8 30.1 1.4 45.1.8 18 1.5 32.7 2.4 46.2.9 14.9 1.8 27.8 2.8 38.6l-37.5 15c-1-16.8-2-37.8-2.8-56.9-.2-4.7-.4-9.3-.6-13.8-.3-7.4-.6-14.3-.9-20.2-.6-12-1.2-25-1.7-38.7v-.1c-.5-12-.9-25.8-1.2-42.2-.3-14.4-.4-29.1-.3-43.8.1-11 .3-22.4.6-34.9l37-10.5m8.2-10.6-53 15.2c-.4 13.3-.7 27-.8 40.9-.1 14.7 0 29.5.3 44s.7 28.8 1.2 42.3c.5 13.4 1 26.5 1.7 38.8.5 9.4.9 21.3 1.5 33.9 1 23.6 2.3 50.1 3.5 68.1l53.3-21.4c-1.2-11.9-2.4-26.8-3.4-44.2-.9-15.3-1.7-30.9-2.4-46s-1.1-30.3-1.4-44.9c-.3-15.5-.6-29.1-.8-41.6-.3-28.8-.3-57.4.3-85.1z"
        ></path>
      </g>
      <g id="G">
        <path
          d="M431.4 297.7c0-.4-.1-.8-.2-1.2-.6-3.7-3.8-6.6-7.7-6.6-4.4 0-10.4-.6-18.1-1.7-7.9-1.1-16-3.2-24.3-6.2-8.3-2.9-17.2-7.4-26.4-13.2-8.7-5.6-16.6-13.1-23.5-22.3-7.1-9.4-13-21.1-17.6-34.8-4.6-13.6-6.9-30.4-6.9-50 0-19.5 3-37.4 8.9-53.1 5.9-15.5 13.8-28.8 23.5-39.3 9.6-10.4 20.6-18.3 32.7-23.4 9.8-4.1 19.7-6.1 29.7-6.1 2.6 0 4.9.1 6.8.4 12.4 1.2 24.7 5.9 36.5 14 10.2 6.9 19.7 17.1 28.3 30.2l-50 28.5c-1.8-3-3.9-6-6.2-8.9-3.3-4.4-7.7-8.5-13.1-12.2-5.9-4-12.8-6-20.4-6-8.4 0-15.1 2.9-20 8.7-4 4.8-6.9 10.4-8.7 16.6-1.7 5.9-2.7 11.9-2.9 17.8-.2 5.5-.3 9.5-.3 12.2 0 29.7 5.8 54 17.3 72.1 11.9 18.9 29.9 30.4 53.3 34.1h.1c.3.1.6.1 1.1.1 2 0 3.9-.7 5.2-2 1.6-1.5 2.6-3.6 2.6-5.8v-46.3c0-4.3-3.5-7.8-7.8-7.8h-20.1l10.1-22.5 66.6-31v160.7l-48.8 24.2v-19.2z"
          class="fill_color"></path>
        <path
          class="outline_color"
          d="M401.7 43.8c2.5 0 4.5.1 6.3.3h.2c11.6 1.1 23.2 5.6 34.5 13.3 8.8 6 17.1 14.6 24.8 25.5l-42.9 24.4c-1.3-2-2.8-4-4.3-6-3.6-4.8-8.3-9.2-14-13.1h-.1c-6.6-4.4-14.2-6.7-22.6-6.7-9.5 0-17.5 3.5-23.1 10.1l-.1.1c-4.3 5.2-7.5 11.3-9.4 18-1.8 6.2-2.8 12.5-3.1 18.8-.2 5.5-.3 9.6-.3 12.3 0 30.5 6 55.5 17.9 74.2 12.6 20 31.4 32 56.1 35.9.5.1 1.1.2 1.8.2 3 0 5.9-1.1 7.9-3.1 2.5-2.3 3.9-5.4 3.9-8.7V193c0-6.5-5.3-11.8-11.8-11.8h-14l7-15.5L476 138v151.9l-40.8 20.2v-12.7c0-.7-.1-1.5-.3-2.1-1-5.5-5.8-9.7-11.6-9.7-4.2 0-10.1-.5-17.5-1.6-7.6-1.1-15.5-3.1-23.5-6h-.1c-8-2.8-16.6-7.1-25.5-12.8-8.3-5.3-15.9-12.5-22.4-21.3-6.8-9-12.5-20.3-17-33.6-4.4-13.2-6.7-29.6-6.7-48.7 0-19 2.9-36.4 8.7-51.7 5.7-15.1 13.4-27.9 22.7-38 9.2-10 19.7-17.5 31.3-22.4 9.5-3.8 18.9-5.7 28.4-5.7m0-8c-10.5 0-21 2.2-31.3 6.4-12.6 5.3-24.1 13.4-34.1 24.3S318 91.1 312 107.1c-6.1 16.1-9.2 34.4-9.2 54.5 0 19.9 2.4 37.1 7.1 51.2 4.7 14.1 10.9 26.2 18.2 35.9 7.2 9.7 15.5 17.5 24.5 23.3 9.2 5.9 18.3 10.5 27.2 13.6 8.9 3.2 17.3 5.3 25.1 6.4 7.9 1.1 14.1 1.7 18.7 1.7 2.1 0 3.8 1.7 3.8 3.8h.1v25.6l56.8-28.1V125.7L410.6 160l-13.3 29.5h26.3c2.1 0 3.8 1.7 3.8 3.8v46.3c0 1-.5 2.1-1.3 2.8-.7.7-1.6.9-2.5.9-.2 0-.4-.1-.6-.1-22.3-3.5-39.3-14.4-50.6-32.3-11.1-17.5-16.7-41.1-16.7-70 0-2.7.1-6.6.3-12 .2-5.7 1.1-11.4 2.7-16.9 1.6-5.7 4.3-10.8 7.9-15.2 4.1-4.8 9.8-7.3 17-7.3 6.8 0 12.9 1.8 18.1 5.3 4.8 3.3 9 7.1 12.2 11.4 2.9 3.7 5.6 7.7 7.8 11.9l57.2-32.6c-9.5-15.2-20.1-26.9-31.7-34.8-12.4-8.5-25.3-13.4-38.3-14.7-2.3-.1-4.8-.2-7.2-.2z"
        ></path>
      </g>
      <g id="A">
        <path
          d="M308.9 305.7c-.5-2.4-1.1-4.9-1.7-7.5l-.5-2.1c-1.4-6.1-2.9-12.9-4.4-20.1-1.8-8.6-3.7-17-5.8-26.5-.7-3.5-3.9-6.1-7.6-6.1-.3 0-.9 0-1.7.2l-39.3 7c-3 .6-5.4 2.8-6.2 5.7v.1c-1.4 6.1-3.1 13.1-4.9 19.2-1.1 4.1-2.1 7.2-2.8 9.5l-38 15.8c3.6-14.8 7.2-32.5 10.1-47.3l.6-3.1c2.5-12.3 4.8-23.8 6.9-32.3 5.6-22.9 10.6-45.9 14.9-68.3 3.9-20.5 6.9-39.2 8.9-55.7 1.6-13.4 2.6-29.9 2.8-40.8l34.1-13.1c9.9 24.7 19.8 51.3 29.5 79.1 3.9 11 8.1 23.6 13.6 41 5.2 16.6 9.7 31.4 13.6 45.2 4 13.8 8.1 29.3 12.6 47.4 3.1 12.9 6.1 26.7 8.9 41l-43.6 11.7zm-43-139.8c-2.9.7-5.2 3-5.9 6v.2c-.5 3-1.2 6.2-2 9.9l-.1.6-2.3 11.8c-1 4.9-1.9 9.5-2.8 14.1-.6 2.5.2 5.2 2.1 7.1 1.5 1.5 3.4 2.3 5.5 2.3.4 0 1.1 0 1.9-.2l17.2-3.7c2.1-.4 3.9-1.7 5.1-3.7 1.1-1.8 1.4-4 .8-6.1-1.7-5.7-3.4-11.6-5.2-17.1v-.1c-1.7-5.3-3.4-10.7-5.1-16-.9-3.2-4-5.4-7.4-5.4-.7-.1-1.3 0-1.8.3z"
          class="fill_color"></path>
        <path
          class="outline_color"
          d="M272.2 45.4c9.4 23.6 18.8 48.9 28 75.3 3.9 10.9 8 23.5 13.5 40.8 5.2 16.6 9.7 31.3 13.6 45.1 4 13.8 8.1 29.2 12.5 47.2 2.8 11.8 5.6 24.3 8.2 37.2l-36 9.7c-.3-1.2-.5-2.3-.8-3.5l-.4-2v-.1c-1.4-6.1-2.9-12.8-4.4-20-1.8-8.2-3.6-17-5.8-26.5-1.2-5.3-6-9.2-11.5-9.2-.7 0-1.6 0-2.6.3l-39.1 7h-.1c-4.5.8-8.1 4.2-9.3 8.6 0 .1 0 .1-.1.2-1.4 6-3.1 13-4.8 19.1-.9 3.1-1.6 5.6-2.2 7.6L201.7 294c3-13.1 5.9-27.5 8.4-39.8l.6-3.2c2.5-12.2 4.8-23.7 6.9-32.1 5.6-23 10.7-46 15-68.5 3.9-20.6 6.9-39.4 8.9-55.9 1.5-12.4 2.5-27.6 2.8-38.5l27.9-10.6m-7.6 116.7c-4.2 1.1-7.5 4.5-8.5 8.9 0 .1 0 .2-.1.3-.5 2.9-1.2 6.1-2 9.8l-.1.6v.2l-2.3 11.7c-1 4.9-1.9 9.5-2.8 14-.9 3.9.3 8 3.2 10.8 2.2 2.2 5.2 3.5 8.3 3.5.5 0 1.6 0 2.9-.4l17-3.7c3.2-.6 6-2.6 7.7-5.5 1.7-2.8 2.1-6.1 1.2-9.3v-.1c-1.6-5.6-3.4-11.6-5.2-17.1-1.7-5.3-3.4-10.8-5.1-16.1-1.5-4.9-6.1-8.3-11.2-8.3-1.1.1-2.1.3-3 .7m12.1-127-40.3 15.5c-.1 9.8-1 28.1-2.8 43.1-1.9 15.9-4.8 34.6-8.8 55.4-4 20.8-8.9 43.8-14.9 68.1-2.3 9.3-4.8 22.1-7.6 35.6-3.7 18.5-7.9 39.2-12 54.7l47.2-19.1c.9-2.8 2.1-6.7 3.4-11.5 1.6-5.7 3.2-12.2 4.9-19.4.4-1.4 1.5-2.6 3-2.8l39.6-7.1c.2-.1.5-.1.7-.1 1.7 0 3.3 1.1 3.7 2.9 2.2 9.7 4.1 18.5 5.8 26.4 1.6 7.7 3.1 14.5 4.5 20.2 1.1 5 2.2 9.6 3 13.6l51.3-13.8c-2.8-14.9-6.1-30-9.7-44.9-4-16.2-8.1-32.2-12.6-47.5-4.4-15.2-9-30.5-13.6-45.3-4.6-14.6-9.2-28.5-13.6-41.1-10.1-28.4-20.5-56.4-31.2-82.9zm-9.3 134.6c.1-.1.2-.1.2-.2 1.6 0 3.1 1 3.6 2.7 1.7 5.3 3.4 10.7 5.1 16.1 1.7 5.3 3.4 11.1 5.1 17 .3 1 .2 2.1-.4 3-.6.9-1.4 1.6-2.5 1.8l-17.5 3.8c-.2.1-.5.1-.8.1-.9 0-1.9-.4-2.7-1.1-.9-.9-1.3-2.3-1-3.5 1-5 2-9.8 2.8-14.1l2.3-11.7c.9-4 1.6-7.5 2.2-10.7.5-1.9 1.9-3.1 3.6-3.2z"
        ></path>
      </g>
      <g id="M">
        <path
          d="M170.9 298.4c.7-8.2 1.2-15.7 1.5-20.8.5-7.9.8-16.2.8-25.4 0-7.6-.3-16.1-.8-25.2-.5-7.3-1.2-17-2.1-27.9-.4-3.9-3.6-7-7.4-7.2h-.4c-3.7 0-7 2.8-7.6 6.4l-10.5 55.4-30.4 7.2L93 202c-1.2-3.1-4.1-5.2-7.4-5.2-.4 0-1.1 0-1.9.3-3.6.9-6.1 4.2-5.9 8 1.1 14.4 1.6 26.4 1.6 35.8 0 10.3-.2 18.2-.7 24-.3 5.3-.6 9.8-1 13.7l-41.4 11.6c.4-5.3.9-11.3 1.5-17.9l.3-3.2c1.5-18.8 3.3-40.2 3.3-55.7 0-21.9-.6-45.8-1.8-71.1-.2-5.5-2.3-53.2-6.7-86.9l32-10.9 55.7 147.9c1.1 3 4 5.1 7.2 5.1h.8c3.5-.4 6.4-3.2 6.8-6.7 2.4-16.1 4.5-31.1 6.3-46 1.9-15.5 3.5-32.2 4.9-49.7 1.3-15.4 2.5-32.5 3.6-52.1l48.7 3.6c5.1 23.7 9.3 46.9 12.6 69.2 3.4 23.6 6 47.3 7.6 70.4 1.6 22.4 2.4 45.5 2.4 68.8 0 19.3-.3 31.8-1 51.4l-49.6-8z"
          class="fill_color"></path>
        <path
          class="outline_color"
          d="m154.3 47.4 41.7 3c4.8 22.6 8.8 44.7 11.9 66 3.4 23.5 6 47.1 7.6 70.1 1.6 22.3 2.3 45.3 2.3 68.5 0 17.7-.3 29.7-.8 46.7l-41.8-6.7c.5-6.8.9-12.8 1.2-17.2.5-8 .8-16.4.8-25.7 0-7.7-.3-16.2-.8-25.4v-.1c-.5-7.3-1.2-17-2.1-27.9v-.1c-.6-5.8-5.4-10.4-11.2-10.7h-.6c-5.7 0-10.6 4.2-11.6 9.7l-10 52.8-24.3 5.8-19.8-55.5v-.1c-1.7-4.6-6.2-7.7-11.1-7.7-.6 0-1.7 0-3 .4-5.4 1.4-9.1 6.4-8.8 12.1v.2c1.1 14.2 1.6 26.1 1.6 35.4 0 10.2-.2 18-.6 23.7v.1c-.2 4-.5 7.6-.7 10.7L41 284.8c.3-3.8.6-7.8 1-12.2v-.1l.3-3.1c1.5-18.9 3.3-40.4 3.3-56 0-21.9-.6-45.9-1.8-71.3-.2-5.3-2.2-50.4-6.3-84l25.3-8.6L117 193.9c1.7 4.6 6.1 7.7 11 7.7h1.3c5.4-.6 9.7-4.8 10.4-10.1 2.4-16.1 4.5-31.1 6.4-46.1 1.9-15.5 3.5-32.3 5-49.8 1.1-14.4 2.2-30.3 3.2-48.2m-7.6-8.6c-1 19.8-2.3 38.6-3.8 56.1-1.5 18.7-3.2 35.3-4.9 49.5-2.1 16.6-4.3 32-6.3 45.9-.2 1.7-1.6 3-3.3 3.2h-.4c-1.5 0-2.9-.9-3.5-2.5L67.4 39.6 28.5 52.7c4.3 30.8 6.5 76.2 7.1 89.8 1.2 26 1.8 49.9 1.8 70.9 0 16.2-1.9 38.6-3.5 58.5-.8 8.5-1.4 16.7-1.9 23.7l49.4-13.9c.6-4.6.9-10.1 1.3-16.5.5-6.3.7-14.5.7-24.3s-.6-22-1.6-36c-.1-1.9 1.1-3.6 3-4 .2-.1.5-.1.8-.1 1.6 0 3 1 3.6 2.6l22.3 62.2 36.4-8.6 11-58c.3-1.8 1.9-3.1 3.7-3.1h.2c1.9.1 3.4 1.6 3.6 3.5.9 10 1.5 19.3 2.1 27.7.5 8.5.8 17 .8 25s-.2 16.5-.8 25.2c-.5 7.5-1 15.7-1.8 24.4l58.1 9.3c.8-22 1.1-34.8 1.1-56.1 0-22.8-.8-46-2.4-69-1.6-23-4.2-46.8-7.7-70.7-3.4-23.1-7.9-47.4-13.3-72.3l-55.8-4.1z"
        ></path>
      </g>
    </svg>